<svg id="svg" version="1.1" xmlns="http://www.w3.org/2000/svg" width="400" height="400" viewBox="0, 0, 400,400"><g id="svgg"><path id="path0" d="M237.667 48.417 L 237.667 50.667 277.999 50.667 L 318.331 50.667 320.541 51.094 C 347.967 56.402,365.959 75.537,370.835 104.583 C 371.255 107.086,371.395 108.297,371.769 112.618 L 371.858 113.652 372.971 113.701 L 374.083 113.750 374.133 114.875 L 374.182 116.000 383.841 116.000 L 393.500 116.000 393.500 113.750 L 393.500 111.500 384.856 111.500 L 376.213 111.500 376.097 110.042 C 375.673 104.663,374.264 97.773,372.408 92.000 C 364.502 67.404,346.850 51.627,321.775 46.748 L 318.789 46.167 278.228 46.167 L 237.667 46.167 237.667 48.417 M88.750 46.505 C 78.251 46.636,75.224 46.978,68.775 48.762 C 49.270 54.160,34.568 69.415,26.865 92.250 C 24.692 98.692,22.667 107.929,22.667 111.398 L 22.667 112.118 21.542 112.225 C 20.923 112.283,17.248 112.331,13.375 112.332 L 6.333 112.333 6.333 114.583 L 6.333 116.833 13.542 116.811 C 17.506 116.799,22.212 116.743,24.000 116.686 L 27.250 116.583 27.167 115.500 C 26.507 106.919,31.163 90.519,37.317 79.750 C 46.776 63.199,60.271 53.892,78.417 51.407 C 81.218 51.023,101.355 50.824,132.318 50.874 L 158.887 50.917 167.605 93.167 C 172.401 116.404,176.307 135.519,176.287 135.645 C 176.252 135.859,141.796 154.145,141.399 154.160 C 141.298 154.164,137.048 149.418,131.954 143.615 C 126.861 137.812,122.576 132.965,122.432 132.846 C 122.150 132.612,18.069 132.548,10.208 132.776 L 6.500 132.884 6.500 135.135 L 6.500 137.385 10.792 137.276 C 13.152 137.216,38.746 137.161,67.667 137.155 L 120.250 137.143 129.372 147.530 L 138.494 157.917 138.497 177.958 L 138.500 198.000 82.772 198.000 L 27.044 198.000 26.921 176.625 C 26.853 164.869,26.783 155.233,26.764 155.212 C 26.745 155.191,22.028 155.154,16.281 155.129 L 5.833 155.083 5.833 157.375 L 5.833 159.667 14.056 159.667 L 22.278 159.667 22.389 176.042 C 22.450 185.048,22.500 203.498,22.500 217.042 L 22.500 241.667 14.167 241.667 L 5.833 241.667 5.833 244.018 C 5.833 246.093,5.864 246.357,6.097 246.268 C 6.242 246.212,11.004 246.167,16.680 246.167 L 27.000 246.167 27.000 224.333 L 27.000 202.500 82.708 202.541 L 138.417 202.583 138.469 211.083 C 138.498 215.758,138.470 224.769,138.408 231.107 L 138.294 242.630 129.272 252.773 L 120.250 262.917 63.417 262.862 C 32.158 262.832,6.452 262.770,6.292 262.726 C 6.024 262.651,6.000 262.836,6.000 264.989 L 6.000 267.333 24.389 267.333 C 34.503 267.333,60.659 267.379,82.514 267.435 L 122.250 267.536 131.651 256.935 C 136.822 251.104,141.108 246.333,141.177 246.333 C 141.314 246.333,175.006 264.966,175.213 265.156 C 175.284 265.222,171.273 283.929,166.301 306.728 L 157.260 348.180 114.421 348.132 L 71.583 348.083 68.951 347.196 C 50.201 340.879,37.623 328.453,30.856 309.564 C 28.511 303.017,26.500 292.784,26.500 287.398 L 26.500 286.515 25.375 286.466 L 24.250 286.417 24.201 285.292 L 24.151 284.167 15.242 284.167 L 6.333 284.167 6.333 286.417 L 6.333 288.667 14.156 288.667 L 21.980 288.667 22.067 289.375 C 22.116 289.765,22.199 290.608,22.251 291.250 C 23.111 301.672,26.847 313.907,31.820 322.583 C 40.137 337.093,52.106 346.602,68.667 351.858 L 70.917 352.572 114.958 352.626 L 159.000 352.681 159.000 351.590 C 159.000 350.366,158.966 350.389,160.337 350.683 C 160.806 350.784,161.219 350.837,161.255 350.801 C 161.327 350.729,180.300 263.800,180.372 263.213 C 180.412 262.884,178.378 261.713,161.687 252.463 L 142.958 242.083 142.988 200.333 C 143.005 177.371,143.071 158.533,143.134 158.471 C 143.198 158.409,151.837 153.841,162.333 148.319 C 172.829 142.798,181.434 138.268,181.456 138.254 C 181.492 138.229,162.986 48.292,162.929 48.215 C 162.914 48.196,162.456 48.287,161.910 48.418 C 161.364 48.548,160.860 48.657,160.792 48.661 C 160.723 48.664,160.667 48.142,160.667 47.500 L 160.667 46.333 128.958 46.366 C 111.519 46.385,93.425 46.447,88.750 46.505 M225.092 103.264 C 219.430 121.463,214.825 136.374,214.857 136.400 C 214.890 136.426,223.486 141.312,233.959 147.259 L 253.001 158.071 252.959 200.563 L 252.917 243.055 233.667 253.755 C 218.151 262.379,214.422 264.516,214.447 264.769 C 214.503 265.358,233.556 350.916,233.658 351.038 C 233.714 351.105,234.020 351.094,234.338 351.013 C 234.656 350.932,235.123 350.819,235.375 350.763 L 235.833 350.660 235.833 351.830 L 235.833 353.000 280.208 352.999 L 324.583 352.999 326.833 352.409 C 353.425 345.431,371.839 323.217,375.836 293.293 C 376.023 291.894,376.230 290.425,376.296 290.028 L 376.417 289.306 384.959 289.325 C 389.658 289.336,393.614 289.388,393.751 289.440 C 393.965 289.522,394.000 289.202,394.000 287.184 L 394.000 284.833 386.443 284.833 C 382.287 284.833,377.870 284.785,376.629 284.725 L 374.372 284.617 374.253 285.808 L 374.133 287.000 373.086 287.000 C 371.909 287.000,371.840 287.080,371.836 288.452 C 371.829 290.581,370.541 298.184,369.570 301.833 C 363.121 326.055,348.239 341.797,325.929 347.994 L 324.109 348.500 280.891 348.500 L 237.673 348.500 237.582 348.125 C 235.632 340.094,219.558 266.875,219.714 266.733 C 219.825 266.632,227.867 262.141,237.583 256.753 C 247.300 251.364,255.295 246.931,255.350 246.900 C 255.404 246.870,259.829 251.601,265.183 257.413 L 274.917 267.981 334.208 267.990 L 393.500 268.000 393.500 265.750 L 393.500 263.500 335.208 263.488 L 276.917 263.475 267.294 253.029 L 257.671 242.583 257.669 222.764 L 257.667 202.945 284.944 203.056 C 299.947 203.117,325.522 203.167,341.778 203.167 L 371.333 203.167 371.333 224.417 L 371.333 245.667 382.486 245.667 C 388.621 245.667,393.758 245.712,393.903 245.768 C 394.136 245.857,394.167 245.590,394.167 243.476 L 394.167 241.083 385.042 241.083 L 375.917 241.083 375.832 200.833 C 375.786 178.696,375.748 160.573,375.749 160.561 C 375.749 160.549,379.894 160.511,384.958 160.478 L 394.166 160.417 394.166 158.098 L 394.167 155.780 389.792 155.890 C 387.385 155.950,382.205 155.999,378.280 156.000 L 371.143 156.000 371.264 177.333 L 371.385 198.667 342.401 198.667 C 326.460 198.667,300.873 198.617,285.542 198.556 L 257.667 198.445 257.669 179.014 L 257.672 159.583 267.628 148.603 L 277.583 137.622 335.542 137.707 L 393.500 137.792 393.500 135.590 L 393.500 133.388 374.625 133.278 C 364.244 133.217,337.700 133.167,315.638 133.167 L 275.526 133.167 265.888 143.821 C 260.587 149.681,256.164 154.481,256.060 154.488 C 255.846 154.501,220.689 134.572,220.399 134.274 C 220.263 134.134,222.758 125.922,229.850 103.167 C 235.150 86.162,239.508 72.069,239.535 71.848 C 239.582 71.462,238.176 70.874,235.747 70.264 C 235.403 70.178,234.929 71.647,225.092 103.264 " stroke="none" fill="#050504" fill-rule="evenodd"></path><path id="path1" d="M73.750 28.326 C 34.721 35.196,6.177 69.474,6.167 109.485 L 6.167 112.387 11.694 112.277 C 14.734 112.216,18.397 112.167,19.834 112.167 L 22.448 112.167 22.656 110.208 C 23.580 101.504,26.704 90.810,30.823 82.250 C 40.224 62.713,55.275 50.723,74.652 47.334 C 80.093 46.382,77.282 46.441,120.792 46.380 L 160.833 46.324 160.833 47.425 L 160.833 48.526 161.292 48.436 C 162.845 48.128,162.965 48.128,163.062 48.443 C 163.329 49.319,181.511 137.899,181.468 138.115 C 181.438 138.262,173.386 142.598,162.333 148.419 L 143.250 158.469 143.110 200.184 C 142.987 236.859,142.999 241.921,143.215 242.079 C 143.351 242.177,151.793 246.869,161.976 252.504 C 173.604 258.939,180.493 262.843,180.496 263.000 C 180.504 263.352,161.460 350.724,161.345 350.867 C 161.261 350.970,160.272 350.812,159.458 350.566 C 159.199 350.487,159.167 350.612,159.167 351.673 L 159.167 352.868 115.125 352.791 L 71.083 352.714 68.583 351.928 C 41.926 343.540,24.827 321.165,22.142 291.157 L 21.934 288.833 14.024 288.833 L 6.114 288.833 6.221 292.208 C 7.571 334.801,40.268 369.077,82.333 371.996 C 85.778 372.235,312.726 372.230,316.195 371.990 C 358.766 369.055,391.613 335.101,393.593 291.986 L 393.704 289.555 387.658 289.444 C 384.333 289.383,380.440 289.333,379.006 289.333 L 376.401 289.333 376.202 291.292 C 375.328 299.925,372.384 310.108,368.410 318.250 C 359.866 335.754,345.435 347.617,326.667 352.568 L 324.583 353.118 280.208 353.035 L 235.833 352.953 235.833 351.872 L 235.833 350.792 235.292 350.909 C 234.315 351.120,233.500 351.212,233.500 351.112 C 233.500 351.058,229.219 331.792,223.986 308.299 C 218.754 284.805,214.434 265.321,214.387 265.000 L 214.301 264.416 233.651 253.666 L 253.001 242.917 252.959 200.524 L 252.917 158.132 233.917 147.324 C 223.467 141.379,214.863 136.493,214.797 136.466 C 214.690 136.422,234.958 70.990,235.286 70.316 C 235.438 70.006,239.893 71.261,239.778 71.581 C 238.970 73.832,220.332 134.250,220.435 134.287 C 220.517 134.315,228.571 138.880,238.333 144.430 L 256.083 154.521 256.500 154.033 C 256.729 153.764,261.106 148.927,266.226 143.282 L 275.535 133.020 334.601 133.120 L 393.667 133.221 393.667 124.694 L 393.667 116.167 383.833 116.167 L 374.000 116.167 374.000 115.000 L 374.000 113.833 372.833 113.833 L 371.667 113.833 371.665 112.875 C 371.659 109.637,370.428 101.962,369.154 97.213 C 362.634 72.923,346.578 57.047,323.164 51.740 C 318.890 50.772,321.983 50.834,278.042 50.834 L 237.500 50.833 237.500 48.417 L 237.500 46.000 277.906 46.000 L 318.311 46.000 320.614 46.421 C 348.495 51.521,367.290 69.606,374.189 97.975 C 375.101 101.725,376.333 109.446,376.333 111.412 C 376.333 111.460,380.233 111.500,385.000 111.500 L 393.667 111.500 393.667 110.042 C 393.664 69.728,364.025 34.800,324.256 28.244 L 321.762 27.833 199.089 27.845 L 76.417 27.857 73.750 28.326 M82.083 51.177 C 62.545 52.553,47.658 62.034,37.558 79.534 C 31.542 89.958,26.767 106.177,27.234 114.597 L 27.347 116.616 25.548 116.721 C 24.559 116.779,19.794 116.877,14.958 116.940 L 6.167 117.053 6.167 136.027 L 6.167 155.000 16.583 155.000 L 27.000 155.000 27.000 176.500 L 27.000 198.000 82.639 198.000 L 138.279 198.000 138.389 187.875 C 138.450 182.306,138.500 173.321,138.500 167.909 L 138.500 158.068 129.318 147.607 L 120.137 137.147 63.332 137.267 L 6.528 137.386 6.468 135.152 C 6.436 133.922,6.448 132.865,6.496 132.801 C 6.544 132.737,32.612 132.632,64.424 132.566 L 122.265 132.447 131.722 143.218 C 136.924 149.141,141.233 154.020,141.298 154.058 C 141.363 154.097,148.804 150.232,157.833 145.470 C 166.862 140.707,174.707 136.572,175.267 136.281 L 176.283 135.750 167.564 93.500 C 162.768 70.262,158.841 51.194,158.839 51.125 C 158.832 50.960,84.452 51.011,82.083 51.177 M267.596 148.782 L 257.667 159.730 257.667 179.115 L 257.667 198.500 304.292 198.500 C 329.935 198.500,355.473 198.550,361.042 198.611 L 371.167 198.721 371.167 177.277 L 371.167 155.833 382.417 155.833 L 393.667 155.833 393.667 146.833 L 393.667 137.833 335.596 137.833 L 277.525 137.833 267.596 148.782 M6.167 200.667 L 6.167 241.667 14.361 241.667 L 22.555 241.667 22.444 232.042 C 22.383 226.748,22.334 208.298,22.333 191.042 L 22.333 159.667 14.250 159.667 L 6.167 159.667 6.167 200.667 M375.889 189.625 C 375.950 205.644,376.000 223.756,376.000 229.875 L 376.000 241.000 384.833 241.000 L 393.667 241.000 393.667 200.750 L 393.667 160.500 384.722 160.500 L 375.778 160.500 375.889 189.625 M27.141 224.500 L 27.199 246.333 16.683 246.333 L 6.167 246.333 6.167 254.479 L 6.167 262.625 43.292 262.727 C 63.710 262.782,89.342 262.867,100.250 262.914 L 120.083 263.000 129.208 252.730 L 138.333 242.460 138.333 222.564 L 138.333 202.667 82.708 202.667 L 27.083 202.667 27.141 224.500 M257.667 222.777 L 257.667 242.443 267.269 252.846 L 276.871 263.250 335.269 263.333 L 393.667 263.417 393.667 254.542 L 393.667 245.667 382.527 245.667 L 371.386 245.667 371.267 224.546 C 371.202 212.930,371.125 203.403,371.098 203.375 C 371.070 203.348,345.536 203.277,314.357 203.218 L 257.667 203.112 257.667 222.777 M131.704 257.017 L 122.250 267.676 91.167 267.588 C 74.071 267.539,47.952 267.453,33.125 267.397 L 6.167 267.294 6.167 275.754 L 6.167 284.214 15.208 284.149 L 24.250 284.083 24.299 285.201 L 24.348 286.318 25.466 286.368 L 26.583 286.417 26.696 288.671 C 27.533 305.431,34.638 322.193,45.488 333.005 C 52.185 339.677,59.660 344.085,69.833 347.361 L 71.917 348.032 114.533 348.122 L 157.149 348.212 157.243 347.814 C 157.695 345.894,175.167 265.575,175.167 265.415 C 175.167 265.300,171.173 262.992,166.292 260.285 C 161.410 257.579,153.758 253.339,149.287 250.862 L 141.157 246.358 131.704 257.017 M237.603 256.830 C 227.897 262.228,219.880 266.720,219.788 266.812 C 219.677 266.923,222.622 280.462,228.672 307.647 L 237.723 348.315 280.737 348.366 L 323.750 348.417 325.833 347.882 C 351.335 341.334,369.108 318.570,371.685 289.156 L 371.891 286.808 373.029 286.862 L 374.167 286.917 374.167 285.770 L 374.167 284.623 383.917 284.697 L 393.667 284.771 393.667 276.427 L 393.667 268.083 334.342 268.125 L 275.017 268.168 265.245 257.584 C 259.870 251.763,255.422 247.004,255.361 247.008 C 255.300 247.012,247.309 251.432,237.603 256.830 " stroke="none" fill="#e3c33c" fill-rule="evenodd"></path><path id="path2" d="M137.945 27.792 C 171.602 27.815,226.727 27.815,260.445 27.792 C 294.163 27.769,266.625 27.750,199.250 27.750 C 131.875 27.750,104.288 27.769,137.945 27.792 M30.411 50.708 L 29.417 51.750 30.458 50.755 C 31.426 49.831,31.576 49.667,31.453 49.667 C 31.427 49.667,30.959 50.135,30.411 50.708 M6.081 131.167 C 6.081 144.321,6.101 149.702,6.125 143.125 C 6.149 136.548,6.149 125.785,6.125 119.208 C 6.101 112.631,6.081 118.013,6.081 131.167 M16.121 112.287 C 16.417 112.324,16.942 112.324,17.288 112.288 C 17.634 112.252,17.392 112.222,16.750 112.221 C 16.108 112.221,15.825 112.250,16.121 112.287 M12.297 116.956 C 12.782 116.990,13.532 116.990,13.964 116.956 C 14.396 116.921,14.000 116.894,13.083 116.894 C 12.167 116.895,11.813 116.923,12.297 116.956 M70.470 132.625 C 72.424 132.652,75.574 132.651,77.470 132.625 C 79.365 132.598,77.767 132.576,73.917 132.576 C 70.067 132.576,68.515 132.598,70.470 132.625 M278.708 133.125 C 280.519 133.152,283.481 133.152,285.292 133.125 C 287.102 133.098,285.621 133.076,282.000 133.076 C 278.379 133.076,276.898 133.098,278.708 133.125 M50.125 137.291 C 52.073 137.318,55.260 137.318,57.208 137.291 C 59.156 137.265,57.563 137.243,53.667 137.243 C 49.771 137.243,48.177 137.265,50.125 137.291 M302.458 137.792 C 305.231 137.817,309.769 137.817,312.542 137.792 C 315.315 137.766,313.046 137.745,307.500 137.745 C 301.954 137.745,299.685 137.766,302.458 137.792 M6.082 200.667 C 6.082 223.262,6.101 232.506,6.125 221.208 C 6.149 209.910,6.149 191.423,6.125 180.125 C 6.101 168.827,6.082 178.071,6.082 200.667 M143.073 186.583 C 143.073 189.150,143.096 190.177,143.125 188.865 C 143.153 187.553,143.153 185.453,143.125 184.198 C 143.096 182.943,143.073 184.017,143.073 186.583 M371.214 197.750 C 371.216 198.208,371.248 198.376,371.286 198.123 C 371.325 197.869,371.324 197.494,371.284 197.289 C 371.244 197.084,371.213 197.292,371.214 197.750 M333.125 198.625 C 335.073 198.651,338.260 198.651,340.208 198.625 C 342.156 198.598,340.563 198.576,336.667 198.576 C 332.771 198.576,331.177 198.598,333.125 198.625 M138.400 205.167 C 138.400 206.588,138.426 207.169,138.457 206.458 C 138.488 205.748,138.488 204.585,138.457 203.875 C 138.426 203.165,138.400 203.746,138.400 205.167 M258.044 203.120 C 258.297 203.158,258.672 203.157,258.877 203.117 C 259.082 203.078,258.875 203.046,258.417 203.048 C 257.958 203.049,257.791 203.081,258.044 203.120 M353.458 203.291 C 355.406 203.318,358.594 203.318,360.542 203.291 C 362.490 203.265,360.896 203.243,357.000 203.243 C 353.104 203.243,351.510 203.265,353.458 203.291 M371.226 204.750 C 371.225 205.575,371.254 205.934,371.288 205.547 C 371.323 205.160,371.324 204.485,371.289 204.047 C 371.255 203.609,371.226 203.925,371.226 204.750 M22.407 210.000 C 22.407 212.612,22.430 213.681,22.458 212.375 C 22.486 211.069,22.486 208.931,22.458 207.625 C 22.430 206.319,22.407 207.387,22.407 210.000 M375.907 217.917 C 375.907 220.483,375.930 221.510,375.958 220.198 C 375.986 218.886,375.986 216.786,375.958 215.532 C 375.930 214.277,375.907 215.350,375.907 217.917 M27.073 226.583 C 27.073 229.150,27.096 230.177,27.125 228.865 C 27.153 227.553,27.153 225.453,27.125 224.198 C 27.096 222.943,27.073 224.017,27.073 226.583 M6.077 254.500 C 6.077 259.037,6.099 260.894,6.125 258.625 C 6.151 256.356,6.151 252.644,6.125 250.375 C 6.099 248.106,6.077 249.963,6.077 254.500 M28.718 262.791 C 29.892 262.820,31.767 262.820,32.885 262.791 C 34.002 262.762,33.042 262.739,30.750 262.739 C 28.458 262.739,27.544 262.763,28.718 262.791 M90.218 262.958 C 91.392 262.987,93.267 262.987,94.385 262.958 C 95.502 262.929,94.542 262.905,92.250 262.906 C 89.958 262.906,89.044 262.929,90.218 262.958 M6.057 279.583 C 6.056 286.367,6.102 290.939,6.160 289.745 C 6.219 288.550,6.220 283.000,6.164 277.411 L 6.060 267.250 6.057 279.583 M42.792 267.458 C 43.915 267.487,45.752 267.487,46.875 267.458 C 47.998 267.429,47.079 267.405,44.833 267.405 C 42.587 267.405,41.669 267.429,42.792 267.458 M102.385 267.625 C 103.559 267.653,105.434 267.653,106.551 267.624 C 107.669 267.596,106.708 267.572,104.417 267.572 C 102.125 267.572,101.211 267.596,102.385 267.625 M304.528 268.125 C 320.814 268.148,347.514 268.148,363.861 268.125 C 380.208 268.102,366.883 268.082,334.250 268.082 C 301.617 268.082,288.242 268.102,304.528 268.125 M23.118 284.121 L 24.152 284.182 24.212 285.216 L 24.273 286.250 24.261 285.167 L 24.250 284.083 23.167 284.072 L 22.083 284.061 23.118 284.121 M385.213 284.789 C 385.652 284.824,386.327 284.823,386.713 284.788 C 387.100 284.754,386.742 284.725,385.917 284.726 C 385.092 284.726,384.775 284.755,385.213 284.789 M15.633 288.791 C 16.394 288.822,17.594 288.822,18.300 288.790 C 19.006 288.759,18.383 288.734,16.917 288.734 C 15.450 288.734,14.872 288.760,15.633 288.791 M389.380 289.456 C 389.818 289.490,390.493 289.490,390.880 289.455 C 391.267 289.420,390.908 289.392,390.083 289.392 C 389.258 289.393,388.942 289.422,389.380 289.456 M393.539 293.667 C 393.539 293.987,393.573 294.119,393.615 293.958 C 393.657 293.798,393.657 293.535,393.615 293.375 C 393.573 293.215,393.539 293.346,393.539 293.667 M352.494 332.792 L 351.583 333.750 352.542 332.839 C 353.432 331.993,353.576 331.833,353.453 331.833 C 353.427 331.833,352.995 332.265,352.494 332.792 M42.000 336.250 C 42.311 336.571,42.603 336.833,42.649 336.833 C 42.695 336.833,42.478 336.571,42.167 336.250 C 41.856 335.929,41.564 335.667,41.518 335.667 C 41.472 335.667,41.689 335.929,42.000 336.250 M371.073 346.042 L 370.583 346.583 371.125 346.094 C 371.630 345.638,371.743 345.500,371.615 345.500 C 371.586 345.500,371.342 345.744,371.073 346.042 M81.375 348.123 C 81.902 348.156,82.765 348.156,83.292 348.123 C 83.819 348.090,83.387 348.063,82.333 348.063 C 81.279 348.063,80.848 348.090,81.375 348.123 M304.968 348.458 C 306.096 348.487,307.896 348.487,308.968 348.458 C 310.040 348.429,309.117 348.405,306.917 348.405 C 304.717 348.405,303.840 348.429,304.968 348.458 M71.208 352.615 C 71.369 352.657,71.631 352.657,71.792 352.615 C 71.952 352.573,71.821 352.539,71.500 352.539 C 71.179 352.539,71.048 352.573,71.208 352.615 M86.708 352.790 C 87.235 352.823,88.098 352.823,88.625 352.790 C 89.152 352.757,88.721 352.730,87.667 352.730 C 86.612 352.730,86.181 352.757,86.708 352.790 M316.208 353.124 C 317.285 353.153,319.048 353.153,320.125 353.124 C 321.202 353.095,320.321 353.072,318.167 353.072 C 316.012 353.072,315.131 353.095,316.208 353.124 M142.361 372.292 C 173.589 372.315,224.739 372.315,256.028 372.292 C 287.317 372.268,261.767 372.250,199.250 372.250 C 136.733 372.250,111.133 372.268,142.361 372.292 " stroke="none" fill="#917b26" fill-rule="evenodd"></path><path id="path3" d="M257.805 46.125 C 269.019 46.149,287.319 46.149,298.472 46.125 C 309.625 46.101,300.450 46.082,278.083 46.082 C 255.717 46.082,246.591 46.101,257.805 46.125 M160.721 47.417 C 160.722 48.058,160.752 48.300,160.788 47.955 C 160.824 47.609,160.824 47.084,160.787 46.788 C 160.750 46.492,160.721 46.775,160.721 47.417 M367.917 50.167 C 368.275 50.533,368.605 50.833,368.651 50.833 C 368.697 50.833,368.441 50.533,368.083 50.167 C 367.725 49.800,367.395 49.500,367.349 49.500 C 367.303 49.500,367.559 49.800,367.917 50.167 M257.722 50.792 C 268.889 50.815,287.114 50.815,298.222 50.792 C 309.329 50.768,300.192 50.749,277.917 50.749 C 255.642 50.749,246.554 50.768,257.722 50.792 M370.493 52.708 C 370.902 53.144,371.258 53.500,371.285 53.500 C 371.410 53.500,371.278 53.350,370.542 52.660 L 369.750 51.917 370.493 52.708 M356.000 64.250 C 356.311 64.571,356.603 64.833,356.649 64.833 C 356.695 64.833,356.478 64.571,356.167 64.250 C 355.856 63.929,355.564 63.667,355.518 63.667 C 355.472 63.667,355.689 63.929,356.000 64.250 M47.412 66.375 L 46.250 67.583 47.458 66.421 C 48.581 65.342,48.743 65.167,48.621 65.167 C 48.595 65.167,48.051 65.710,47.412 66.375 M393.545 106.667 C 393.545 107.079,393.578 107.248,393.618 107.042 C 393.657 106.835,393.657 106.498,393.618 106.292 C 393.578 106.085,393.545 106.254,393.545 106.667 M393.566 113.833 C 393.566 115.162,393.592 115.706,393.624 115.042 C 393.655 114.377,393.655 113.290,393.624 112.625 C 393.592 111.960,393.566 112.504,393.566 113.833 M13.955 112.287 C 14.250 112.324,14.775 112.324,15.121 112.288 C 15.467 112.252,15.225 112.222,14.583 112.221 C 13.942 112.221,13.659 112.250,13.955 112.287 M15.208 116.955 C 15.552 116.991,16.115 116.991,16.458 116.955 C 16.802 116.919,16.521 116.889,15.833 116.889 C 15.146 116.889,14.865 116.919,15.208 116.955 M56.386 132.625 C 58.386 132.651,61.611 132.651,63.553 132.625 C 65.495 132.598,63.858 132.576,59.917 132.576 C 55.975 132.576,54.386 132.598,56.386 132.625 M293.458 133.125 C 296.231 133.151,300.769 133.151,303.542 133.125 C 306.315 133.099,304.046 133.078,298.500 133.078 C 292.954 133.078,290.685 133.099,293.458 133.125 M393.566 135.500 C 393.566 136.829,393.592 137.373,393.624 136.708 C 393.655 136.044,393.655 134.956,393.624 134.292 C 393.592 133.627,393.566 134.171,393.566 135.500 M64.125 137.291 C 66.073 137.318,69.260 137.318,71.208 137.291 C 73.156 137.265,71.563 137.243,67.667 137.243 C 63.771 137.243,62.177 137.265,64.125 137.291 M277.442 137.792 C 277.372 137.905,284.741 137.903,294.000 137.788 C 295.971 137.763,293.069 137.726,287.552 137.705 C 282.034 137.684,277.485 137.723,277.442 137.792 M138.409 191.250 C 138.409 195.008,138.431 196.570,138.458 194.719 C 138.485 192.869,138.485 189.794,138.458 187.886 C 138.431 185.978,138.409 187.492,138.409 191.250 M143.076 198.167 C 143.076 202.063,143.098 203.656,143.125 201.708 C 143.151 199.760,143.151 196.573,143.125 194.625 C 143.098 192.677,143.076 194.271,143.076 198.167 M347.125 198.625 C 349.073 198.651,352.260 198.651,354.208 198.625 C 356.156 198.598,354.563 198.576,350.667 198.576 C 346.771 198.576,345.177 198.598,347.125 198.625 M375.910 206.333 C 375.910 210.229,375.931 211.823,375.958 209.875 C 375.985 207.927,375.985 204.740,375.958 202.792 C 375.931 200.844,375.910 202.438,375.910 206.333 M339.458 203.291 C 341.406 203.318,344.594 203.318,346.542 203.291 C 348.490 203.265,346.896 203.243,343.000 203.243 C 339.104 203.243,337.510 203.265,339.458 203.291 M371.243 213.167 C 371.243 217.063,371.265 218.656,371.291 216.708 C 371.318 214.760,371.318 211.573,371.291 209.625 C 371.265 207.677,371.243 209.271,371.243 213.167 M27.076 214.833 C 27.076 218.821,27.098 220.452,27.125 218.458 C 27.151 216.465,27.151 213.202,27.125 211.208 C 27.098 209.215,27.076 210.846,27.076 214.833 M22.410 221.750 C 22.410 225.692,22.432 227.280,22.458 225.280 C 22.485 223.280,22.485 220.055,22.458 218.114 C 22.431 216.172,22.410 217.808,22.410 221.750 M36.875 262.791 C 38.044 262.820,39.956 262.820,41.125 262.791 C 42.294 262.763,41.337 262.739,39.000 262.739 C 36.662 262.739,35.706 262.763,36.875 262.791 M98.375 262.958 C 99.544 262.987,101.456 262.987,102.625 262.958 C 103.794 262.929,102.837 262.906,100.500 262.906 C 98.162 262.906,97.206 262.929,98.375 262.958 M335.204 263.458 L 393.491 263.500 393.544 265.750 L 393.598 268.000 393.591 265.709 L 393.583 263.417 335.250 263.416 L 276.917 263.416 335.204 263.458 M34.542 267.458 C 35.710 267.487,37.623 267.487,38.792 267.458 C 39.960 267.429,39.004 267.406,36.667 267.406 C 34.329 267.406,33.373 267.429,34.542 267.458 M94.042 267.625 C 95.210 267.653,97.123 267.653,98.292 267.625 C 99.460 267.596,98.504 267.572,96.167 267.572 C 93.829 267.572,92.873 267.596,94.042 267.625 M17.958 284.124 C 18.715 284.155,19.952 284.155,20.708 284.124 C 21.465 284.093,20.846 284.068,19.333 284.068 C 17.821 284.068,17.202 284.093,17.958 284.124 M388.047 284.789 C 388.485 284.824,389.160 284.823,389.547 284.788 C 389.934 284.754,389.575 284.725,388.750 284.726 C 387.925 284.726,387.609 284.755,388.047 284.789 M26.539 287.000 C 26.539 287.321,26.573 287.452,26.615 287.292 C 26.657 287.131,26.657 286.869,26.615 286.708 C 26.573 286.548,26.539 286.679,26.539 287.000 M373.127 286.951 C 373.334 286.991,373.634 286.990,373.794 286.948 C 373.953 286.906,373.783 286.874,373.417 286.875 C 373.050 286.877,372.920 286.911,373.127 286.951 M20.129 288.789 C 20.521 288.824,21.121 288.824,21.463 288.788 C 21.804 288.752,21.483 288.723,20.750 288.724 C 20.017 288.724,19.737 288.754,20.129 288.789 M386.375 289.456 C 386.810 289.490,387.523 289.490,387.958 289.456 C 388.394 289.422,388.037 289.393,387.167 289.393 C 386.296 289.393,385.940 289.422,386.375 289.456 M393.542 292.583 C 393.544 292.950,393.578 293.080,393.618 292.873 C 393.658 292.666,393.656 292.366,393.615 292.206 C 393.573 292.047,393.540 292.217,393.542 292.583 M40.500 334.719 C 40.500 334.748,40.744 334.991,41.042 335.260 L 41.583 335.750 41.094 335.208 C 40.638 334.703,40.500 334.590,40.500 334.719 M42.667 336.885 C 42.667 336.914,42.910 337.158,43.208 337.427 L 43.750 337.917 43.260 337.375 C 42.804 336.870,42.667 336.757,42.667 336.885 M28.750 346.833 C 29.108 347.200,29.438 347.500,29.484 347.500 C 29.530 347.500,29.275 347.200,28.917 346.833 C 28.559 346.467,28.228 346.167,28.182 346.167 C 28.137 346.167,28.392 346.467,28.750 346.833 M369.163 347.958 L 367.750 349.417 369.208 348.004 C 370.010 347.227,370.667 346.570,370.667 346.545 C 370.667 346.424,370.475 346.604,369.163 347.958 M85.132 348.124 C 85.708 348.156,86.608 348.156,87.132 348.123 C 87.655 348.090,87.183 348.063,86.083 348.064 C 84.983 348.064,84.555 348.091,85.132 348.124 M312.801 348.458 C 313.929 348.487,315.729 348.487,316.801 348.458 C 317.873 348.429,316.950 348.405,314.750 348.405 C 312.550 348.405,311.673 348.429,312.801 348.458 M32.000 350.083 C 32.311 350.404,32.603 350.667,32.649 350.667 C 32.695 350.667,32.478 350.404,32.167 350.083 C 31.856 349.762,31.564 349.500,31.518 349.500 C 31.472 349.500,31.689 349.762,32.000 350.083 M83.042 352.790 C 83.569 352.823,84.431 352.823,84.958 352.790 C 85.485 352.757,85.054 352.730,84.000 352.730 C 82.946 352.730,82.515 352.757,83.042 352.790 M308.468 353.125 C 309.596 353.153,311.396 353.153,312.468 353.124 C 313.540 353.095,312.617 353.072,310.417 353.072 C 308.217 353.072,307.340 353.096,308.468 353.125 " stroke="none" fill="#ac942c" fill-rule="evenodd"></path><path id="path4" d="M237.566 48.417 C 237.566 49.700,237.592 50.203,237.624 49.534 C 237.656 48.866,237.655 47.816,237.623 47.201 C 237.591 46.586,237.565 47.133,237.566 48.417 M87.197 46.458 C 89.002 46.485,92.002 46.485,93.864 46.458 C 95.726 46.431,94.250 46.409,90.583 46.409 C 86.917 46.409,85.393 46.431,87.197 46.458 M32.167 48.917 C 31.762 49.329,31.468 49.667,31.514 49.667 C 31.560 49.667,31.928 49.329,32.333 48.917 C 32.738 48.504,33.032 48.167,32.986 48.167 C 32.940 48.167,32.572 48.504,32.167 48.917 M369.333 51.417 C 370.385 52.471,371.282 53.333,371.328 53.333 C 371.374 53.333,370.551 52.471,369.500 51.417 C 368.449 50.362,367.551 49.500,367.505 49.500 C 367.460 49.500,368.282 50.362,369.333 51.417 M128.574 50.958 C 152.435 50.992,158.762 51.044,158.878 51.209 C 158.987 51.362,159.008 51.351,158.957 51.167 C 158.897 50.946,155.387 50.917,128.653 50.916 L 98.417 50.915 128.574 50.958 M82.208 51.115 C 82.369 51.157,82.631 51.157,82.792 51.115 C 82.952 51.073,82.821 51.039,82.500 51.039 C 82.179 51.039,82.048 51.073,82.208 51.115 M28.494 52.625 L 27.583 53.583 28.542 52.672 C 29.432 51.826,29.576 51.667,29.453 51.667 C 29.427 51.667,28.995 52.098,28.494 52.625 M372.000 54.219 C 372.000 54.248,372.244 54.491,372.542 54.760 L 373.083 55.250 372.594 54.708 C 372.138 54.203,372.000 54.090,372.000 54.219 M6.042 106.750 C 6.044 107.117,6.078 107.247,6.118 107.040 C 6.158 106.832,6.156 106.532,6.115 106.373 C 6.073 106.214,6.040 106.383,6.042 106.750 M393.748 132.083 C 393.748 145.192,393.767 150.579,393.792 144.055 C 393.816 137.531,393.816 126.806,393.792 120.221 C 393.768 113.637,393.748 118.975,393.748 132.083 M18.625 112.290 C 19.106 112.323,19.894 112.323,20.375 112.290 C 20.856 112.256,20.462 112.228,19.500 112.228 C 18.537 112.228,18.144 112.256,18.625 112.290 M6.243 114.625 L 6.250 116.917 8.875 116.923 L 11.500 116.930 8.922 116.877 L 6.343 116.825 6.289 114.579 L 6.235 112.333 6.243 114.625 M27.052 113.417 C 27.053 113.967,27.084 114.172,27.121 113.872 C 27.158 113.572,27.157 113.122,27.119 112.872 C 27.081 112.622,27.051 112.867,27.052 113.417 M371.708 113.208 L 371.750 113.750 372.868 113.799 L 373.985 113.848 374.034 114.966 L 374.083 116.083 383.792 116.085 L 393.500 116.087 383.841 116.042 L 374.182 115.997 374.133 114.874 L 374.083 113.750 372.968 113.701 C 371.880 113.653,371.851 113.640,371.760 113.159 C 371.670 112.686,371.668 112.688,371.708 113.208 M21.958 116.787 C 22.256 116.824,22.744 116.824,23.042 116.787 C 23.340 116.750,23.096 116.720,22.500 116.720 C 21.904 116.720,21.660 116.750,21.958 116.787 M89.554 132.625 C 94.397 132.650,102.272 132.650,107.054 132.625 C 111.837 132.600,107.875 132.580,98.250 132.580 C 88.625 132.580,84.712 132.600,89.554 132.625 M7.534 132.790 C 8.149 132.822,9.199 132.822,9.868 132.791 C 10.536 132.759,10.033 132.733,8.750 132.732 C 7.467 132.732,6.920 132.758,7.534 132.790 M374.529 133.292 C 377.983 133.317,383.683 133.317,387.196 133.292 C 390.709 133.266,387.883 133.246,380.917 133.246 C 373.950 133.246,371.076 133.266,374.529 133.292 M117.548 137.123 C 118.078 137.157,118.903 137.156,119.381 137.123 C 119.859 137.089,119.425 137.062,118.417 137.062 C 117.408 137.063,117.017 137.090,117.548 137.123 M20.554 137.292 C 25.397 137.316,33.272 137.316,38.054 137.292 C 42.837 137.267,38.875 137.247,29.250 137.247 C 19.625 137.247,15.712 137.267,20.554 137.292 M329.862 137.792 C 336.707 137.816,347.957 137.816,354.862 137.792 C 361.767 137.768,356.167 137.748,342.417 137.748 C 328.667 137.748,323.017 137.768,329.862 137.792 M16.457 155.124 L 26.831 155.169 26.876 165.585 L 26.920 176.000 26.919 165.542 L 26.917 155.083 16.500 155.081 L 6.083 155.079 16.457 155.124 M375.470 155.958 C 377.883 155.984,381.783 155.984,384.137 155.958 C 386.491 155.932,384.517 155.911,379.750 155.911 C 374.983 155.911,373.057 155.932,375.470 155.958 M143.079 170.250 C 143.079 176.758,143.100 179.445,143.125 176.221 C 143.150 172.996,143.150 167.671,143.125 164.387 C 143.100 161.103,143.079 163.742,143.079 170.250 M391.208 160.456 L 393.667 160.509 393.667 200.754 L 393.667 241.000 384.835 241.000 L 376.003 241.000 375.958 231.708 L 375.912 222.417 375.915 231.750 L 375.917 241.083 384.833 241.083 L 393.750 241.083 393.750 200.750 L 393.750 160.417 391.250 160.410 L 388.750 160.402 391.208 160.456 M375.738 164.333 C 375.738 166.487,375.762 167.369,375.791 166.292 C 375.820 165.215,375.820 163.452,375.791 162.375 C 375.762 161.298,375.738 162.179,375.738 164.333 M371.246 185.333 C 371.246 191.796,371.266 194.440,371.292 191.208 C 371.317 187.977,371.317 182.690,371.292 179.458 C 371.266 176.227,371.246 178.871,371.246 185.333 M22.412 193.417 C 22.412 200.017,22.433 202.692,22.458 199.363 C 22.484 196.033,22.484 190.633,22.458 187.363 C 22.433 184.092,22.412 186.817,22.412 193.417 M303.554 198.625 C 308.397 198.650,316.272 198.650,321.054 198.625 C 325.837 198.600,321.875 198.580,312.250 198.580 C 302.625 198.580,298.712 198.600,303.554 198.625 M54.792 202.625 C 70.123 202.648,95.210 202.648,110.542 202.625 C 125.873 202.602,113.329 202.582,82.667 202.582 C 52.004 202.582,39.460 202.602,54.792 202.625 M267.888 203.125 C 272.730 203.150,280.605 203.150,285.388 203.125 C 290.170 203.100,286.208 203.080,276.583 203.080 C 266.958 203.080,263.045 203.100,267.888 203.125 M365.792 203.291 C 366.823 203.320,368.510 203.320,369.542 203.291 C 370.573 203.262,369.729 203.238,367.667 203.238 C 365.604 203.238,364.760 203.262,365.792 203.291 M138.412 219.417 C 138.412 225.925,138.433 228.612,138.458 225.387 C 138.484 222.163,138.484 216.838,138.458 213.554 C 138.433 210.270,138.412 212.908,138.412 219.417 M27.040 238.624 L 27.000 246.164 16.542 246.208 L 6.083 246.253 16.547 246.293 C 24.794 246.325,27.027 246.289,27.090 246.125 C 27.134 246.010,27.150 242.579,27.125 238.500 L 27.080 231.083 27.040 238.624 M142.902 239.250 C 142.901 240.808,142.926 241.468,142.957 240.717 C 142.988 239.965,142.988 238.690,142.958 237.883 C 142.927 237.077,142.902 237.692,142.902 239.250 M393.747 265.250 C 393.747 276.067,393.767 280.467,393.792 275.029 C 393.816 269.590,393.816 260.740,393.792 255.362 C 393.767 249.984,393.747 254.433,393.747 265.250 M11.375 262.792 C 14.194 262.817,18.806 262.817,21.625 262.792 C 24.444 262.766,22.137 262.745,16.500 262.745 C 10.862 262.745,8.556 262.766,11.375 262.792 M72.875 262.958 C 75.694 262.984,80.306 262.984,83.125 262.958 C 85.944 262.933,83.637 262.912,78.000 262.912 C 72.362 262.912,70.056 262.933,72.875 262.958 M53.970 267.458 C 56.842 267.484,61.492 267.484,64.304 267.458 C 67.116 267.433,64.767 267.412,59.083 267.412 C 53.400 267.412,51.099 267.433,53.970 267.458 M111.875 267.625 C 113.777 267.652,116.890 267.652,118.792 267.625 C 120.694 267.598,119.138 267.576,115.333 267.576 C 111.529 267.576,109.973 267.598,111.875 267.625 M374.209 285.250 C 374.211 285.617,374.245 285.747,374.285 285.540 C 374.324 285.332,374.323 285.032,374.281 284.873 C 374.239 284.714,374.207 284.883,374.209 285.250 M379.032 284.791 C 380.013 284.820,381.663 284.820,382.699 284.791 C 383.735 284.762,382.933 284.738,380.917 284.738 C 378.900 284.738,378.052 284.762,379.032 284.791 M24.788 286.454 C 25.084 286.490,25.609 286.491,25.955 286.455 C 26.300 286.419,26.058 286.389,25.417 286.388 C 24.775 286.387,24.492 286.417,24.788 286.454 M26.539 288.500 C 26.539 288.821,26.573 288.952,26.615 288.792 C 26.657 288.631,26.657 288.369,26.615 288.208 C 26.573 288.048,26.539 288.179,26.539 288.500 M8.292 288.791 C 9.415 288.820,11.252 288.820,12.375 288.791 C 13.498 288.762,12.579 288.739,10.333 288.739 C 8.087 288.739,7.169 288.762,8.292 288.791 M392.616 289.454 L 393.648 289.515 393.715 290.175 L 393.783 290.836 393.766 290.126 L 393.750 289.417 392.667 289.405 L 391.583 289.394 392.616 289.454 M6.042 292.417 C 6.044 292.783,6.078 292.914,6.118 292.706 C 6.158 292.499,6.156 292.199,6.115 292.040 C 6.073 291.880,6.040 292.050,6.042 292.417 M45.167 332.917 C 45.757 333.512,46.278 334.000,46.324 334.000 C 46.370 334.000,45.924 333.512,45.333 332.917 C 44.743 332.321,44.222 331.833,44.176 331.833 C 44.130 331.833,44.576 332.321,45.167 332.917 M351.073 334.208 L 350.583 334.750 351.125 334.260 C 351.630 333.804,351.743 333.667,351.615 333.667 C 351.586 333.667,351.342 333.910,351.073 334.208 M355.579 336.208 L 354.250 337.583 355.625 336.254 C 356.381 335.523,357.000 334.904,357.000 334.879 C 357.000 334.757,356.814 334.931,355.579 336.208 M372.073 345.042 L 371.583 345.583 372.125 345.094 C 372.630 344.638,372.743 344.500,372.615 344.500 C 372.586 344.500,372.342 344.744,372.073 345.042 M26.667 344.719 C 26.667 344.748,26.910 344.991,27.208 345.260 L 27.750 345.750 27.260 345.208 C 26.804 344.703,26.667 344.590,26.667 344.719 M30.331 348.542 C 31.567 349.802,32.598 350.833,32.623 350.833 C 32.742 350.833,32.504 350.586,30.375 348.498 L 28.083 346.250 30.331 348.542 M369.333 347.917 C 368.650 348.604,368.129 349.167,368.175 349.167 C 368.221 349.167,368.817 348.604,369.500 347.917 C 370.183 347.229,370.704 346.667,370.658 346.667 C 370.612 346.667,370.016 347.229,369.333 347.917 M76.383 348.124 C 77.190 348.155,78.465 348.155,79.217 348.124 C 79.968 348.093,79.308 348.068,77.750 348.068 C 76.192 348.068,75.577 348.094,76.383 348.124 M253.958 348.458 C 262.965 348.482,277.702 348.482,286.708 348.458 C 295.715 348.435,288.346 348.415,270.333 348.415 C 252.321 348.415,244.952 348.435,253.958 348.458 M366.406 350.708 L 365.917 351.250 366.458 350.760 C 366.963 350.304,367.077 350.167,366.948 350.167 C 366.919 350.167,366.675 350.410,366.406 350.708 M159.032 351.541 L 159.000 352.666 124.208 352.708 L 89.417 352.751 124.214 352.792 C 153.451 352.827,159.024 352.797,159.098 352.606 C 159.145 352.481,159.157 351.938,159.124 351.398 L 159.063 350.417 159.032 351.541 M33.333 351.385 C 33.333 351.414,33.577 351.658,33.875 351.927 L 34.417 352.417 33.927 351.875 C 33.471 351.370,33.333 351.257,33.333 351.385 M72.625 352.622 C 73.015 352.657,73.652 352.657,74.042 352.622 C 74.431 352.587,74.112 352.558,73.333 352.558 C 72.554 352.558,72.235 352.587,72.625 352.622 M322.629 353.122 C 323.021 353.157,323.621 353.157,323.963 353.121 C 324.304 353.085,323.983 353.057,323.250 353.057 C 322.517 353.058,322.237 353.087,322.629 353.122 M84.875 372.282 C 85.035 372.323,85.298 372.323,85.458 372.282 C 85.619 372.240,85.487 372.205,85.167 372.205 C 84.846 372.205,84.715 372.240,84.875 372.282 M313.042 372.282 C 313.202 372.323,313.465 372.323,313.625 372.282 C 313.785 372.240,313.654 372.205,313.333 372.205 C 313.012 372.205,312.881 372.240,313.042 372.282 " stroke="none" fill="#75641d" fill-rule="evenodd"></path></g></svg>