<svg version="1.0" xmlns="http://www.w3.org/2000/svg"
 width="512.000000pt" height="512.000000pt" viewBox="0 0 512.000000 512.000000"
 preserveAspectRatio="xMidYMid meet">

<g transform="translate(0.000000,512.000000) scale(0.100000,-0.100000)"
fill="#FFFFFF" stroke="none">
<path d="M3349 4897 c-21 -14 -41 -41 -53 -69 -30 -72 -14 -110 90 -220 644
-679 929 -1620 773 -2552 -95 -569 -371 -1121 -773 -1544 -104 -110 -120 -148
-90 -220 25 -60 71 -92 133 -92 65 0 93 21 217 159 370 415 611 860 744 1374
75 291 103 514 103 827 0 124 -5 272 -12 330 -71 625 -287 1172 -653 1652 -99
130 -283 335 -322 359 -44 27 -114 25 -157 -4z"/>
<path d="M2480 4463 c-50 -26 -80 -76 -80 -132 0 -55 9 -69 108 -175 313 -336
525 -776 599 -1246 25 -162 25 -538 0 -700 -74 -470 -286 -910 -599 -1246 -99
-106 -108 -120 -108 -175 0 -88 72 -154 159 -146 55 6 77 22 182 140 606 673
825 1583 594 2464 -84 318 -237 634 -435 898 -81 107 -231 278 -271 308 -38
28 -106 32 -149 10z"/>
<path d="M1615 4029 c-40 -12 -58 -27 -84 -69 -41 -69 -26 -125 57 -214 176
-187 304 -399 382 -635 204 -613 59 -1269 -382 -1737 -83 -89 -97 -142 -57
-214 40 -71 117 -95 189 -58 92 47 314 336 419 547 144 287 213 582 213 911 0
454 -133 855 -403 1215 -99 132 -188 225 -234 246 -44 21 -56 21 -100 8z"/>
<path d="M689 3567 c-21 -14 -41 -41 -53 -69 -27 -66 -13 -109 66 -196 120
-133 208 -294 255 -469 24 -88 27 -115 27 -273 0 -158 -3 -185 -27 -273 -47
-175 -135 -336 -255 -469 -79 -87 -93 -130 -66 -196 25 -60 71 -92 133 -92 60
0 95 22 169 109 230 266 343 571 343 921 0 350 -113 655 -343 921 -33 39 -75
79 -92 90 -44 27 -114 25 -157 -4z"/>
</g>
</svg>
