<svg id="svg" version="1.1" xmlns="http://www.w3.org/2000/svg" xmlns:xlink="http://www.w3.org/1999/xlink" width="400" height="300" viewBox="0, 0, 400,300"><g id="svgg"><path id="path0" d="M320.951 116.199 C 320.224 116.582,318.937 117.145,318.090 117.450 C 316.244 118.116,315.909 118.782,317.210 119.198 C 319.087 119.799,319.012 119.114,319.013 135.676 C 319.014 152.283,319.210 150.730,317.099 150.849 L 315.845 150.920 315.845 151.560 L 315.845 152.201 321.039 152.213 L 326.232 152.226 326.232 151.577 L 326.232 150.928 324.985 150.838 C 322.950 150.693,323.164 152.696,323.063 132.872 C 322.962 112.933,323.224 115.001,320.951 116.199 M354.728 115.977 C 354.278 116.244,352.993 116.819,351.872 117.254 C 349.392 118.217,349.086 118.741,350.690 119.274 C 352.311 119.812,352.194 118.777,352.253 133.099 C 352.302 144.928,352.268 146.279,351.813 150.908 C 351.671 152.344,352.358 152.752,353.501 151.911 L 354.233 151.372 355.330 151.836 C 363.961 155.491,372.372 149.762,372.357 140.241 C 372.342 131.358,364.546 127.408,357.404 132.665 L 356.341 133.448 356.296 124.514 C 356.244 114.339,356.366 115.005,354.728 115.977 M298.752 118.220 C 288.225 120.213,282.083 129.834,284.743 140.162 C 286.794 148.124,293.475 152.993,302.350 152.993 C 306.273 152.993,313.053 151.156,313.275 150.032 C 313.707 147.843,314.284 143.442,314.155 143.324 C 313.556 142.778,313.071 142.955,312.862 143.796 C 311.532 149.162,306.151 152.296,300.674 150.895 C 286.776 147.340,285.107 124.770,298.415 120.357 C 305.075 118.149,311.435 120.883,312.691 126.494 L 312.908 127.465 313.584 127.465 C 314.382 127.465,314.341 127.828,314.017 123.543 C 313.754 120.068,314.028 120.453,311.180 119.560 C 306.396 118.059,302.067 117.593,298.752 118.220 M188.116 118.458 C 186.609 119.380,186.450 121.181,187.773 122.343 C 189.331 123.712,191.727 122.524,191.725 120.384 C 191.723 118.664,189.618 117.540,188.116 118.458 M149.296 119.355 L 149.296 120.070 150.308 120.074 C 151.826 120.080,152.737 120.559,153.221 121.606 L 153.609 122.447 153.609 135.211 C 153.609 142.232,153.547 148.269,153.470 148.629 C 153.203 149.887,152.370 150.400,149.956 150.790 C 149.331 150.891,149.296 150.931,149.296 151.548 L 149.296 152.201 157.702 152.183 C 167.090 152.162,167.893 152.090,171.303 150.953 C 184.944 146.405,186.559 127.955,173.913 121.135 C 169.845 118.942,168.894 118.795,158.231 118.710 L 149.296 118.639 149.296 119.355 M165.708 120.695 C 175.433 122.741,180.138 134.238,175.214 143.926 C 172.767 148.741,166.106 151.737,161.132 150.260 C 158.433 149.458,158.548 150.163,158.488 134.031 L 158.436 120.438 159.720 120.366 C 161.619 120.260,164.354 120.410,165.708 120.695 M189.525 130.560 C 188.944 130.802,187.656 131.248,186.664 131.551 C 184.421 132.236,184.221 132.676,185.731 133.605 C 187.305 134.574,187.229 134.153,187.289 142.157 C 187.358 151.179,187.435 150.880,185.041 150.880 L 184.155 150.880 184.155 151.540 L 184.155 152.201 189.349 152.216 L 194.542 152.232 194.542 151.576 L 194.542 150.920 193.323 150.851 C 191.192 150.731,191.373 151.696,191.373 140.454 C 191.373 129.038,191.504 129.736,189.525 130.560 M200.794 130.828 C 199.826 131.209,198.380 131.733,197.581 131.993 C 195.640 132.625,195.512 133.213,197.128 134.067 C 198.944 135.025,198.848 134.575,198.909 142.398 C 198.978 151.145,199.048 150.880,196.661 150.880 L 195.775 150.880 195.775 151.540 L 195.775 152.201 200.968 152.216 L 206.162 152.232 206.162 151.576 L 206.162 150.920 204.943 150.851 C 202.840 150.732,202.993 151.380,202.993 142.610 L 202.993 135.098 204.533 134.289 C 207.805 132.571,210.206 132.536,211.743 134.184 C 212.652 135.159,212.676 135.382,212.676 142.933 C 212.676 151.247,212.800 150.734,210.761 150.849 L 209.507 150.920 209.507 151.560 L 209.507 152.201 214.789 152.216 L 220.070 152.231 220.070 151.556 L 220.070 150.880 219.096 150.880 C 216.608 150.880,216.740 151.360,216.681 142.077 C 216.633 134.669,216.629 134.585,216.215 133.553 C 214.580 129.472,209.737 129.030,204.594 132.492 C 203.811 133.019,203.131 133.451,203.082 133.451 C 203.033 133.451,202.993 132.832,202.993 132.076 C 202.993 130.024,202.930 129.988,200.794 130.828 M227.993 130.297 C 217.665 131.999,216.604 150.592,226.713 152.734 C 230.665 153.572,233.983 152.196,237.157 148.405 L 237.898 147.519 237.490 147.085 L 237.082 146.650 236.543 147.150 C 230.671 152.595,224.085 149.489,223.643 141.065 L 223.539 139.085 230.339 139.085 L 237.140 139.085 237.419 138.658 C 237.812 138.059,237.496 135.853,236.812 134.419 C 235.399 131.456,231.636 129.697,227.993 130.297 M242.598 131.511 C 239.194 133.162,238.930 133.484,240.436 134.151 C 240.901 134.356,241.460 134.693,241.679 134.898 L 242.077 135.273 242.077 142.697 C 242.077 151.438,242.257 150.749,239.947 150.854 L 238.556 150.918 238.556 151.559 L 238.556 152.201 244.806 152.202 L 251.056 152.203 251.056 151.560 L 251.056 150.917 248.950 150.855 C 245.951 150.766,246.226 151.444,246.162 143.964 C 246.097 136.206,246.242 135.622,248.491 134.574 C 249.640 134.039,249.653 134.040,251.173 134.791 C 254.083 136.229,256.568 133.293,254.333 131.058 C 252.438 129.164,249.156 130.431,246.775 133.977 L 246.127 134.942 246.127 132.735 C 246.127 129.585,246.384 129.674,242.598 131.511 M262.351 130.289 C 258.199 130.852,255.620 134.590,256.757 138.395 C 257.378 140.473,258.396 141.365,262.451 143.382 C 265.970 145.133,266.907 146.090,266.898 147.926 C 266.887 150.035,265.587 151.145,263.129 151.143 C 260.226 151.140,258.174 149.385,257.378 146.223 C 257.181 145.442,256.667 145.211,256.188 145.690 C 255.954 145.924,256.698 151.312,256.988 151.483 C 262.980 155.030,270.833 152.146,270.854 146.391 C 270.866 143.082,269.688 141.811,264.409 139.435 C 260.837 137.828,259.737 136.691,259.896 134.768 C 260.261 130.371,267.253 131.158,268.408 135.727 C 268.600 136.488,268.647 136.535,269.274 136.588 L 269.938 136.644 269.825 135.267 C 269.763 134.510,269.667 133.363,269.611 132.717 L 269.509 131.543 268.661 131.178 C 266.750 130.356,264.349 130.018,262.351 130.289 M327.685 131.117 L 326.056 131.175 326.056 131.785 C 326.056 132.316,326.112 132.394,326.493 132.394 C 327.205 132.394,328.301 132.918,328.643 133.422 C 328.934 133.851,328.969 134.537,329.049 141.562 L 329.137 149.234 329.667 150.270 C 331.658 154.160,336.861 153.856,342.210 149.537 L 342.782 149.075 342.782 151.034 C 342.782 152.111,342.841 152.993,342.914 152.992 C 342.986 152.992,343.967 152.759,345.094 152.474 C 346.220 152.189,347.785 151.855,348.571 151.732 L 350.000 151.507 350.000 150.929 L 350.000 150.352 348.627 150.352 C 346.663 150.352,346.831 151.271,346.831 140.540 C 346.831 131.967,346.806 131.141,346.540 131.039 C 346.379 130.978,344.553 131.075,342.482 131.255 L 338.715 131.583 338.768 132.097 C 338.817 132.576,338.913 132.639,340.149 132.994 C 340.879 133.204,341.750 133.536,342.085 133.731 L 342.694 134.087 342.740 140.704 L 342.786 147.321 341.683 148.142 C 338.587 150.447,335.912 150.800,334.309 149.117 C 333.053 147.799,333.039 147.686,332.964 138.864 L 332.897 130.986 331.105 131.022 C 330.120 131.043,328.581 131.085,327.685 131.117 M230.359 132.058 C 231.933 132.454,233.061 133.904,233.228 135.745 C 233.372 137.327,233.380 137.324,228.146 137.324 L 223.799 137.324 224.027 136.461 C 224.892 133.183,227.533 131.346,230.359 132.058 M363.073 133.502 C 367.155 135.399,369.251 140.525,367.970 145.480 C 366.334 151.804,359.573 153.762,356.894 148.687 L 356.426 147.799 356.374 141.570 L 356.321 135.340 356.716 134.920 C 358.433 133.092,360.971 132.526,363.073 133.502 M180.197 162.632 C 180.136 163.189,180.012 164.175,179.920 164.822 C 179.674 166.562,179.671 166.549,180.350 166.549 C 180.895 166.549,180.957 166.495,181.065 165.917 C 181.376 164.264,181.754 164.087,184.991 164.085 L 187.148 164.085 187.148 171.547 C 187.148 180.183,187.243 179.697,185.519 179.875 C 184.547 179.975,184.507 179.999,184.507 180.482 L 184.507 180.986 189.085 180.986 L 193.662 180.986 193.662 180.482 C 193.662 180.006,193.612 179.973,192.738 179.871 C 192.045 179.791,191.714 179.650,191.417 179.309 L 191.021 178.854 191.021 171.455 L 191.021 164.057 193.414 164.115 C 196.178 164.182,196.497 164.356,196.733 165.931 C 196.835 166.608,196.909 166.732,197.152 166.631 C 197.314 166.564,197.586 166.469,197.755 166.421 C 198.065 166.332,198.106 165.914,198.143 162.458 C 198.153 161.552,197.671 161.325,197.164 161.997 L 196.851 162.412 189.248 162.412 L 181.645 162.412 181.382 162.016 C 180.852 161.217,180.321 161.493,180.197 162.632 M270.808 163.688 C 270.688 164.826,270.543 165.935,270.486 166.153 C 270.392 166.509,270.445 166.549,271.001 166.549 C 271.597 166.549,271.628 166.517,271.827 165.684 C 272.169 164.258,272.342 164.182,275.370 164.112 L 277.993 164.052 277.992 171.155 C 277.991 179.982,278.005 179.924,275.836 179.929 C 275.416 179.929,275.352 179.999,275.352 180.458 L 275.352 180.986 279.842 180.986 L 284.331 180.986 284.331 180.458 C 284.331 180.028,284.257 179.929,283.935 179.929 C 281.698 179.923,281.690 179.892,281.690 171.220 L 281.690 164.085 283.791 164.085 C 286.745 164.085,287.210 164.315,287.429 165.889 C 287.493 166.349,287.563 166.725,287.584 166.725 C 287.606 166.725,287.861 166.643,288.152 166.541 L 288.680 166.357 288.793 164.473 C 288.855 163.436,288.955 162.413,289.014 162.200 C 289.231 161.416,288.071 161.450,287.796 162.236 C 287.729 162.428,273.749 162.594,272.765 162.414 C 272.419 162.351,272.161 162.179,272.093 161.966 C 272.019 161.733,271.826 161.620,271.504 161.620 L 271.026 161.620 270.808 163.688 M263.380 162.327 C 262.848 162.612,262.329 162.846,262.228 162.848 C 262.126 162.850,261.547 164.338,260.941 166.153 C 257.001 177.949,256.380 179.393,255.072 179.784 C 254.500 179.956,254.401 180.059,254.401 180.486 L 254.401 180.986 257.570 180.986 L 260.739 180.986 260.739 180.474 C 260.739 179.995,260.685 179.955,259.873 179.843 C 258.280 179.624,258.273 179.600,259.081 177.000 L 259.784 174.736 262.628 174.688 L 265.472 174.639 266.186 176.837 C 267.104 179.658,267.026 179.923,265.273 179.929 C 265.048 179.929,264.965 180.072,264.965 180.458 L 264.965 180.986 268.926 180.986 L 272.887 180.986 272.887 180.466 C 272.887 180.012,272.809 179.931,272.283 179.832 C 271.311 179.650,271.231 179.472,268.058 170.475 C 264.663 160.847,265.013 161.456,263.380 162.327 M348.391 162.379 C 347.345 162.881,347.200 163.014,347.016 163.644 C 346.433 165.634,341.812 178.665,341.568 179.005 C 341.413 179.223,340.909 179.539,340.449 179.707 C 339.727 179.971,339.613 180.079,339.613 180.499 L 339.613 180.986 342.782 180.986 L 345.951 180.986 345.951 180.474 C 345.951 179.995,345.896 179.955,345.084 179.843 C 343.493 179.625,343.486 179.601,344.299 177.001 L 345.006 174.736 347.839 174.688 L 350.672 174.639 351.392 176.801 C 352.334 179.627,352.248 179.923,350.484 179.929 C 350.259 179.929,350.176 180.072,350.176 180.458 L 350.176 180.986 354.137 180.986 L 358.099 180.986 358.099 180.466 C 358.099 180.012,358.021 179.931,357.494 179.832 C 356.526 179.651,356.457 179.496,353.287 170.481 C 349.867 160.753,350.296 161.464,348.391 162.379 M372.095 162.043 C 370.504 162.745,369.957 165.056,371.070 166.379 C 372.856 168.501,376.055 167.368,376.055 164.613 C 376.055 162.504,374.029 161.189,372.095 162.043 M306.866 162.158 C 300.311 162.914,296.452 170.098,299.326 176.195 C 302.578 183.092,313.885 183.116,317.220 176.232 C 320.913 168.608,315.440 161.168,306.866 162.158 M149.120 163.008 C 149.120 163.473,149.185 163.526,149.888 163.632 C 151.428 163.862,151.320 163.255,151.320 171.743 C 151.320 180.231,151.428 179.623,149.888 179.854 C 149.185 179.960,149.120 180.013,149.120 180.478 L 149.120 180.986 153.257 180.986 L 157.394 180.986 157.394 180.474 C 157.394 179.994,157.341 179.955,156.512 179.841 C 155.044 179.639,155.106 179.993,155.106 171.743 C 155.106 163.493,155.044 163.847,156.512 163.645 C 157.341 163.531,157.394 163.492,157.394 163.012 L 157.394 162.500 153.257 162.500 L 149.120 162.500 149.120 163.008 M158.099 163.028 C 158.099 163.447,158.175 163.556,158.468 163.556 C 159.097 163.556,160.061 164.118,160.407 164.687 C 160.777 165.293,160.913 176.764,160.568 178.257 C 160.368 179.123,159.713 179.716,158.794 179.863 C 158.171 179.963,158.099 180.028,158.099 180.480 L 158.099 180.986 161.708 180.986 L 165.317 180.986 165.317 180.478 C 165.317 179.996,165.269 179.964,164.370 179.852 C 163.684 179.766,163.308 179.611,163.005 179.289 L 162.588 178.845 162.537 172.866 L 162.487 166.886 164.044 168.610 C 164.900 169.559,167.727 172.711,170.326 175.616 C 172.925 178.521,175.139 180.989,175.246 181.101 C 175.353 181.212,175.757 181.355,176.144 181.417 L 176.849 181.530 176.796 173.512 C 176.732 163.737,176.772 163.565,179.093 163.557 C 179.318 163.557,179.401 163.413,179.401 163.028 L 179.401 162.500 175.792 162.500 L 172.183 162.500 172.183 163.005 C 172.183 163.480,172.237 163.518,173.080 163.630 C 174.954 163.878,175.032 164.160,174.963 170.414 L 174.912 175.071 169.318 168.785 L 163.724 162.500 160.912 162.500 L 158.099 162.500 158.099 163.028 M198.768 163.005 C 198.768 163.479,198.824 163.518,199.642 163.627 C 201.116 163.823,201.056 163.480,201.056 171.743 C 201.056 179.993,201.118 179.639,199.650 179.841 C 198.821 179.955,198.768 179.994,198.768 180.474 L 198.768 180.986 205.986 180.986 L 213.204 180.986 213.208 180.590 C 213.210 180.372,213.398 179.401,213.626 178.433 C 214.068 176.552,214.063 176.511,213.363 176.347 C 212.955 176.251,212.884 176.309,212.706 176.896 C 212.090 178.916,211.111 179.460,208.099 179.455 C 204.758 179.449,204.754 179.443,204.754 175.165 L 204.754 172.183 206.690 172.183 C 208.985 172.183,209.245 172.333,209.436 173.770 C 209.552 174.646,209.567 174.665,210.103 174.613 L 210.651 174.560 210.699 171.347 L 210.747 168.134 210.127 168.134 C 209.641 168.134,209.507 168.204,209.507 168.460 C 209.507 169.930,208.736 170.423,206.435 170.423 L 204.754 170.423 204.754 167.143 L 204.754 163.863 207.086 163.944 C 210.138 164.050,211.084 164.588,211.094 166.224 C 211.098 166.853,211.305 167.055,211.840 166.953 L 212.324 166.860 212.324 164.680 L 212.324 162.500 205.546 162.500 L 198.768 162.500 198.768 163.005 M214.789 162.985 C 214.789 163.458,214.850 163.503,215.710 163.656 C 217.117 163.907,217.072 163.635,217.075 171.799 C 217.078 179.959,217.085 179.930,215.203 179.930 C 214.860 179.930,214.789 180.021,214.789 180.458 L 214.789 180.986 219.102 180.986 L 223.415 180.986 223.415 180.482 C 223.415 180.006,223.366 179.973,222.491 179.871 C 220.991 179.696,220.951 179.589,220.951 175.773 L 220.951 172.535 221.571 172.535 C 222.123 172.535,222.245 172.625,222.672 173.353 C 223.818 175.306,226.035 178.790,226.800 179.842 L 227.632 180.986 230.365 180.986 L 233.099 180.986 233.099 180.465 C 233.099 180.000,233.017 179.922,232.350 179.745 C 231.939 179.635,231.414 179.375,231.184 179.166 C 230.771 178.790,226.153 172.007,226.263 171.939 C 228.994 170.262,229.597 169.394,229.597 167.140 C 229.597 163.306,228.242 162.630,220.379 162.541 L 214.789 162.478 214.789 162.985 M233.451 163.028 C 233.451 163.442,233.528 163.556,233.808 163.556 C 235.929 163.556,236.090 164.117,236.091 171.480 C 236.092 179.136,235.990 179.589,234.219 179.854 C 233.516 179.960,233.451 180.013,233.451 180.478 L 233.451 180.986 237.060 180.986 L 240.669 180.986 240.669 180.474 C 240.669 179.993,240.616 179.955,239.778 179.840 C 239.240 179.766,238.699 179.556,238.413 179.311 L 237.940 178.904 237.888 172.859 C 237.843 167.668,237.871 166.851,238.083 167.077 C 238.218 167.223,241.129 170.471,244.551 174.296 C 248.726 178.962,250.921 181.287,251.223 181.361 C 252.278 181.622,252.206 182.225,252.147 173.692 C 252.081 164.172,252.128 163.910,253.958 163.636 C 254.690 163.526,254.754 163.476,254.754 163.008 L 254.754 162.500 251.144 162.500 L 247.535 162.500 247.535 163.004 C 247.535 163.469,247.598 163.517,248.335 163.618 C 250.334 163.892,250.368 164.004,250.311 170.086 L 250.264 175.038 244.718 168.777 L 239.173 162.516 236.312 162.508 L 233.451 162.500 233.451 163.028 M289.613 163.005 C 289.613 163.479,289.669 163.518,290.487 163.627 C 291.961 163.823,291.901 163.480,291.901 171.743 C 291.901 179.993,291.963 179.639,290.495 179.841 C 289.666 179.955,289.613 179.994,289.613 180.474 L 289.613 180.986 293.750 180.986 L 297.887 180.986 297.887 180.458 C 297.887 180.072,297.804 179.929,297.579 179.929 C 295.615 179.922,295.599 179.855,295.599 171.743 C 295.599 163.631,295.615 163.564,297.579 163.557 C 297.804 163.557,297.887 163.413,297.887 163.028 L 297.887 162.500 293.750 162.500 L 289.613 162.500 289.613 163.005 M318.662 163.028 C 318.662 163.442,318.740 163.556,319.020 163.556 C 321.147 163.556,321.301 164.101,321.302 171.599 C 321.303 179.208,321.217 179.586,319.430 179.854 C 318.727 179.960,318.662 180.013,318.662 180.478 L 318.662 180.986 322.271 180.986 L 325.880 180.986 325.880 180.478 C 325.880 180.006,325.820 179.961,325.044 179.848 C 323.077 179.561,323.032 179.391,323.099 172.411 L 323.151 166.917 329.313 173.783 C 332.702 177.559,335.599 180.795,335.751 180.973 C 335.902 181.150,336.338 181.349,336.719 181.413 L 337.412 181.530 337.355 174.084 C 337.280 164.211,337.332 163.911,339.180 163.634 C 339.901 163.526,339.965 163.475,339.965 163.008 L 339.965 162.500 336.356 162.500 L 332.746 162.500 332.746 163.005 C 332.746 163.478,332.803 163.519,333.607 163.625 C 335.550 163.883,335.594 164.036,335.526 170.307 L 335.475 175.033 329.930 168.772 L 324.384 162.511 321.523 162.505 L 318.662 162.500 318.662 163.028 M358.627 163.005 C 358.627 163.479,358.683 163.518,359.500 163.627 C 361.004 163.826,360.915 163.322,360.915 171.728 C 360.915 180.166,361.008 179.651,359.450 179.865 C 358.688 179.969,358.627 180.015,358.627 180.482 L 358.627 180.986 365.757 180.986 C 369.679 180.986,372.887 180.953,372.887 180.912 C 372.887 180.871,373.085 179.922,373.327 178.802 C 373.895 176.179,373.895 176.197,373.221 176.265 C 372.745 176.313,372.631 176.433,372.350 177.176 C 371.642 179.047,370.764 179.489,367.757 179.489 C 364.470 179.489,364.789 180.351,364.789 171.473 C 364.789 163.191,364.690 163.741,366.203 163.596 C 367.029 163.516,367.077 163.484,367.077 163.006 L 367.077 162.500 362.852 162.500 L 358.627 162.500 358.627 163.005 M374.780 163.279 C 375.407 163.963,375.538 164.872,375.118 165.628 L 374.896 166.028 374.381 165.490 C 373.939 165.029,373.897 164.904,374.081 164.609 C 374.690 163.633,374.153 163.035,372.656 163.022 C 371.923 163.016,371.922 163.014,372.359 162.755 C 373.085 162.324,374.107 162.545,374.780 163.279 M372.183 164.613 C 372.183 165.507,372.117 165.833,371.922 165.908 C 371.372 166.119,371.083 164.583,371.501 163.667 C 371.866 162.865,372.183 163.305,372.183 164.613 M373.313 163.487 C 373.850 163.693,373.562 164.613,372.961 164.613 C 372.920 164.613,372.887 164.335,372.887 163.996 C 372.887 163.334,372.894 163.326,373.313 163.487 M310.394 164.176 C 315.460 166.743,315.672 177.800,310.689 179.518 C 305.998 181.135,302.235 176.986,302.517 170.511 C 302.754 165.072,306.391 162.148,310.394 164.176 M223.347 163.992 C 224.899 164.453,225.706 165.675,225.700 167.553 C 225.692 170.054,224.790 170.997,222.172 171.240 L 220.951 171.353 220.951 167.660 C 220.951 165.629,221.004 163.914,221.068 163.850 C 221.270 163.648,222.433 163.721,223.347 163.992 M373.549 165.583 C 373.804 165.977,374.088 166.199,374.341 166.203 C 374.730 166.210,374.729 166.214,374.296 166.461 C 373.721 166.790,372.692 166.793,372.261 166.467 C 371.943 166.226,371.971 166.208,372.667 166.203 C 373.079 166.200,373.415 166.118,373.415 166.021 C 373.415 165.924,373.297 165.845,373.151 165.845 C 372.987 165.845,372.887 165.679,372.887 165.405 C 372.887 164.804,373.078 164.856,373.549 165.583 M262.712 172.673 C 261.601 172.700,260.655 172.685,260.608 172.639 C 260.562 172.593,260.986 171.115,261.550 169.356 L 262.575 166.157 263.653 169.390 L 264.731 172.623 262.712 172.673 M348.919 169.510 L 349.956 172.711 347.853 172.711 C 346.168 172.711,345.760 172.664,345.806 172.472 C 345.945 171.887,347.798 166.225,347.837 166.265 C 347.862 166.289,348.348 167.749,348.919 169.510 " stroke="none" fill="#231c1c" fill-rule="evenodd"></path><path id="path1" d="M64.733 108.547 C 30.137 113.177,16.010 156.020,41.180 179.973 C 65.664 203.273,106.340 189.408,111.277 156.080 C 115.319 128.790,91.933 104.907,64.733 108.547 M60.521 162.238 L 60.475 174.679 58.358 173.619 C 38.303 163.580,38.875 134.716,59.307 125.714 L 60.475 125.199 60.521 137.498 C 60.545 144.262,60.545 155.395,60.521 162.238 M82.394 126.515 C 100.096 135.734,101.400 160.751,84.761 171.922 C 83.524 172.753,79.904 174.638,79.533 174.645 C 79.378 174.648,79.352 125.460,79.508 125.305 C 79.658 125.154,80.286 125.417,82.394 126.515 " stroke="none" fill="#fbfbfb" fill-rule="evenodd"></path><path id="path2" d="M65.141 104.527 C 47.377 105.961,31.874 118.086,26.329 134.881 C 17.246 162.395,33.991 190.173,62.680 195.184 C 64.805 195.555,93.110 195.760,96.391 195.428 C 107.478 194.307,118.497 188.883,126.509 180.603 C 153.072 153.151,135.670 108.969,96.567 104.582 C 95.107 104.418,67.096 104.369,65.141 104.527 M76.056 108.537 C 96.900 111.706,111.710 128.897,111.701 149.912 C 111.684 192.183,56.016 207.545,34.158 171.311 C 16.161 141.476,41.640 103.303,76.056 108.537 M58.626 126.154 C 40.642 134.907,38.446 159.317,54.571 171.241 C 55.947 172.258,59.218 174.091,60.167 174.376 L 60.563 174.496 60.563 149.924 C 60.563 136.409,60.498 125.352,60.419 125.352 C 60.339 125.352,59.532 125.713,58.626 126.154 M79.577 149.912 C 79.577 163.420,79.643 174.472,79.724 174.472 C 79.805 174.472,80.697 174.056,81.707 173.548 C 100.028 164.329,101.569 139.067,84.494 127.879 C 83.037 126.924,80.044 125.352,79.684 125.352 C 79.625 125.352,79.577 136.404,79.577 149.912 " stroke="none" fill="#047cbc" fill-rule="evenodd"></path><path id="path3" d="M67.650 108.220 C 67.819 108.264,68.096 108.264,68.266 108.220 C 68.435 108.176,68.297 108.139,67.958 108.139 C 67.619 108.139,67.480 108.176,67.650 108.220 M71.789 108.223 C 72.008 108.265,72.325 108.264,72.493 108.220 C 72.662 108.175,72.482 108.141,72.095 108.143 C 71.708 108.145,71.570 108.181,71.789 108.223 M41.197 119.630 C 40.770 120.066,40.459 120.423,40.508 120.423 C 40.556 120.423,40.946 120.066,41.373 119.630 C 41.801 119.195,42.111 118.838,42.063 118.838 C 42.014 118.838,41.625 119.195,41.197 119.630 M99.560 120.423 C 100.135 121.004,100.645 121.479,100.693 121.479 C 100.742 121.479,100.311 121.004,99.736 120.423 C 99.161 119.842,98.651 119.366,98.603 119.366 C 98.554 119.366,98.985 119.842,99.560 120.423 M39.603 121.259 L 38.996 121.919 39.657 121.312 C 40.271 120.748,40.398 120.599,40.263 120.599 C 40.234 120.599,39.937 120.896,39.603 121.259 M28.229 149.912 C 28.230 150.687,28.261 150.982,28.298 150.568 C 28.335 150.153,28.335 149.520,28.297 149.159 C 28.259 148.799,28.229 149.137,28.229 149.912 M39.605 178.565 C 40.037 179.025,40.413 179.401,40.442 179.401 C 40.574 179.401,40.434 179.243,39.657 178.514 L 38.820 177.729 39.605 178.565 M99.553 179.445 L 98.680 180.370 99.604 179.496 C 100.463 178.684,100.609 178.521,100.478 178.521 C 100.450 178.521,100.034 178.937,99.553 179.445 M41.285 180.282 C 41.663 180.669,42.012 180.986,42.061 180.986 C 42.109 180.986,41.839 180.669,41.461 180.282 C 41.083 179.894,40.734 179.577,40.686 179.577 C 40.637 179.577,40.907 179.894,41.285 180.282 M67.474 191.671 C 67.643 191.715,67.920 191.715,68.090 191.671 C 68.259 191.626,68.121 191.590,67.782 191.590 C 67.443 191.590,67.304 191.626,67.474 191.671 M71.875 191.671 C 72.044 191.715,72.322 191.715,72.491 191.671 C 72.661 191.626,72.522 191.590,72.183 191.590 C 71.844 191.590,71.706 191.626,71.875 191.671 " stroke="none" fill="#3d99cd" fill-rule="evenodd"></path><path id="path4" d="M69.239 108.228 C 69.702 108.265,70.415 108.264,70.824 108.227 C 71.233 108.190,70.854 108.161,69.982 108.161 C 69.111 108.162,68.777 108.192,69.239 108.228 M79.519 125.293 C 79.356 125.456,79.370 174.648,79.533 174.648 C 79.606 174.648,79.665 163.517,79.665 149.912 C 79.665 136.307,79.659 125.176,79.651 125.176 C 79.643 125.176,79.583 125.229,79.519 125.293 M51.315 131.206 L 50.264 132.306 51.364 131.256 C 52.387 130.279,52.545 130.106,52.415 130.106 C 52.388 130.106,51.893 130.601,51.315 131.206 M88.725 131.206 C 89.455 131.983,89.613 132.123,89.613 131.991 C 89.613 131.963,89.236 131.586,88.776 131.155 L 87.940 130.370 88.725 131.206 M28.386 146.831 C 28.386 147.170,28.422 147.309,28.466 147.139 C 28.511 146.970,28.511 146.692,28.466 146.523 C 28.422 146.353,28.386 146.492,28.386 146.831 M43.546 149.912 C 43.547 150.687,43.578 150.982,43.615 150.568 C 43.652 150.153,43.652 149.520,43.614 149.159 C 43.576 148.799,43.546 149.137,43.546 149.912 M28.386 152.993 C 28.386 153.332,28.422 153.471,28.466 153.301 C 28.511 153.132,28.511 152.854,28.466 152.685 C 28.422 152.515,28.386 152.654,28.386 152.993 M51.232 168.574 C 51.758 169.107,52.228 169.542,52.277 169.542 C 52.325 169.542,51.934 169.107,51.408 168.574 C 50.882 168.041,50.413 167.606,50.364 167.606 C 50.316 167.606,50.706 168.041,51.232 168.574 M88.723 168.618 L 88.116 169.278 88.776 168.671 C 89.391 168.107,89.518 167.958,89.383 167.958 C 89.354 167.958,89.057 168.255,88.723 168.618 M69.152 191.679 C 69.664 191.715,70.456 191.715,70.913 191.678 C 71.369 191.642,70.951 191.613,69.982 191.614 C 69.014 191.614,68.640 191.644,69.152 191.679 " stroke="none" fill="#94c4e4" fill-rule="evenodd"></path></g></svg>