<svg id="svg" version="1.1" xmlns="http://www.w3.org/2000/svg" xmlns:xlink="http://www.w3.org/1999/xlink" width="400" height="400" viewBox="0, 0, 400,400"><g id="svgg"><path id="path0" d="M50.498 156.300 L 50.600 205.800 68.200 205.785 C 80.367 205.774,86.479 205.621,88.000 205.289 C 89.210 205.024,91.898 204.621,93.974 204.392 C 96.049 204.163,97.958 203.801,98.214 203.588 C 98.471 203.375,99.563 203.083,100.640 202.940 C 101.718 202.796,103.029 202.346,103.554 201.939 C 104.079 201.533,104.844 201.200,105.255 201.200 C 105.667 201.200,106.675 200.840,107.496 200.400 C 108.316 199.960,109.311 199.600,109.707 199.600 C 110.102 199.600,110.529 199.330,110.655 199.000 C 110.782 198.670,111.074 198.400,111.305 198.400 C 111.536 198.400,112.314 197.950,113.036 197.400 C 113.757 196.850,114.440 196.400,114.553 196.400 C 115.579 196.400,126.000 187.004,126.000 186.080 C 126.000 185.899,126.315 185.395,126.700 184.960 C 127.774 183.748,129.200 181.669,129.201 181.316 C 129.201 181.142,129.921 179.963,130.801 178.696 C 131.680 177.428,132.400 176.076,132.400 175.690 C 132.400 175.304,132.732 174.361,133.138 173.594 C 133.543 172.827,133.996 171.582,134.142 170.826 C 134.289 170.071,134.653 169.171,134.951 168.826 C 135.255 168.475,135.597 166.792,135.728 165.000 C 135.857 163.240,136.261 160.637,136.626 159.215 C 137.192 157.010,137.219 156.244,136.807 154.015 C 136.541 152.577,136.095 149.576,135.817 147.346 C 135.522 144.988,135.036 142.901,134.655 142.357 C 134.295 141.843,133.994 140.967,133.986 140.411 C 133.979 139.855,133.625 138.680,133.200 137.800 C 132.775 136.920,132.421 135.885,132.414 135.500 C 132.406 135.115,132.211 134.800,131.980 134.800 C 131.748 134.800,131.283 134.215,130.945 133.500 C 129.380 130.189,127.767 127.712,126.124 126.101 C 125.396 125.386,124.800 124.708,124.800 124.593 C 124.800 124.235,119.453 119.200,119.072 119.200 C 118.874 119.200,117.875 118.525,116.854 117.700 C 114.356 115.683,112.248 114.507,107.000 112.204 C 106.340 111.914,104.990 111.312,104.000 110.866 C 103.010 110.420,101.300 109.932,100.200 109.781 C 99.100 109.631,97.660 109.267,97.000 108.972 C 96.340 108.678,93.730 108.245,91.200 108.011 C 88.670 107.776,85.880 107.412,85.000 107.202 C 84.119 106.991,75.984 106.815,66.898 106.810 L 50.397 106.800 50.498 156.300 M150.498 156.300 L 150.600 205.800 161.600 205.912 C 167.650 205.974,173.005 205.926,173.500 205.805 L 174.400 205.585 174.400 156.192 L 174.400 106.800 162.398 106.800 L 150.397 106.800 150.498 156.300 M222.000 107.620 C 219.910 108.007,217.446 108.341,216.524 108.362 C 215.602 108.383,214.736 108.580,214.600 108.800 C 214.464 109.020,213.559 109.400,212.588 109.645 C 211.618 109.889,210.617 110.339,210.363 110.644 C 210.110 110.950,209.588 111.200,209.205 111.200 C 208.822 111.200,208.050 111.560,207.491 112.000 C 206.931 112.440,206.322 112.803,206.137 112.807 C 205.037 112.830,197.200 120.838,197.200 121.939 C 197.200 122.139,196.949 122.510,196.642 122.765 C 196.335 123.020,195.960 123.897,195.808 124.714 C 195.656 125.531,195.233 126.534,194.866 126.942 C 193.890 128.029,193.878 140.107,194.852 141.600 C 195.211 142.150,195.628 143.129,195.779 143.776 C 195.930 144.423,196.760 145.863,197.623 146.976 C 199.697 149.650,199.747 149.704,200.802 150.400 C 201.302 150.730,202.207 151.405,202.813 151.900 C 203.420 152.395,204.041 152.800,204.195 152.800 C 204.348 152.800,204.931 153.160,205.491 153.600 C 206.050 154.040,206.822 154.400,207.205 154.400 C 207.588 154.400,208.117 154.658,208.379 154.974 C 208.641 155.290,209.428 155.674,210.128 155.828 C 210.827 155.981,212.027 156.443,212.794 156.853 C 213.561 157.264,214.466 157.600,214.805 157.600 C 215.144 157.600,215.777 157.847,216.211 158.149 C 216.645 158.451,217.630 158.831,218.400 158.993 C 219.170 159.156,220.070 159.519,220.400 159.800 C 220.730 160.081,221.630 160.439,222.400 160.595 C 223.170 160.751,224.163 161.107,224.606 161.387 C 225.049 161.666,226.036 162.032,226.800 162.200 C 227.564 162.368,228.551 162.738,228.994 163.023 C 229.437 163.308,230.477 163.665,231.304 163.816 C 232.132 163.967,232.909 164.253,233.032 164.451 C 233.154 164.650,233.827 165.054,234.527 165.350 C 241.204 168.174,243.353 177.796,238.515 183.200 C 238.220 183.530,237.557 184.278,237.043 184.862 C 236.529 185.446,234.689 186.704,232.954 187.657 L 229.800 189.390 223.582 189.395 C 218.329 189.399,217.199 189.291,216.296 188.700 C 215.709 188.315,214.941 188.000,214.589 188.000 C 213.509 188.000,209.642 185.994,208.285 184.731 C 207.578 184.072,206.604 183.376,206.121 183.185 C 205.637 182.993,204.922 182.333,204.531 181.718 C 204.139 181.103,203.590 180.456,203.310 180.280 C 203.029 180.104,202.794 179.744,202.787 179.480 C 202.765 178.640,200.870 177.508,200.302 177.995 C 200.026 178.231,199.170 178.982,198.400 179.663 C 197.630 180.344,195.380 182.257,193.400 183.915 C 188.550 187.976,188.524 188.020,190.004 189.604 C 190.662 190.308,191.200 190.939,191.200 191.005 C 191.200 191.239,196.477 196.400,196.716 196.400 C 197.075 196.400,200.178 198.551,200.337 198.910 C 200.412 199.080,201.042 199.482,201.737 199.802 C 202.431 200.122,203.270 200.546,203.600 200.745 C 204.989 201.579,207.938 202.800,208.566 202.800 C 208.939 202.800,209.999 203.137,210.922 203.549 C 211.885 203.979,214.108 204.416,216.137 204.573 C 218.082 204.724,220.134 205.023,220.697 205.237 C 222.079 205.762,228.758 205.750,230.732 205.218 C 231.606 204.983,233.651 204.622,235.275 204.416 C 236.900 204.210,238.762 203.763,239.414 203.423 C 240.066 203.083,240.870 202.803,241.200 202.800 C 241.530 202.797,242.340 202.437,243.000 202.000 C 243.660 201.563,244.506 201.204,244.880 201.203 C 245.254 201.201,246.395 200.615,247.415 199.900 C 248.436 199.185,249.587 198.417,249.973 198.194 C 250.943 197.634,255.239 193.255,256.207 191.840 C 258.544 188.424,259.200 187.202,259.200 186.263 C 259.200 185.996,259.462 185.403,259.783 184.945 C 260.381 184.092,261.501 178.681,261.871 174.854 C 261.998 173.545,261.843 171.827,261.474 170.454 C 261.141 169.214,260.755 167.360,260.615 166.333 C 260.475 165.306,260.117 164.263,259.820 164.016 C 259.522 163.769,259.162 163.103,259.019 162.535 C 258.877 161.968,258.544 161.284,258.280 161.015 C 258.016 160.746,257.365 159.954,256.833 159.254 C 255.749 157.827,251.135 154.015,249.600 153.278 C 249.050 153.014,247.700 152.286,246.600 151.661 C 245.500 151.035,243.925 150.397,243.100 150.243 C 242.275 150.090,241.600 149.794,241.600 149.587 C 241.600 149.379,240.868 149.092,239.973 148.949 C 239.078 148.806,238.099 148.442,237.796 148.139 C 237.494 147.837,236.651 147.474,235.923 147.332 C 235.195 147.191,233.973 146.743,233.206 146.338 C 232.439 145.932,231.426 145.600,230.955 145.600 C 230.484 145.600,229.890 145.349,229.635 145.042 C 229.380 144.735,228.523 144.362,227.731 144.214 C 226.939 144.065,225.644 143.596,224.852 143.172 C 224.060 142.747,223.105 142.400,222.730 142.400 C 222.354 142.400,221.934 142.217,221.796 141.994 C 221.658 141.771,220.952 141.340,220.226 141.037 C 218.714 140.405,215.200 137.048,215.200 136.235 C 215.200 135.936,214.931 135.176,214.602 134.546 C 213.850 133.102,213.846 132.357,214.587 131.376 C 214.910 130.949,215.180 130.195,215.187 129.700 C 215.194 129.205,215.560 128.440,216.000 128.000 C 216.440 127.560,216.800 127.086,216.800 126.946 C 216.800 126.512,218.733 124.875,219.551 124.616 C 219.978 124.480,220.546 124.106,220.813 123.785 C 221.080 123.463,221.591 123.199,221.949 123.198 C 222.307 123.196,223.140 122.893,223.800 122.524 C 225.835 121.387,234.598 121.276,236.624 122.362 C 237.484 122.823,238.585 123.200,239.070 123.200 C 239.556 123.200,240.075 123.398,240.224 123.640 C 240.374 123.881,240.969 124.293,241.548 124.555 C 243.257 125.329,245.600 126.854,245.600 127.194 C 245.600 127.366,246.059 127.809,246.620 128.176 C 247.782 128.938,247.223 129.429,253.421 122.200 C 255.119 120.220,256.664 118.540,256.854 118.467 C 257.444 118.239,257.245 116.400,256.631 116.400 C 256.318 116.400,255.551 115.995,254.928 115.500 C 252.853 113.853,247.755 111.200,246.666 111.200 C 246.353 111.200,245.881 110.939,245.616 110.620 C 245.351 110.300,244.294 109.921,243.267 109.776 C 242.240 109.632,241.035 109.285,240.590 109.006 C 240.144 108.727,238.254 108.372,236.390 108.216 C 234.525 108.061,231.740 107.679,230.200 107.367 C 226.928 106.705,226.943 106.705,222.000 107.620 M323.000 107.237 C 322.340 107.440,320.000 107.791,317.800 108.018 C 315.600 108.245,313.350 108.671,312.800 108.964 C 312.250 109.257,311.080 109.617,310.200 109.765 C 309.320 109.912,308.060 110.278,307.400 110.578 C 306.740 110.877,305.750 111.319,305.200 111.558 C 304.650 111.798,303.930 112.156,303.600 112.354 C 303.270 112.552,302.550 112.912,302.000 113.154 C 301.450 113.396,300.640 113.816,300.200 114.087 C 297.943 115.478,296.148 116.642,295.710 117.000 C 295.441 117.220,294.743 117.760,294.161 118.200 C 292.580 119.394,287.597 124.357,286.000 126.327 C 285.230 127.278,284.285 128.353,283.900 128.716 C 283.515 129.080,283.200 129.615,283.200 129.905 C 283.200 130.195,282.878 130.920,282.484 131.516 C 280.526 134.479,278.882 137.870,278.549 139.630 C 278.406 140.384,278.051 141.450,277.761 142.000 C 274.830 147.548,274.841 165.048,277.778 170.800 C 278.059 171.350,278.406 172.416,278.549 173.170 C 278.882 174.930,280.526 178.321,282.484 181.284 C 282.878 181.880,283.201 182.600,283.202 182.884 C 283.203 183.168,283.788 184.038,284.502 184.817 C 285.216 185.597,286.762 187.388,287.939 188.798 C 289.115 190.209,290.915 192.001,291.939 192.781 C 292.962 193.562,293.944 194.425,294.120 194.700 C 294.296 194.975,294.701 195.200,295.020 195.200 C 295.339 195.200,295.600 195.348,295.600 195.529 C 295.600 195.883,298.669 198.000,299.182 198.000 C 299.353 198.000,299.936 198.349,300.478 198.775 C 301.020 199.202,301.937 199.669,302.515 199.814 C 303.094 199.960,303.777 200.331,304.033 200.639 C 304.289 200.948,304.794 201.200,305.155 201.200 C 305.516 201.200,306.484 201.560,307.304 202.000 C 308.125 202.440,309.293 202.801,309.899 202.802 C 310.504 202.804,311.540 203.092,312.200 203.442 C 312.893 203.810,315.148 204.223,317.540 204.420 C 319.817 204.607,322.663 204.981,323.865 205.250 C 325.604 205.639,326.453 205.635,328.029 205.231 C 329.118 204.952,331.942 204.586,334.304 204.418 C 337.003 204.226,339.046 203.869,339.800 203.459 C 340.460 203.099,341.473 202.804,342.051 202.802 C 342.629 202.801,343.322 202.535,343.591 202.211 C 343.860 201.886,344.737 201.505,345.540 201.362 C 346.343 201.219,347.585 200.750,348.300 200.319 L 349.600 199.535 349.600 188.167 C 349.600 181.915,349.451 176.800,349.270 176.800 C 349.088 176.800,348.517 177.250,348.000 177.800 C 347.483 178.350,346.822 178.800,346.530 178.800 C 346.239 178.800,346.000 178.970,346.000 179.178 C 346.000 179.561,344.918 180.241,342.442 181.415 C 341.695 181.770,340.827 182.316,340.513 182.630 C 340.199 182.943,339.407 183.200,338.752 183.200 C 338.096 183.200,336.984 183.515,336.280 183.900 C 335.222 184.479,333.960 184.600,329.000 184.600 C 324.040 184.600,322.778 184.479,321.720 183.900 C 321.016 183.515,319.823 183.200,319.069 183.200 C 318.315 183.200,317.498 182.959,317.254 182.665 C 317.009 182.370,316.087 181.913,315.205 181.649 C 314.322 181.384,313.600 180.995,313.600 180.784 C 313.600 180.573,313.347 180.400,313.037 180.400 C 312.366 180.400,308.138 177.043,307.001 175.608 C 306.562 175.054,305.836 174.240,305.389 173.800 C 304.942 173.360,304.356 172.550,304.087 172.000 C 303.817 171.450,303.070 170.100,302.425 169.000 C 301.781 167.900,301.241 166.586,301.227 166.080 C 301.212 165.574,300.887 164.584,300.504 163.880 C 299.471 161.978,299.467 150.270,300.500 148.811 C 300.885 148.267,301.200 147.429,301.200 146.948 C 301.200 146.136,303.062 142.050,303.636 141.600 C 303.777 141.490,304.005 141.040,304.142 140.600 C 304.279 140.160,305.519 138.630,306.896 137.200 C 309.144 134.866,310.334 133.862,312.352 132.600 C 312.703 132.380,313.422 131.885,313.949 131.500 C 314.477 131.115,315.222 130.800,315.605 130.800 C 315.988 130.800,316.522 130.535,316.791 130.211 C 317.060 129.886,317.937 129.516,318.740 129.388 C 319.543 129.260,320.820 128.882,321.577 128.547 C 323.493 127.702,334.440 127.673,335.724 128.511 C 336.206 128.825,337.440 129.208,338.467 129.361 C 339.494 129.514,340.551 129.900,340.816 130.220 C 341.081 130.539,341.488 130.800,341.720 130.800 C 342.237 130.800,347.377 134.250,348.028 135.034 C 349.481 136.785,349.600 135.969,349.600 124.227 C 349.600 113.205,349.575 112.846,348.800 112.600 C 348.360 112.460,348.000 112.194,348.000 112.008 C 348.000 111.822,347.235 111.545,346.300 111.392 C 345.365 111.238,344.330 110.883,344.000 110.601 C 343.670 110.319,342.770 109.959,342.000 109.800 C 341.230 109.641,340.330 109.280,340.000 108.998 C 339.670 108.716,337.693 108.354,335.600 108.193 C 333.510 108.032,330.990 107.655,330.000 107.355 C 327.971 106.739,324.796 106.686,323.000 107.237 M91.080 131.733 C 91.784 132.100,92.831 132.400,93.406 132.400 C 94.667 132.400,98.321 133.806,101.265 135.425 C 103.113 136.441,108.400 141.638,108.400 142.440 C 108.400 142.858,108.548 143.200,108.729 143.200 C 109.270 143.200,111.107 146.263,111.415 147.681 C 111.573 148.406,111.949 149.355,112.251 149.789 C 112.653 150.366,112.800 152.085,112.800 156.200 C 112.800 160.315,112.653 162.034,112.251 162.611 C 111.949 163.045,111.566 164.030,111.399 164.800 C 111.232 165.570,110.759 166.629,110.348 167.154 C 109.937 167.679,109.600 168.359,109.600 168.666 C 109.600 168.974,109.330 169.329,109.000 169.455 C 108.670 169.582,108.400 169.945,108.400 170.262 C 108.400 171.098,102.888 176.353,101.326 177.005 C 100.597 177.310,100.000 177.734,100.000 177.948 C 100.000 178.162,99.418 178.464,98.706 178.621 C 97.994 178.777,97.049 179.130,96.606 179.405 C 96.163 179.680,95.000 180.024,94.023 180.170 C 93.046 180.315,91.426 180.702,90.423 181.029 C 89.035 181.482,86.979 181.597,81.800 181.512 L 75.000 181.400 74.896 156.600 C 74.839 142.960,74.888 131.551,75.004 131.247 C 75.333 130.387,89.306 130.810,91.080 131.733 " stroke="none" fill="#354d5d" fill-rule="evenodd"></path><path id="path1" d="M15.493 55.840 C 15.362 55.971,15.355 56.338,15.477 56.655 C 15.598 56.973,15.541 57.204,15.349 57.169 C 13.742 56.876,12.030 57.276,11.800 58.000 C 11.660 58.440,11.296 58.800,10.991 58.800 C 10.348 58.800,7.558 60.621,7.123 61.324 C 6.962 61.586,6.598 61.800,6.315 61.800 C 6.032 61.800,5.744 62.190,5.677 62.666 C 5.609 63.143,5.284 63.636,4.956 63.762 C 4.561 63.913,4.453 63.823,4.638 63.495 C 4.844 63.129,4.792 63.115,4.438 63.440 C 4.175 63.683,3.932 64.242,3.899 64.682 C 3.865 65.135,3.569 65.466,3.219 65.442 C 2.806 65.414,2.559 65.818,2.478 66.659 C 2.395 67.507,2.101 67.985,1.578 68.122 C 0.989 68.276,0.800 68.675,0.800 69.763 C 0.800 70.553,0.620 71.200,0.400 71.200 C -0.143 71.200,-0.156 328.680,0.387 328.867 C 0.600 328.940,0.821 329.612,0.877 330.361 C 0.946 331.272,1.214 331.783,1.690 331.908 C 2.155 332.029,2.400 332.476,2.400 333.204 C 2.400 333.827,2.666 334.416,3.006 334.547 C 3.339 334.675,3.784 335.231,3.993 335.782 C 4.236 336.421,4.585 336.704,4.955 336.562 C 5.343 336.413,5.583 336.649,5.678 337.269 C 5.755 337.781,6.045 338.153,6.321 338.096 C 6.597 338.039,6.929 338.271,7.060 338.611 C 7.190 338.951,7.821 339.501,8.462 339.832 C 9.102 340.163,9.517 340.611,9.383 340.827 C 9.250 341.043,9.289 341.190,9.470 341.153 C 10.137 341.017,12.392 342.089,12.176 342.439 C 11.993 342.736,14.189 343.023,15.300 342.847 C 15.465 342.821,15.600 343.160,15.600 343.600 C 15.600 344.397,15.867 344.400,96.000 344.400 L 176.400 344.400 176.400 343.590 C 176.400 343.116,176.777 342.637,177.308 342.435 C 177.808 342.245,179.923 341.117,182.008 339.929 C 184.094 338.740,186.250 337.549,186.800 337.282 C 187.350 337.014,189.060 336.069,190.600 335.182 C 192.140 334.294,193.940 333.293,194.600 332.956 C 195.260 332.620,196.520 331.917,197.400 331.394 C 198.280 330.871,199.810 330.013,200.800 329.487 C 203.237 328.193,209.258 324.857,210.000 324.390 C 210.330 324.182,211.140 323.739,211.800 323.406 C 212.460 323.073,213.720 322.382,214.600 321.872 C 215.480 321.361,217.264 320.369,218.564 319.668 C 219.864 318.966,221.124 318.240,221.364 318.055 C 221.604 317.870,223.420 316.859,225.400 315.808 C 227.380 314.757,229.270 313.672,229.600 313.396 C 229.930 313.120,230.647 312.758,231.192 312.591 C 231.738 312.424,232.638 311.991,233.192 311.628 C 234.741 310.613,235.586 310.122,238.400 308.595 C 239.830 307.819,242.260 306.462,243.800 305.579 C 245.340 304.696,247.320 303.619,248.200 303.186 C 249.080 302.752,250.430 302.014,251.200 301.545 C 252.514 300.745,256.023 298.789,259.200 297.086 C 259.970 296.673,261.320 295.912,262.200 295.395 C 263.080 294.878,264.340 294.174,265.000 293.830 C 265.660 293.487,267.460 292.479,269.000 291.592 C 270.540 290.704,272.430 289.668,273.200 289.289 C 273.970 288.910,274.838 288.375,275.129 288.100 C 275.419 287.825,275.834 287.600,276.050 287.600 C 276.266 287.600,278.278 286.549,280.521 285.265 C 282.764 283.980,284.870 282.802,285.200 282.646 C 285.530 282.490,286.520 281.931,287.400 281.405 C 288.280 280.879,290.233 279.799,291.739 279.005 C 293.246 278.210,295.213 277.097,296.111 276.530 C 297.009 275.963,298.297 275.244,298.972 274.933 C 299.647 274.622,300.920 273.933,301.800 273.403 C 302.680 272.872,303.670 272.310,304.000 272.154 C 304.330 271.998,306.400 270.843,308.600 269.588 C 310.800 268.332,314.220 266.447,316.200 265.398 C 318.180 264.349,319.999 263.335,320.242 263.144 C 320.485 262.954,321.475 262.374,322.442 261.856 C 327.130 259.342,330.136 257.691,333.800 255.618 C 336.000 254.374,338.070 253.222,338.400 253.059 C 338.730 252.895,339.720 252.324,340.600 251.789 C 341.480 251.254,342.650 250.613,343.200 250.365 C 344.286 249.876,344.207 249.919,348.000 247.736 C 349.430 246.913,351.230 245.908,352.000 245.504 C 352.770 245.099,354.120 244.346,355.000 243.832 C 355.880 243.318,357.770 242.294,359.200 241.558 C 360.630 240.822,362.070 240.014,362.400 239.763 C 362.730 239.512,364.620 238.452,366.600 237.407 C 368.580 236.362,370.470 235.294,370.800 235.034 C 371.130 234.773,372.390 234.053,373.600 233.434 C 374.810 232.814,376.520 231.888,377.400 231.375 C 378.280 230.863,379.810 230.013,380.800 229.487 C 383.237 228.193,389.258 224.857,390.000 224.390 C 390.330 224.182,391.140 223.741,391.800 223.409 C 392.460 223.077,394.260 222.076,395.800 221.184 C 397.340 220.292,398.915 219.459,399.300 219.334 C 400.100 219.074,400.424 71.200,399.624 71.200 C 399.417 71.200,399.192 70.525,399.124 69.700 C 399.040 68.689,398.805 68.200,398.400 68.200 C 398.034 68.200,397.748 67.744,397.667 67.031 C 397.594 66.389,397.102 65.523,396.574 65.108 C 396.047 64.694,395.657 64.139,395.708 63.877 C 395.758 63.615,395.498 63.450,395.129 63.511 C 394.693 63.583,394.413 63.304,394.329 62.711 C 394.258 62.210,394.020 61.800,393.800 61.800 C 393.580 61.800,392.995 61.395,392.500 60.900 C 392.005 60.405,391.409 60.000,391.176 60.000 C 390.943 60.000,390.881 59.792,391.038 59.538 C 391.209 59.263,391.149 59.185,390.889 59.345 C 390.651 59.492,390.342 59.430,390.204 59.207 C 390.066 58.983,389.587 58.800,389.139 58.800 C 388.662 58.800,388.239 58.469,388.116 58.000 C 387.969 57.440,387.570 57.200,386.786 57.200 C 385.260 57.200,384.400 56.824,384.400 56.158 C 384.400 55.584,16.067 55.266,15.493 55.840 M174.720 106.080 C 175.552 106.912,175.402 206.237,174.567 206.557 C 173.289 207.048,150.588 206.828,150.080 206.320 C 149.443 205.683,149.378 107.562,150.014 106.374 C 150.524 105.422,173.785 105.145,174.720 106.080 M90.800 106.402 C 92.010 106.585,93.720 106.918,94.600 107.141 C 97.990 108.000,99.884 108.462,102.153 108.983 C 103.446 109.280,104.616 109.684,104.753 109.881 C 104.889 110.078,105.765 110.462,106.700 110.736 C 107.635 111.009,108.400 111.385,108.400 111.573 C 108.400 111.760,108.895 112.030,109.500 112.173 C 110.799 112.480,114.094 114.054,114.446 114.536 C 114.581 114.721,115.057 115.081,115.504 115.336 C 119.137 117.410,122.350 120.170,126.400 124.693 C 129.369 128.009,129.256 127.855,130.960 130.902 C 131.788 132.382,132.630 133.695,132.832 133.820 C 133.035 133.945,133.200 134.375,133.200 134.775 C 133.200 135.175,133.465 135.722,133.789 135.991 C 134.114 136.260,134.485 137.137,134.615 137.940 C 134.744 138.743,135.199 140.140,135.625 141.044 C 136.051 141.948,136.400 143.050,136.400 143.494 C 136.400 143.937,136.687 145.087,137.037 146.050 C 138.681 150.565,137.579 167.497,135.416 170.958 C 135.127 171.421,134.775 172.457,134.634 173.260 C 134.494 174.063,134.114 174.940,133.789 175.209 C 133.465 175.478,133.200 176.188,133.200 176.787 C 133.200 177.386,132.840 178.202,132.400 178.600 C 131.960 178.998,131.600 179.538,131.600 179.800 C 131.600 180.062,131.240 180.602,130.800 181.000 C 130.360 181.398,130.000 181.868,130.000 182.044 C 130.000 182.220,129.547 183.047,128.993 183.882 C 128.439 184.717,127.764 185.735,127.493 186.145 C 125.883 188.577,116.330 197.200,115.244 197.200 C 115.068 197.200,114.631 197.524,114.272 197.920 C 113.671 198.584,108.799 201.155,105.000 202.813 C 102.279 204.001,99.503 204.777,97.000 205.050 C 95.680 205.193,94.060 205.594,93.400 205.940 C 91.791 206.783,51.176 207.210,50.193 206.394 C 49.582 205.888,49.239 108.205,49.843 106.633 C 50.115 105.923,86.302 105.719,90.800 106.402 M236.887 106.935 C 237.705 107.301,239.055 107.601,239.887 107.602 C 240.719 107.604,241.883 107.857,242.473 108.165 C 243.063 108.473,244.143 108.852,244.873 109.007 C 245.603 109.162,246.470 109.519,246.800 109.800 C 247.130 110.081,247.973 110.433,248.672 110.581 C 249.372 110.730,250.150 111.098,250.400 111.400 C 250.650 111.702,251.395 112.067,252.055 112.212 C 252.714 112.357,253.351 112.728,253.470 113.038 C 253.588 113.347,253.866 113.600,254.087 113.600 C 256.564 113.600,259.620 118.044,257.855 119.080 C 257.555 119.256,256.355 120.570,255.186 122.000 C 254.018 123.430,252.778 124.890,252.431 125.244 C 252.084 125.597,251.002 126.812,250.027 127.944 C 247.718 130.621,247.475 130.570,242.370 126.324 C 239.829 124.211,231.833 122.091,229.141 122.816 C 228.236 123.060,226.487 123.423,225.254 123.624 C 221.345 124.260,216.787 127.403,216.143 129.906 C 215.485 132.465,216.185 136.369,217.505 137.502 C 219.885 139.547,221.125 140.400,221.714 140.400 C 222.038 140.400,222.522 140.665,222.791 140.989 C 223.060 141.314,223.937 141.696,224.740 141.840 C 225.543 141.984,226.470 142.328,226.800 142.606 C 227.130 142.884,228.030 143.242,228.800 143.402 C 229.570 143.562,230.650 143.939,231.200 144.241 C 232.228 144.804,234.729 145.731,237.200 146.464 C 237.970 146.693,238.884 147.132,239.231 147.440 C 239.579 147.748,240.216 148.000,240.647 148.000 C 241.078 148.000,242.116 148.350,242.954 148.777 C 243.792 149.204,244.998 149.668,245.634 149.808 C 246.270 149.947,246.895 150.230,247.023 150.437 C 247.150 150.643,247.827 151.084,248.527 151.417 C 249.771 152.008,250.103 152.201,252.631 153.815 C 255.183 155.444,259.600 160.043,259.600 161.072 C 259.600 161.303,259.945 161.931,260.367 162.467 C 260.789 163.004,261.262 164.153,261.419 165.021 C 261.576 165.890,261.906 166.853,262.152 167.162 C 262.781 167.951,262.766 181.277,262.136 182.039 C 261.880 182.347,261.538 183.320,261.374 184.200 C 261.211 185.080,260.569 186.700,259.948 187.800 C 259.327 188.900,258.562 190.365,258.249 191.055 C 257.604 192.473,251.598 198.800,250.896 198.800 C 250.645 198.800,250.296 199.046,250.120 199.346 C 249.944 199.646,249.190 200.231,248.446 200.646 C 244.686 202.739,242.943 203.587,242.389 203.593 C 242.053 203.597,241.417 203.853,240.975 204.163 C 240.533 204.472,239.278 204.847,238.186 204.996 C 237.094 205.146,235.570 205.561,234.800 205.920 C 231.041 207.670,213.463 206.468,209.138 204.165 C 208.554 203.854,207.654 203.597,207.138 203.594 C 206.622 203.591,205.750 203.329,205.200 203.011 C 204.650 202.694,203.792 202.250,203.294 202.025 C 202.326 201.587,200.170 200.123,199.282 199.300 C 198.986 199.025,198.570 198.800,198.360 198.800 C 197.689 198.800,194.281 195.893,191.597 193.031 C 190.169 191.509,188.685 189.934,188.300 189.531 C 186.779 187.942,187.721 186.878,198.259 178.287 C 198.587 178.019,199.154 177.485,199.517 177.100 C 200.517 176.040,203.600 177.078,203.600 178.474 C 203.600 179.593,209.911 184.943,212.094 185.675 C 212.812 185.916,213.670 186.333,214.000 186.601 C 215.440 187.771,224.095 188.924,226.635 188.283 C 227.936 187.955,229.749 187.564,230.664 187.414 C 231.580 187.264,232.643 186.795,233.026 186.371 C 233.410 185.947,233.940 185.600,234.204 185.600 C 235.396 185.600,238.555 181.640,238.993 179.596 C 239.158 178.828,239.480 177.967,239.709 177.683 C 241.558 175.391,238.152 168.293,234.369 166.554 C 233.836 166.309,232.570 165.724,231.556 165.254 C 230.542 164.784,229.459 164.400,229.150 164.400 C 228.841 164.400,227.916 164.040,227.096 163.600 C 226.275 163.160,225.282 162.800,224.890 162.800 C 224.499 162.800,223.823 162.553,223.389 162.251 C 222.955 161.949,221.970 161.565,221.200 161.398 C 220.430 161.230,219.173 160.757,218.406 160.347 C 217.639 159.936,216.729 159.600,216.382 159.600 C 216.036 159.600,215.404 159.336,214.976 159.013 C 214.549 158.690,213.923 158.420,213.585 158.413 C 213.246 158.406,212.302 158.060,211.486 157.644 C 210.670 157.228,209.583 156.782,209.071 156.653 C 202.210 154.932,194.422 146.562,193.199 139.597 C 192.368 134.862,192.877 127.476,194.178 125.400 C 194.453 124.960,194.900 123.925,195.170 123.100 C 195.441 122.275,195.784 121.600,195.933 121.600 C 196.083 121.600,196.462 121.019,196.776 120.310 C 197.447 118.794,203.753 112.400,204.577 112.400 C 204.888 112.400,205.419 112.123,205.757 111.785 C 206.095 111.447,206.996 110.910,207.759 110.592 C 208.521 110.273,209.258 109.829,209.396 109.606 C 209.534 109.383,209.954 109.200,210.330 109.200 C 210.705 109.200,211.684 108.840,212.504 108.400 C 213.325 107.960,214.500 107.600,215.114 107.600 C 215.728 107.600,217.214 107.237,218.415 106.793 C 221.312 105.722,234.398 105.823,236.887 106.935 M333.600 106.376 C 337.719 107.129,341.084 107.987,342.205 108.572 C 342.862 108.915,343.626 109.196,343.901 109.198 C 344.177 109.199,345.075 109.560,345.896 110.000 C 346.716 110.440,347.706 110.800,348.094 110.800 C 350.292 110.800,350.400 111.436,350.400 124.324 C 350.400 137.272,350.189 138.709,348.531 137.084 C 346.349 134.948,344.124 133.211,343.562 133.206 C 343.211 133.203,342.598 132.840,342.200 132.400 C 341.802 131.960,341.184 131.600,340.827 131.600 C 340.470 131.600,339.805 131.339,339.349 131.019 C 336.949 129.338,328.280 128.407,324.200 129.392 C 322.880 129.711,321.364 129.978,320.830 129.986 C 314.324 130.081,303.588 140.887,301.740 149.200 C 300.328 155.554,300.284 156.190,301.016 159.683 C 301.398 161.507,301.842 163.720,302.002 164.600 C 302.612 167.957,307.000 174.721,309.940 176.836 C 310.678 177.366,311.618 178.110,312.030 178.490 C 312.442 178.869,313.227 179.292,313.773 179.429 C 314.320 179.566,314.977 179.931,315.233 180.239 C 315.489 180.548,315.908 180.800,316.164 180.800 C 316.421 180.800,317.306 181.144,318.130 181.564 C 323.719 184.414,336.569 183.766,342.000 180.360 C 342.330 180.153,343.140 179.727,343.800 179.412 C 344.460 179.098,345.720 178.196,346.600 177.410 C 349.370 174.933,349.256 174.989,349.856 175.809 C 350.500 176.690,350.651 199.784,350.019 200.784 C 349.653 201.362,347.206 202.345,343.454 203.421 C 342.383 203.728,341.294 204.156,341.034 204.372 C 340.773 204.588,339.759 204.876,338.780 205.012 C 337.801 205.148,335.740 205.536,334.200 205.875 C 330.540 206.681,320.301 206.672,317.200 205.860 C 315.990 205.543,314.190 205.153,313.200 204.994 C 312.210 204.835,310.914 204.457,310.320 204.153 C 309.726 203.849,308.848 203.600,308.368 203.600 C 307.512 203.600,299.995 200.137,299.596 199.559 C 299.484 199.396,298.935 199.149,298.377 199.009 C 297.818 198.868,296.685 198.134,295.858 197.377 C 295.032 196.620,294.250 196.000,294.121 196.000 C 292.353 196.000,281.995 184.336,281.012 181.238 C 280.852 180.734,280.379 179.979,279.961 179.561 C 279.542 179.142,279.200 178.462,279.200 178.049 C 279.200 177.636,278.949 177.090,278.642 176.835 C 278.335 176.580,277.960 175.712,277.809 174.906 C 277.658 174.100,277.279 173.077,276.967 172.631 C 276.655 172.186,276.396 171.367,276.391 170.811 C 276.386 170.255,276.009 168.990,275.553 168.000 C 274.417 165.538,274.240 147.115,275.335 145.443 C 275.691 144.900,276.097 143.679,276.238 142.728 C 276.379 141.778,276.730 140.621,277.018 140.158 C 277.306 139.696,277.664 138.667,277.813 137.873 C 277.962 137.078,278.335 136.220,278.642 135.965 C 278.949 135.710,279.200 135.188,279.200 134.805 C 279.200 134.422,279.529 133.679,279.930 133.154 C 280.332 132.629,281.220 131.210,281.903 130.000 C 282.587 128.790,283.717 127.170,284.415 126.400 C 285.112 125.630,286.159 124.379,286.741 123.621 C 288.443 121.404,293.424 116.800,294.121 116.800 C 294.250 116.800,295.040 116.162,295.878 115.383 C 296.715 114.603,297.883 113.863,298.474 113.738 C 299.065 113.613,299.636 113.284,299.742 113.007 C 299.848 112.730,300.445 112.376,301.068 112.220 C 301.690 112.065,302.470 111.703,302.800 111.416 C 303.130 111.129,303.850 110.762,304.400 110.600 C 304.950 110.438,305.670 110.081,306.000 109.806 C 306.330 109.531,307.401 109.185,308.380 109.036 C 309.359 108.887,310.370 108.591,310.625 108.379 C 310.881 108.167,312.150 107.798,313.445 107.560 C 314.740 107.321,315.982 106.976,316.205 106.793 C 317.068 106.083,330.265 105.767,333.600 106.376 M75.600 156.181 L 75.600 180.800 79.700 180.776 C 81.955 180.763,84.700 180.589,85.800 180.389 C 86.900 180.189,89.240 179.832,91.000 179.595 C 92.760 179.357,94.650 178.926,95.200 178.636 C 95.750 178.346,96.705 177.988,97.323 177.841 C 99.565 177.306,106.626 171.538,107.656 169.400 C 107.868 168.960,108.478 167.880,109.013 167.000 C 113.194 160.114,112.716 150.963,107.780 143.405 C 105.798 140.371,98.948 134.800,97.197 134.800 C 96.862 134.800,95.916 134.440,95.096 134.000 C 94.267 133.556,92.839 133.200,91.885 133.200 C 90.941 133.200,89.185 132.952,87.984 132.648 C 86.783 132.345,83.505 131.976,80.700 131.829 L 75.600 131.561 75.600 156.181 " stroke="none" fill="#e3e3e3" fill-rule="evenodd"></path><path id="path2" d="M398.637 219.500 C 398.321 219.819,393.807 222.400,391.800 223.409 C 391.140 223.741,390.330 224.182,390.000 224.390 C 389.258 224.857,383.237 228.193,380.800 229.487 C 379.810 230.013,378.280 230.863,377.400 231.375 C 376.520 231.888,374.810 232.814,373.600 233.434 C 372.390 234.053,371.130 234.773,370.800 235.034 C 370.470 235.294,368.580 236.362,366.600 237.407 C 364.620 238.452,362.730 239.512,362.400 239.763 C 362.070 240.014,360.630 240.822,359.200 241.558 C 357.770 242.294,355.880 243.318,355.000 243.832 C 354.120 244.346,352.770 245.099,352.000 245.504 C 351.230 245.908,349.430 246.913,348.000 247.736 C 344.207 249.919,344.286 249.876,343.200 250.365 C 342.650 250.613,341.480 251.254,340.600 251.789 C 339.720 252.324,338.730 252.895,338.400 253.059 C 338.070 253.222,336.000 254.374,333.800 255.618 C 330.136 257.691,327.130 259.342,322.442 261.856 C 321.475 262.374,320.485 262.954,320.242 263.144 C 319.999 263.335,318.180 264.349,316.200 265.398 C 314.220 266.447,310.800 268.332,308.600 269.588 C 306.400 270.843,304.330 271.998,304.000 272.154 C 303.670 272.310,302.680 272.872,301.800 273.403 C 300.920 273.933,299.647 274.622,298.972 274.933 C 298.297 275.244,297.009 275.963,296.111 276.530 C 295.213 277.097,293.246 278.210,291.739 279.005 C 290.233 279.799,288.280 280.879,287.400 281.405 C 286.520 281.931,285.530 282.490,285.200 282.646 C 284.870 282.802,282.764 283.980,280.521 285.265 C 278.278 286.549,276.266 287.600,276.050 287.600 C 275.834 287.600,275.419 287.825,275.129 288.100 C 274.838 288.375,273.970 288.910,273.200 289.289 C 272.430 289.668,270.540 290.704,269.000 291.592 C 267.460 292.479,265.660 293.487,265.000 293.830 C 264.340 294.174,263.080 294.878,262.200 295.395 C 261.320 295.912,259.970 296.673,259.200 297.086 C 256.023 298.789,252.514 300.745,251.200 301.545 C 250.430 302.014,249.080 302.752,248.200 303.186 C 247.320 303.619,245.340 304.696,243.800 305.579 C 242.260 306.462,239.830 307.819,238.400 308.595 C 235.586 310.122,234.741 310.613,233.192 311.628 C 232.638 311.991,231.738 312.424,231.192 312.591 C 230.647 312.758,229.930 313.120,229.600 313.396 C 229.270 313.672,227.380 314.757,225.400 315.808 C 223.420 316.859,221.604 317.870,221.364 318.055 C 221.124 318.240,219.864 318.966,218.564 319.668 C 217.264 320.369,215.480 321.361,214.600 321.872 C 213.720 322.382,212.460 323.073,211.800 323.406 C 211.140 323.739,210.330 324.182,210.000 324.390 C 209.258 324.857,203.237 328.193,200.800 329.487 C 199.810 330.013,198.280 330.871,197.400 331.394 C 196.520 331.917,195.260 332.620,194.600 332.956 C 193.940 333.293,192.140 334.294,190.600 335.182 C 189.060 336.069,187.350 337.014,186.800 337.282 C 186.250 337.549,184.094 338.740,182.008 339.929 C 179.923 341.117,177.808 342.245,177.308 342.435 C 176.776 342.637,176.400 343.116,176.400 343.592 L 176.400 344.404 280.700 344.302 C 379.752 344.205,384.997 344.165,384.944 343.500 C 384.900 342.943,385.209 342.800,386.457 342.800 C 387.433 342.800,388.106 342.588,388.240 342.239 C 388.359 341.931,389.073 341.563,389.828 341.421 C 390.644 341.268,391.200 340.928,391.200 340.582 C 391.200 340.262,391.487 340.000,391.837 340.000 C 392.188 340.000,392.569 339.640,392.684 339.200 C 392.800 338.757,393.230 338.400,393.647 338.400 C 394.133 338.400,394.400 338.117,394.400 337.600 C 394.400 337.067,394.667 336.800,395.200 336.800 C 395.777 336.800,396.000 336.533,396.000 335.844 C 396.000 335.185,396.214 334.906,396.690 334.944 C 397.385 335.000,397.458 334.834,397.550 333.000 C 397.578 332.436,397.843 332.000,398.157 332.000 C 398.802 332.000,399.200 331.148,399.200 329.767 C 399.200 329.235,399.380 328.800,399.600 328.800 C 399.865 328.800,400.000 310.267,400.000 274.000 C 400.000 217.865,400.006 218.115,398.637 219.500 " stroke="none" fill="#f3b45c" fill-rule="evenodd"></path><path id="path3" d="M50.300 106.634 C 49.647 107.286,49.948 205.459,50.604 206.003 C 51.592 206.824,87.941 206.319,92.200 205.425 C 99.503 203.894,102.687 203.093,104.200 202.406 C 105.080 202.007,106.970 201.189,108.400 200.588 C 109.830 199.986,111.855 198.888,112.901 198.147 C 113.946 197.406,114.883 196.800,114.983 196.800 C 116.797 196.800,129.600 183.647,129.600 181.783 C 129.600 181.678,130.225 180.703,130.988 179.617 C 132.288 177.767,133.592 174.720,134.380 171.689 C 134.567 170.967,134.929 170.127,135.183 169.821 C 136.101 168.714,137.660 157.664,137.386 154.200 C 137.044 149.870,135.814 143.181,135.098 141.760 C 134.777 141.122,134.410 140.060,134.284 139.400 C 134.017 138.016,132.352 134.352,131.193 132.600 C 130.757 131.940,130.167 130.950,129.884 130.400 C 128.577 127.864,127.307 126.321,123.466 122.600 C 121.195 120.400,119.081 118.420,118.769 118.199 C 116.019 116.259,112.263 113.958,110.700 113.255 C 108.293 112.172,105.347 110.872,103.800 110.209 C 102.424 109.620,96.968 108.297,92.000 107.348 C 88.345 106.650,50.924 106.009,50.300 106.634 M150.267 106.667 C 149.745 107.188,149.956 205.396,150.480 205.920 C 150.988 206.428,172.891 206.647,174.167 206.157 C 174.740 205.938,174.800 201.160,174.800 156.157 L 174.800 106.400 162.667 106.400 C 155.993 106.400,150.413 106.520,150.267 106.667 M222.400 106.782 C 215.760 107.725,211.429 109.158,206.194 112.141 C 202.244 114.391,195.600 121.670,195.600 123.747 C 195.600 124.013,195.247 124.923,194.816 125.768 C 193.734 127.892,193.187 133.384,193.630 137.699 C 194.570 146.868,200.096 152.595,212.600 157.360 C 214.140 157.947,215.713 158.601,216.095 158.813 C 216.477 159.026,217.017 159.201,217.295 159.202 C 217.573 159.204,218.340 159.492,219.000 159.842 C 219.660 160.192,220.920 160.716,221.800 161.006 C 222.680 161.296,224.660 162.007,226.200 162.587 C 227.740 163.166,229.498 163.799,230.106 163.994 C 238.968 166.829,242.736 173.397,239.516 180.400 C 238.516 182.577,235.703 186.000,234.915 186.000 C 234.691 186.000,234.079 186.326,233.554 186.724 C 230.652 188.927,221.411 189.742,216.743 188.206 C 211.789 186.576,205.945 183.016,204.626 180.822 C 203.422 178.821,200.778 176.612,200.294 177.203 C 200.022 177.534,198.379 178.974,196.642 180.403 C 188.377 187.200,187.634 188.014,188.684 189.125 C 193.340 194.048,196.038 196.596,197.747 197.682 C 198.876 198.400,199.980 199.128,200.200 199.299 C 206.810 204.453,225.353 207.871,233.400 205.418 C 234.500 205.083,235.811 204.807,236.313 204.804 C 238.208 204.795,245.128 202.012,248.040 200.088 C 248.613 199.709,249.603 199.051,250.240 198.625 C 252.413 197.172,256.957 192.291,257.897 190.400 C 258.170 189.850,258.567 189.130,258.778 188.800 C 261.378 184.737,263.173 174.086,262.015 169.600 C 261.759 168.610,261.359 167.001,261.126 166.024 C 260.128 161.840,255.782 156.495,250.902 153.451 C 247.996 151.639,244.808 150.000,244.190 150.000 C 243.864 150.000,242.925 149.640,242.104 149.200 C 241.284 148.760,240.334 148.400,239.995 148.400 C 239.656 148.400,239.023 148.154,238.589 147.854 C 238.155 147.554,237.350 147.179,236.800 147.022 C 235.698 146.707,232.078 145.371,230.200 144.587 C 229.540 144.311,227.920 143.687,226.600 143.200 C 219.870 140.718,216.308 138.228,215.571 135.494 C 212.145 122.770,231.967 117.380,244.978 127.498 L 247.756 129.658 249.437 127.729 C 256.243 119.917,257.896 117.789,257.655 117.148 C 257.314 116.241,252.785 113.179,249.800 111.837 C 248.480 111.243,246.860 110.514,246.200 110.217 C 240.726 107.751,228.255 105.951,222.400 106.782 M322.200 106.667 C 318.964 107.063,313.627 108.085,312.200 108.582 C 311.320 108.888,309.997 109.261,309.259 109.410 C 308.088 109.647,305.005 110.952,303.200 111.975 C 302.870 112.162,302.150 112.514,301.600 112.759 C 299.209 113.821,296.000 115.923,293.600 118.000 C 293.219 118.330,292.322 119.050,291.607 119.600 C 290.892 120.150,290.192 120.690,290.051 120.800 C 289.910 120.910,288.806 122.169,287.598 123.599 C 286.389 125.028,284.977 126.648,284.460 127.199 C 283.944 127.749,283.256 128.740,282.933 129.400 C 282.610 130.060,281.915 131.320,281.390 132.200 C 279.911 134.679,278.534 137.605,277.814 139.800 C 276.683 143.247,275.953 145.736,275.525 147.600 C 274.989 149.937,274.992 163.325,275.530 165.400 C 276.709 169.953,278.288 174.628,279.447 177.000 C 282.331 182.905,283.432 184.518,288.800 190.712 C 290.217 192.346,297.214 197.818,298.839 198.561 C 299.588 198.904,300.470 199.348,300.800 199.549 C 301.130 199.750,301.850 200.112,302.400 200.354 C 302.950 200.596,303.670 200.967,304.000 201.178 C 305.168 201.925,307.425 202.778,309.351 203.199 C 310.424 203.434,311.625 203.799,312.020 204.011 C 314.693 205.441,326.578 206.285,331.600 205.400 C 333.470 205.071,335.630 204.799,336.400 204.797 C 337.170 204.795,339.600 204.155,341.800 203.375 C 344.000 202.594,346.430 201.768,347.200 201.538 C 350.107 200.671,350.001 201.169,349.994 188.438 C 349.987 175.093,350.058 175.362,347.163 177.717 C 336.751 186.188,321.236 186.297,310.349 177.975 C 298.193 168.681,296.682 148.856,307.271 137.586 C 308.987 135.761,312.596 132.800,313.107 132.800 C 313.324 132.800,313.711 132.548,313.967 132.239 C 314.223 131.931,314.920 131.557,315.516 131.408 C 316.112 131.259,316.870 130.912,317.200 130.636 C 318.432 129.606,324.702 128.400,328.825 128.400 C 335.589 128.400,341.290 130.437,346.966 134.883 C 348.048 135.729,349.128 136.357,349.366 136.278 C 350.211 135.997,350.153 113.060,349.306 112.311 C 348.658 111.738,343.721 109.600,343.047 109.600 C 342.887 109.600,341.987 109.249,341.046 108.821 C 340.106 108.393,337.910 107.847,336.168 107.609 C 334.426 107.371,332.100 107.012,331.000 106.812 C 329.030 106.453,324.547 106.379,322.200 106.667 M85.000 107.202 C 85.880 107.412,88.670 107.776,91.200 108.011 C 93.730 108.245,96.340 108.678,97.000 108.972 C 97.660 109.267,99.100 109.631,100.200 109.781 C 101.300 109.932,103.010 110.420,104.000 110.866 C 104.990 111.312,106.340 111.914,107.000 112.204 C 112.248 114.507,114.356 115.683,116.854 117.700 C 117.875 118.525,118.874 119.200,119.072 119.200 C 119.453 119.200,124.800 124.235,124.800 124.593 C 124.800 124.708,125.396 125.386,126.124 126.101 C 127.767 127.712,129.380 130.189,130.945 133.500 C 131.283 134.215,131.748 134.800,131.980 134.800 C 132.211 134.800,132.406 135.115,132.414 135.500 C 132.421 135.885,132.775 136.920,133.200 137.800 C 133.625 138.680,133.979 139.855,133.986 140.411 C 133.994 140.967,134.295 141.843,134.655 142.357 C 135.036 142.901,135.522 144.988,135.817 147.346 C 136.095 149.576,136.541 152.577,136.807 154.015 C 137.219 156.244,137.192 157.010,136.626 159.215 C 136.261 160.637,135.857 163.240,135.728 165.000 C 135.597 166.792,135.255 168.475,134.951 168.826 C 134.653 169.171,134.289 170.071,134.142 170.826 C 133.996 171.582,133.543 172.827,133.138 173.594 C 132.732 174.361,132.400 175.304,132.400 175.690 C 132.400 176.076,131.680 177.428,130.801 178.696 C 129.921 179.963,129.201 181.142,129.201 181.316 C 129.200 181.669,127.774 183.748,126.700 184.960 C 126.315 185.395,126.000 185.899,126.000 186.080 C 126.000 187.004,115.579 196.400,114.553 196.400 C 114.440 196.400,113.757 196.850,113.036 197.400 C 112.314 197.950,111.536 198.400,111.305 198.400 C 111.074 198.400,110.782 198.670,110.655 199.000 C 110.529 199.330,110.102 199.600,109.707 199.600 C 109.311 199.600,108.316 199.960,107.496 200.400 C 106.675 200.840,105.667 201.200,105.255 201.200 C 104.844 201.200,104.079 201.533,103.554 201.939 C 103.029 202.346,101.718 202.796,100.640 202.940 C 99.563 203.083,98.471 203.375,98.214 203.588 C 97.958 203.801,96.049 204.163,93.974 204.392 C 91.898 204.621,89.210 205.024,88.000 205.289 C 86.479 205.621,80.367 205.774,68.200 205.785 L 50.600 205.800 50.498 156.300 L 50.397 106.800 66.898 106.810 C 75.984 106.815,84.119 106.991,85.000 107.202 M174.400 156.192 L 174.400 205.585 173.500 205.805 C 173.005 205.926,167.650 205.974,161.600 205.912 L 150.600 205.800 150.498 156.300 L 150.397 106.800 162.398 106.800 L 174.400 106.800 174.400 156.192 M230.200 107.367 C 231.740 107.679,234.525 108.061,236.390 108.216 C 238.254 108.372,240.144 108.727,240.590 109.006 C 241.035 109.285,242.240 109.632,243.267 109.776 C 244.294 109.921,245.351 110.300,245.616 110.620 C 245.881 110.939,246.353 111.200,246.666 111.200 C 247.755 111.200,252.853 113.853,254.928 115.500 C 255.551 115.995,256.318 116.400,256.631 116.400 C 257.245 116.400,257.444 118.239,256.854 118.467 C 256.664 118.540,255.119 120.220,253.421 122.200 C 247.223 129.429,247.782 128.938,246.620 128.176 C 246.059 127.809,245.600 127.366,245.600 127.194 C 245.600 126.854,243.257 125.329,241.548 124.555 C 240.969 124.293,240.374 123.881,240.224 123.640 C 240.075 123.398,239.556 123.200,239.070 123.200 C 238.585 123.200,237.484 122.823,236.624 122.362 C 234.598 121.276,225.835 121.387,223.800 122.524 C 223.140 122.893,222.307 123.196,221.949 123.198 C 221.591 123.199,221.080 123.463,220.813 123.785 C 220.546 124.106,219.978 124.480,219.551 124.616 C 218.733 124.875,216.800 126.512,216.800 126.946 C 216.800 127.086,216.440 127.560,216.000 128.000 C 215.560 128.440,215.194 129.205,215.187 129.700 C 215.180 130.195,214.910 130.949,214.587 131.376 C 213.846 132.357,213.850 133.102,214.602 134.546 C 214.931 135.176,215.200 135.936,215.200 136.235 C 215.200 137.048,218.714 140.405,220.226 141.037 C 220.952 141.340,221.658 141.771,221.796 141.994 C 221.934 142.217,222.354 142.400,222.730 142.400 C 223.105 142.400,224.060 142.747,224.852 143.172 C 225.644 143.596,226.939 144.065,227.731 144.214 C 228.523 144.362,229.380 144.735,229.635 145.042 C 229.890 145.349,230.484 145.600,230.955 145.600 C 231.426 145.600,232.439 145.932,233.206 146.338 C 233.973 146.743,235.195 147.191,235.923 147.332 C 236.651 147.474,237.494 147.837,237.796 148.139 C 238.099 148.442,239.078 148.806,239.973 148.949 C 240.868 149.092,241.600 149.379,241.600 149.587 C 241.600 149.794,242.275 150.090,243.100 150.243 C 243.925 150.397,245.500 151.035,246.600 151.661 C 247.700 152.286,249.050 153.014,249.600 153.278 C 251.135 154.015,255.749 157.827,256.833 159.254 C 257.365 159.954,258.016 160.746,258.280 161.015 C 258.544 161.284,258.877 161.968,259.019 162.535 C 259.162 163.103,259.522 163.769,259.820 164.016 C 260.117 164.263,260.475 165.306,260.615 166.333 C 260.755 167.360,261.141 169.214,261.474 170.454 C 261.843 171.827,261.998 173.545,261.871 174.854 C 261.501 178.681,260.381 184.092,259.783 184.945 C 259.462 185.403,259.200 185.996,259.200 186.263 C 259.200 187.202,258.544 188.424,256.207 191.840 C 255.239 193.255,250.943 197.634,249.973 198.194 C 249.587 198.417,248.436 199.185,247.415 199.900 C 246.395 200.615,245.254 201.201,244.880 201.203 C 244.506 201.204,243.660 201.563,243.000 202.000 C 242.340 202.437,241.530 202.797,241.200 202.800 C 240.870 202.803,240.066 203.083,239.414 203.423 C 238.762 203.763,236.900 204.210,235.275 204.416 C 233.651 204.622,231.606 204.983,230.732 205.218 C 228.758 205.750,222.079 205.762,220.697 205.237 C 220.134 205.023,218.082 204.724,216.137 204.573 C 214.108 204.416,211.885 203.979,210.922 203.549 C 209.999 203.137,208.939 202.800,208.566 202.800 C 207.938 202.800,204.989 201.579,203.600 200.745 C 203.270 200.546,202.431 200.122,201.737 199.802 C 201.042 199.482,200.412 199.080,200.337 198.910 C 200.178 198.551,197.075 196.400,196.716 196.400 C 196.477 196.400,191.200 191.239,191.200 191.005 C 191.200 190.939,190.662 190.308,190.004 189.604 C 188.524 188.020,188.550 187.976,193.400 183.915 C 195.380 182.257,197.630 180.344,198.400 179.663 C 199.170 178.982,200.026 178.231,200.302 177.995 C 200.870 177.508,202.765 178.640,202.787 179.480 C 202.794 179.744,203.029 180.104,203.310 180.280 C 203.590 180.456,204.139 181.103,204.531 181.718 C 204.922 182.333,205.637 182.993,206.121 183.185 C 206.604 183.376,207.578 184.072,208.285 184.731 C 209.642 185.994,213.509 188.000,214.589 188.000 C 214.941 188.000,215.709 188.315,216.296 188.700 C 217.199 189.291,218.329 189.399,223.582 189.395 L 229.800 189.390 232.954 187.657 C 234.689 186.704,236.529 185.446,237.043 184.862 C 237.557 184.278,238.220 183.530,238.515 183.200 C 243.353 177.796,241.204 168.174,234.527 165.350 C 233.827 165.054,233.154 164.650,233.032 164.451 C 232.909 164.253,232.132 163.967,231.304 163.816 C 230.477 163.665,229.437 163.308,228.994 163.023 C 228.551 162.738,227.564 162.368,226.800 162.200 C 226.036 162.032,225.049 161.666,224.606 161.387 C 224.163 161.107,223.170 160.751,222.400 160.595 C 221.630 160.439,220.730 160.081,220.400 159.800 C 220.070 159.519,219.170 159.156,218.400 158.993 C 217.630 158.831,216.645 158.451,216.211 158.149 C 215.777 157.847,215.144 157.600,214.805 157.600 C 214.466 157.600,213.561 157.264,212.794 156.853 C 212.027 156.443,210.827 155.981,210.128 155.828 C 209.428 155.674,208.641 155.290,208.379 154.974 C 208.117 154.658,207.588 154.400,207.205 154.400 C 206.822 154.400,206.050 154.040,205.491 153.600 C 204.931 153.160,204.348 152.800,204.195 152.800 C 204.041 152.800,203.420 152.395,202.813 151.900 C 202.207 151.405,201.302 150.730,200.802 150.400 C 199.747 149.704,199.697 149.650,197.623 146.976 C 196.760 145.863,195.930 144.423,195.779 143.776 C 195.628 143.129,195.211 142.150,194.852 141.600 C 193.878 140.107,193.890 128.029,194.866 126.942 C 195.233 126.534,195.656 125.531,195.808 124.714 C 195.960 123.897,196.335 123.020,196.642 122.765 C 196.949 122.510,197.200 122.139,197.200 121.939 C 197.200 120.838,205.037 112.830,206.137 112.807 C 206.322 112.803,206.931 112.440,207.491 112.000 C 208.050 111.560,208.822 111.200,209.205 111.200 C 209.588 111.200,210.110 110.950,210.363 110.644 C 210.617 110.339,211.618 109.889,212.588 109.645 C 213.559 109.400,214.464 109.020,214.600 108.800 C 214.736 108.580,215.602 108.383,216.524 108.362 C 217.446 108.341,219.910 108.007,222.000 107.620 C 226.943 106.705,226.928 106.705,230.200 107.367 M330.000 107.355 C 330.990 107.655,333.510 108.032,335.600 108.193 C 337.693 108.354,339.670 108.716,340.000 108.998 C 340.330 109.280,341.230 109.641,342.000 109.800 C 342.770 109.959,343.670 110.319,344.000 110.601 C 344.330 110.883,345.365 111.238,346.300 111.392 C 347.235 111.545,348.000 111.822,348.000 112.008 C 348.000 112.194,348.360 112.460,348.800 112.600 C 349.575 112.846,349.600 113.205,349.600 124.227 C 349.600 135.969,349.481 136.785,348.028 135.034 C 347.377 134.250,342.237 130.800,341.720 130.800 C 341.488 130.800,341.081 130.539,340.816 130.220 C 340.551 129.900,339.494 129.514,338.467 129.361 C 337.440 129.208,336.206 128.825,335.724 128.511 C 334.440 127.673,323.493 127.702,321.577 128.547 C 320.820 128.882,319.543 129.260,318.740 129.388 C 317.937 129.516,317.060 129.886,316.791 130.211 C 316.522 130.535,315.988 130.800,315.605 130.800 C 315.222 130.800,314.477 131.115,313.949 131.500 C 313.422 131.885,312.703 132.380,312.352 132.600 C 310.334 133.862,309.144 134.866,306.896 137.200 C 305.519 138.630,304.279 140.160,304.142 140.600 C 304.005 141.040,303.777 141.490,303.636 141.600 C 303.062 142.050,301.200 146.136,301.200 146.948 C 301.200 147.429,300.885 148.267,300.500 148.811 C 299.467 150.270,299.471 161.978,300.504 163.880 C 300.887 164.584,301.212 165.574,301.227 166.080 C 301.241 166.586,301.781 167.900,302.425 169.000 C 303.070 170.100,303.817 171.450,304.087 172.000 C 304.356 172.550,304.942 173.360,305.389 173.800 C 305.836 174.240,306.562 175.054,307.001 175.608 C 308.138 177.043,312.366 180.400,313.037 180.400 C 313.347 180.400,313.600 180.573,313.600 180.784 C 313.600 180.995,314.322 181.384,315.205 181.649 C 316.087 181.913,317.009 182.370,317.254 182.665 C 317.498 182.959,318.315 183.200,319.069 183.200 C 319.823 183.200,321.016 183.515,321.720 183.900 C 322.778 184.479,324.040 184.600,329.000 184.600 C 333.960 184.600,335.222 184.479,336.280 183.900 C 336.984 183.515,338.096 183.200,338.752 183.200 C 339.407 183.200,340.199 182.943,340.513 182.630 C 340.827 182.316,341.695 181.770,342.442 181.415 C 344.918 180.241,346.000 179.561,346.000 179.178 C 346.000 178.970,346.239 178.800,346.530 178.800 C 346.822 178.800,347.483 178.350,348.000 177.800 C 348.517 177.250,349.088 176.800,349.270 176.800 C 349.451 176.800,349.600 181.915,349.600 188.167 L 349.600 199.535 348.300 200.319 C 347.585 200.750,346.343 201.219,345.540 201.362 C 344.737 201.505,343.860 201.886,343.591 202.211 C 343.322 202.535,342.629 202.801,342.051 202.802 C 341.473 202.804,340.460 203.099,339.800 203.459 C 339.046 203.869,337.003 204.226,334.304 204.418 C 331.942 204.586,329.118 204.952,328.029 205.231 C 326.453 205.635,325.604 205.639,323.865 205.250 C 322.663 204.981,319.817 204.607,317.540 204.420 C 315.148 204.223,312.893 203.810,312.200 203.442 C 311.540 203.092,310.504 202.804,309.899 202.802 C 309.293 202.801,308.125 202.440,307.304 202.000 C 306.484 201.560,305.516 201.200,305.155 201.200 C 304.794 201.200,304.289 200.948,304.033 200.639 C 303.777 200.331,303.094 199.960,302.515 199.814 C 301.937 199.669,301.020 199.202,300.478 198.775 C 299.936 198.349,299.353 198.000,299.182 198.000 C 298.669 198.000,295.600 195.883,295.600 195.529 C 295.600 195.348,295.339 195.200,295.020 195.200 C 294.701 195.200,294.296 194.975,294.120 194.700 C 293.944 194.425,292.962 193.562,291.939 192.781 C 290.915 192.001,289.115 190.209,287.939 188.798 C 286.762 187.388,285.216 185.597,284.502 184.817 C 283.788 184.038,283.203 183.168,283.202 182.884 C 283.201 182.600,282.878 181.880,282.484 181.284 C 280.526 178.321,278.882 174.930,278.549 173.170 C 278.406 172.416,278.059 171.350,277.778 170.800 C 274.841 165.048,274.830 147.548,277.761 142.000 C 278.051 141.450,278.406 140.384,278.549 139.630 C 278.882 137.870,280.526 134.479,282.484 131.516 C 282.878 130.920,283.200 130.195,283.200 129.905 C 283.200 129.615,283.515 129.080,283.900 128.716 C 284.285 128.353,285.230 127.278,286.000 126.327 C 287.597 124.357,292.580 119.394,294.161 118.200 C 294.743 117.760,295.441 117.220,295.710 117.000 C 296.148 116.642,297.943 115.478,300.200 114.087 C 300.640 113.816,301.450 113.396,302.000 113.154 C 302.550 112.912,303.270 112.552,303.600 112.354 C 303.930 112.156,304.650 111.798,305.200 111.558 C 305.750 111.319,306.740 110.877,307.400 110.578 C 308.060 110.278,309.320 109.912,310.200 109.765 C 311.080 109.617,312.250 109.257,312.800 108.964 C 313.350 108.671,315.600 108.245,317.800 108.018 C 320.000 107.791,322.340 107.440,323.000 107.237 C 324.796 106.686,327.971 106.739,330.000 107.355 M75.100 131.022 C 74.584 131.557,74.760 132.200,75.280 131.680 C 76.607 130.353,92.821 132.006,96.306 133.824 C 96.907 134.138,97.651 134.396,97.959 134.398 C 98.266 134.399,99.526 135.067,100.759 135.883 C 120.000 148.617,114.693 174.815,91.800 180.104 C 87.265 181.151,75.712 181.584,75.111 180.728 C 74.818 180.312,74.774 180.328,74.902 180.800 C 75.145 181.691,87.819 181.878,90.423 181.029 C 91.426 180.702,93.046 180.315,94.023 180.170 C 95.000 180.024,96.163 179.680,96.606 179.405 C 97.049 179.130,97.994 178.777,98.706 178.621 C 99.418 178.464,100.000 178.162,100.000 177.948 C 100.000 177.734,100.597 177.310,101.326 177.005 C 102.888 176.353,108.400 171.098,108.400 170.262 C 108.400 169.945,108.670 169.582,109.000 169.455 C 109.330 169.329,109.600 168.974,109.600 168.666 C 109.600 168.359,109.937 167.679,110.348 167.154 C 110.759 166.629,111.232 165.570,111.399 164.800 C 111.566 164.030,111.949 163.045,112.251 162.611 C 112.653 162.034,112.800 160.315,112.800 156.200 C 112.800 152.085,112.653 150.366,112.251 149.789 C 111.949 149.355,111.573 148.406,111.415 147.681 C 111.107 146.263,109.270 143.200,108.729 143.200 C 108.548 143.200,108.400 142.858,108.400 142.440 C 108.400 141.638,103.113 136.441,101.265 135.425 C 98.321 133.806,94.667 132.400,93.406 132.400 C 92.831 132.400,91.784 132.100,91.080 131.733 C 89.695 131.012,75.709 130.390,75.100 131.022 " stroke="none" fill="#7c8c94" fill-rule="evenodd"></path><path id="path4" d="M150.014 106.374 C 149.378 107.562,149.443 205.683,150.080 206.320 C 150.588 206.828,173.289 207.048,174.567 206.557 C 175.402 206.237,175.552 106.912,174.720 106.080 C 173.785 105.145,150.524 105.422,150.014 106.374 M49.843 106.633 C 49.239 108.205,49.582 205.888,50.193 206.394 C 51.176 207.210,91.791 206.783,93.400 205.940 C 94.060 205.594,95.680 205.193,97.000 205.050 C 99.503 204.777,102.279 204.001,105.000 202.813 C 108.799 201.155,113.671 198.584,114.272 197.920 C 114.631 197.524,115.068 197.200,115.244 197.200 C 116.330 197.200,125.883 188.577,127.493 186.145 C 127.764 185.735,128.439 184.717,128.993 183.882 C 129.547 183.047,130.000 182.220,130.000 182.044 C 130.000 181.868,130.360 181.398,130.800 181.000 C 131.240 180.602,131.600 180.062,131.600 179.800 C 131.600 179.538,131.960 178.998,132.400 178.600 C 132.840 178.202,133.200 177.386,133.200 176.787 C 133.200 176.188,133.465 175.478,133.789 175.209 C 134.114 174.940,134.494 174.063,134.634 173.260 C 134.775 172.457,135.127 171.421,135.416 170.958 C 137.579 167.497,138.681 150.565,137.037 146.050 C 136.687 145.087,136.400 143.937,136.400 143.494 C 136.400 143.050,136.051 141.948,135.625 141.044 C 135.199 140.140,134.744 138.743,134.615 137.940 C 134.485 137.137,134.114 136.260,133.789 135.991 C 133.465 135.722,133.200 135.175,133.200 134.775 C 133.200 134.375,133.035 133.945,132.832 133.820 C 132.630 133.695,131.788 132.382,130.960 130.902 C 129.256 127.855,129.369 128.009,126.400 124.693 C 122.350 120.170,119.137 117.410,115.504 115.336 C 115.057 115.081,114.581 114.721,114.446 114.536 C 114.094 114.054,110.799 112.480,109.500 112.173 C 108.895 112.030,108.400 111.760,108.400 111.573 C 108.400 111.385,107.635 111.009,106.700 110.736 C 105.765 110.462,104.889 110.078,104.753 109.881 C 104.616 109.684,103.446 109.280,102.153 108.983 C 99.884 108.462,97.990 108.000,94.600 107.141 C 90.918 106.208,87.680 106.066,69.343 106.034 C 52.132 106.004,50.060 106.067,49.843 106.633 M218.415 106.793 C 217.214 107.237,215.728 107.600,215.114 107.600 C 214.500 107.600,213.325 107.960,212.504 108.400 C 211.684 108.840,210.705 109.200,210.330 109.200 C 209.954 109.200,209.534 109.383,209.396 109.606 C 209.258 109.829,208.521 110.273,207.759 110.592 C 206.996 110.910,206.095 111.447,205.757 111.785 C 205.419 112.123,204.888 112.400,204.577 112.400 C 203.753 112.400,197.447 118.794,196.776 120.310 C 196.462 121.019,196.083 121.600,195.933 121.600 C 195.784 121.600,195.441 122.275,195.170 123.100 C 194.900 123.925,194.453 124.960,194.178 125.400 C 193.573 126.366,192.681 131.831,192.676 134.600 C 192.669 139.235,193.782 143.158,196.193 147.000 C 198.147 150.114,205.764 155.824,209.071 156.653 C 209.583 156.782,210.670 157.228,211.486 157.644 C 212.302 158.060,213.246 158.406,213.585 158.413 C 213.923 158.420,214.549 158.690,214.976 159.013 C 215.404 159.336,216.036 159.600,216.382 159.600 C 216.729 159.600,217.639 159.936,218.406 160.347 C 219.173 160.757,220.430 161.230,221.200 161.398 C 221.970 161.565,222.955 161.949,223.389 162.251 C 223.823 162.553,224.499 162.800,224.890 162.800 C 225.282 162.800,226.275 163.160,227.096 163.600 C 227.916 164.040,228.841 164.400,229.150 164.400 C 229.459 164.400,230.542 164.784,231.556 165.254 C 232.570 165.724,233.836 166.309,234.369 166.554 C 238.152 168.293,241.558 175.391,239.709 177.683 C 239.480 177.967,239.158 178.828,238.993 179.596 C 238.555 181.640,235.396 185.600,234.204 185.600 C 233.940 185.600,233.410 185.947,233.026 186.371 C 232.643 186.795,231.580 187.264,230.664 187.414 C 229.749 187.564,227.936 187.955,226.635 188.283 C 224.095 188.924,215.440 187.771,214.000 186.601 C 213.670 186.333,212.812 185.916,212.094 185.675 C 209.911 184.943,203.600 179.593,203.600 178.474 C 203.600 177.078,200.517 176.040,199.517 177.100 C 199.154 177.485,198.587 178.019,198.259 178.287 C 187.721 186.878,186.779 187.942,188.300 189.531 C 188.685 189.934,190.169 191.509,191.597 193.031 C 194.281 195.893,197.689 198.800,198.360 198.800 C 198.570 198.800,198.986 199.025,199.282 199.300 C 200.170 200.123,202.326 201.587,203.294 202.025 C 203.792 202.250,204.650 202.694,205.200 203.011 C 205.750 203.329,206.622 203.591,207.138 203.594 C 207.654 203.597,208.554 203.854,209.138 204.165 C 213.463 206.468,231.041 207.670,234.800 205.920 C 235.570 205.561,237.094 205.146,238.186 204.996 C 239.278 204.847,240.533 204.472,240.975 204.163 C 241.417 203.853,242.053 203.597,242.389 203.593 C 242.943 203.587,244.686 202.739,248.446 200.646 C 249.190 200.231,249.944 199.646,250.120 199.346 C 250.296 199.046,250.645 198.800,250.896 198.800 C 251.598 198.800,257.604 192.473,258.249 191.055 C 258.562 190.365,259.327 188.900,259.948 187.800 C 260.569 186.700,261.211 185.080,261.374 184.200 C 261.538 183.320,261.880 182.347,262.136 182.039 C 262.766 181.277,262.781 167.951,262.152 167.162 C 261.906 166.853,261.576 165.890,261.419 165.021 C 261.262 164.153,260.789 163.004,260.367 162.467 C 259.945 161.931,259.600 161.303,259.600 161.072 C 259.600 160.043,255.183 155.444,252.631 153.815 C 250.103 152.201,249.771 152.008,248.527 151.417 C 247.827 151.084,247.150 150.643,247.023 150.437 C 246.895 150.230,246.270 149.947,245.634 149.808 C 244.998 149.668,243.792 149.204,242.954 148.777 C 242.116 148.350,241.078 148.000,240.647 148.000 C 240.216 148.000,239.579 147.748,239.231 147.440 C 238.884 147.132,237.970 146.693,237.200 146.464 C 234.729 145.731,232.228 144.804,231.200 144.241 C 230.650 143.939,229.570 143.562,228.800 143.402 C 228.030 143.242,227.130 142.884,226.800 142.606 C 226.470 142.328,225.543 141.984,224.740 141.840 C 223.937 141.696,223.060 141.314,222.791 140.989 C 222.522 140.665,222.038 140.400,221.714 140.400 C 221.125 140.400,219.885 139.547,217.505 137.502 C 216.185 136.369,215.485 132.465,216.143 129.906 C 216.787 127.403,221.345 124.260,225.254 123.624 C 226.487 123.423,228.236 123.060,229.141 122.816 C 231.833 122.091,239.829 124.211,242.370 126.324 C 247.475 130.570,247.718 130.621,250.027 127.944 C 251.002 126.812,252.084 125.597,252.431 125.244 C 252.778 124.890,254.018 123.430,255.186 122.000 C 256.355 120.570,257.555 119.256,257.855 119.080 C 259.620 118.044,256.564 113.600,254.087 113.600 C 253.866 113.600,253.588 113.347,253.470 113.038 C 253.351 112.728,252.714 112.357,252.055 112.212 C 251.395 112.067,250.650 111.702,250.400 111.400 C 250.150 111.098,249.372 110.730,248.672 110.581 C 247.973 110.433,247.130 110.081,246.800 109.800 C 246.470 109.519,245.603 109.162,244.873 109.007 C 244.143 108.852,243.063 108.473,242.473 108.165 C 241.883 107.857,240.719 107.604,239.887 107.602 C 239.055 107.601,237.705 107.301,236.887 106.935 C 234.398 105.823,221.312 105.722,218.415 106.793 M318.205 106.297 C 317.328 106.386,316.428 106.610,316.205 106.793 C 315.982 106.976,314.740 107.321,313.445 107.560 C 312.150 107.798,310.881 108.167,310.625 108.379 C 310.370 108.591,309.359 108.887,308.380 109.036 C 307.401 109.185,306.330 109.531,306.000 109.806 C 305.670 110.081,304.950 110.438,304.400 110.600 C 303.850 110.762,303.130 111.129,302.800 111.416 C 302.470 111.703,301.690 112.065,301.068 112.220 C 300.445 112.376,299.848 112.730,299.742 113.007 C 299.636 113.284,299.065 113.613,298.474 113.738 C 297.883 113.863,296.715 114.603,295.878 115.383 C 295.040 116.162,294.250 116.800,294.121 116.800 C 293.424 116.800,288.443 121.404,286.741 123.621 C 286.159 124.379,285.112 125.630,284.415 126.400 C 283.717 127.170,282.587 128.790,281.903 130.000 C 281.220 131.210,280.332 132.629,279.930 133.154 C 279.529 133.679,279.200 134.422,279.200 134.805 C 279.200 135.188,278.949 135.710,278.642 135.965 C 278.335 136.220,277.962 137.078,277.813 137.873 C 277.664 138.667,277.306 139.696,277.018 140.158 C 276.730 140.621,276.379 141.778,276.238 142.728 C 276.097 143.679,275.691 144.900,275.335 145.443 C 274.240 147.115,274.417 165.538,275.553 168.000 C 276.009 168.990,276.386 170.255,276.391 170.811 C 276.396 171.367,276.655 172.186,276.967 172.631 C 277.279 173.077,277.658 174.100,277.809 174.906 C 277.960 175.712,278.335 176.580,278.642 176.835 C 278.949 177.090,279.200 177.636,279.200 178.049 C 279.200 178.462,279.542 179.142,279.961 179.561 C 280.379 179.979,280.852 180.734,281.012 181.238 C 281.995 184.336,292.353 196.000,294.121 196.000 C 294.250 196.000,295.032 196.620,295.858 197.377 C 296.685 198.134,297.818 198.868,298.377 199.009 C 298.935 199.149,299.484 199.396,299.596 199.559 C 299.995 200.137,307.512 203.600,308.368 203.600 C 308.848 203.600,309.726 203.849,310.320 204.153 C 310.914 204.457,312.210 204.835,313.200 204.994 C 314.190 205.153,315.990 205.543,317.200 205.860 C 320.301 206.672,330.540 206.681,334.200 205.875 C 335.740 205.536,337.801 205.148,338.780 205.012 C 339.759 204.876,340.773 204.588,341.034 204.372 C 341.294 204.156,342.383 203.728,343.454 203.421 C 347.206 202.345,349.653 201.362,350.019 200.784 C 350.651 199.784,350.500 176.690,349.856 175.809 C 349.256 174.989,349.370 174.933,346.600 177.410 C 345.720 178.196,344.460 179.098,343.800 179.412 C 343.140 179.727,342.330 180.153,342.000 180.360 C 336.569 183.766,323.719 184.414,318.130 181.564 C 317.306 181.144,316.421 180.800,316.164 180.800 C 315.908 180.800,315.489 180.548,315.233 180.239 C 314.977 179.931,314.320 179.566,313.773 179.429 C 313.227 179.292,312.442 178.869,312.030 178.490 C 311.618 178.110,310.678 177.366,309.940 176.836 C 307.000 174.721,302.612 167.957,302.002 164.600 C 301.842 163.720,301.398 161.507,301.016 159.683 C 299.325 151.616,303.626 140.889,310.884 135.070 C 313.323 133.115,319.403 130.007,320.830 129.986 C 321.364 129.978,322.880 129.711,324.200 129.392 C 328.280 128.407,336.949 129.338,339.349 131.019 C 339.805 131.339,340.470 131.600,340.827 131.600 C 341.184 131.600,341.802 131.960,342.200 132.400 C 342.598 132.840,343.211 133.203,343.562 133.206 C 344.124 133.211,346.349 134.948,348.531 137.084 C 350.189 138.709,350.400 137.272,350.400 124.324 C 350.400 111.436,350.292 110.800,348.094 110.800 C 347.706 110.800,346.716 110.440,345.896 110.000 C 345.075 109.560,344.177 109.199,343.901 109.198 C 343.626 109.196,342.862 108.915,342.205 108.572 C 341.084 107.987,337.719 107.129,333.600 106.376 C 331.795 106.047,321.197 105.992,318.205 106.297 M92.000 107.348 C 96.968 108.297,102.424 109.620,103.800 110.209 C 105.347 110.872,108.293 112.172,110.700 113.255 C 112.263 113.958,116.019 116.259,118.769 118.199 C 119.081 118.420,121.195 120.400,123.466 122.600 C 127.307 126.321,128.577 127.864,129.884 130.400 C 130.167 130.950,130.757 131.940,131.193 132.600 C 132.352 134.352,134.017 138.016,134.284 139.400 C 134.410 140.060,134.777 141.122,135.098 141.760 C 135.814 143.181,137.044 149.870,137.386 154.200 C 137.660 157.664,136.101 168.714,135.183 169.821 C 134.929 170.127,134.567 170.967,134.380 171.689 C 133.592 174.720,132.288 177.767,130.988 179.617 C 130.225 180.703,129.600 181.678,129.600 181.783 C 129.600 183.647,116.797 196.800,114.983 196.800 C 114.883 196.800,113.946 197.406,112.901 198.147 C 111.855 198.888,109.830 199.986,108.400 200.588 C 106.970 201.189,105.080 202.007,104.200 202.406 C 102.687 203.093,99.503 203.894,92.200 205.425 C 87.941 206.319,51.592 206.824,50.604 206.003 C 49.948 205.459,49.647 107.286,50.300 106.634 C 50.924 106.009,88.345 106.650,92.000 107.348 M174.800 156.157 C 174.800 201.160,174.740 205.938,174.167 206.157 C 172.891 206.647,150.988 206.428,150.480 205.920 C 149.956 205.396,149.745 107.188,150.267 106.667 C 150.413 106.520,155.993 106.400,162.667 106.400 L 174.800 106.400 174.800 156.157 M236.879 107.634 C 241.077 108.448,244.187 109.310,246.200 110.217 C 246.860 110.514,248.480 111.243,249.800 111.837 C 252.785 113.179,257.314 116.241,257.655 117.148 C 257.896 117.789,256.243 119.917,249.437 127.729 L 247.756 129.658 244.978 127.498 C 233.952 118.924,216.475 121.223,215.386 131.391 C 214.773 137.120,217.282 139.763,226.600 143.200 C 227.920 143.687,229.540 144.311,230.200 144.587 C 232.078 145.371,235.698 146.707,236.800 147.022 C 237.350 147.179,238.155 147.554,238.589 147.854 C 239.023 148.154,239.656 148.400,239.995 148.400 C 240.334 148.400,241.284 148.760,242.104 149.200 C 242.925 149.640,243.864 150.000,244.190 150.000 C 244.808 150.000,247.996 151.639,250.902 153.451 C 255.782 156.495,260.128 161.840,261.126 166.024 C 261.359 167.001,261.759 168.610,262.015 169.600 C 263.173 174.086,261.378 184.737,258.778 188.800 C 258.567 189.130,258.170 189.850,257.897 190.400 C 256.957 192.291,252.413 197.172,250.240 198.625 C 249.603 199.051,248.613 199.709,248.040 200.088 C 245.128 202.012,238.208 204.795,236.313 204.804 C 235.811 204.807,234.500 205.083,233.400 205.418 C 225.353 207.871,206.810 204.453,200.200 199.299 C 199.980 199.128,198.876 198.400,197.747 197.682 C 196.038 196.596,193.340 194.048,188.684 189.125 C 187.634 188.014,188.377 187.200,196.642 180.403 C 198.379 178.974,200.022 177.534,200.294 177.203 C 200.778 176.612,203.422 178.821,204.626 180.822 C 205.945 183.016,211.789 186.576,216.743 188.206 C 221.411 189.742,230.652 188.927,233.554 186.724 C 234.079 186.326,234.691 186.000,234.915 186.000 C 235.703 186.000,238.516 182.577,239.516 180.400 C 242.736 173.397,238.968 166.829,230.106 163.994 C 229.498 163.799,227.740 163.166,226.200 162.587 C 224.660 162.007,222.680 161.296,221.800 161.006 C 220.920 160.716,219.660 160.192,219.000 159.842 C 218.340 159.492,217.573 159.204,217.295 159.202 C 217.017 159.201,216.477 159.026,216.095 158.813 C 215.713 158.601,214.140 157.947,212.600 157.360 C 200.096 152.595,194.570 146.868,193.630 137.699 C 193.187 133.384,193.734 127.892,194.816 125.768 C 195.247 124.923,195.600 124.013,195.600 123.747 C 195.600 121.670,202.244 114.391,206.194 112.141 C 215.543 106.813,225.272 105.384,236.879 107.634 M331.000 106.812 C 332.100 107.012,334.426 107.371,336.168 107.609 C 337.910 107.847,340.106 108.393,341.046 108.821 C 341.987 109.249,342.887 109.600,343.047 109.600 C 343.721 109.600,348.658 111.738,349.306 112.311 C 350.153 113.060,350.211 135.997,349.366 136.278 C 349.128 136.357,348.048 135.729,346.966 134.883 C 341.290 130.437,335.589 128.400,328.825 128.400 C 324.702 128.400,318.432 129.606,317.200 130.636 C 316.870 130.912,316.112 131.259,315.516 131.408 C 314.920 131.557,314.223 131.931,313.967 132.239 C 313.711 132.548,313.324 132.800,313.107 132.800 C 312.596 132.800,308.987 135.761,307.271 137.586 C 296.682 148.856,298.193 168.681,310.349 177.975 C 321.236 186.297,336.751 186.188,347.163 177.717 C 350.058 175.362,349.987 175.093,349.994 188.438 C 350.001 201.169,350.107 200.671,347.200 201.538 C 346.430 201.768,344.000 202.594,341.800 203.375 C 339.600 204.155,337.170 204.795,336.400 204.797 C 335.630 204.799,333.470 205.071,331.600 205.400 C 326.578 206.285,314.693 205.441,312.020 204.011 C 311.625 203.799,310.424 203.434,309.351 203.199 C 307.425 202.778,305.168 201.925,304.000 201.178 C 303.670 200.967,302.950 200.596,302.400 200.354 C 301.850 200.112,301.130 199.750,300.800 199.549 C 300.470 199.348,299.588 198.904,298.839 198.561 C 297.214 197.818,290.217 192.346,288.800 190.712 C 283.432 184.518,282.331 182.905,279.447 177.000 C 278.288 174.628,276.709 169.953,275.530 165.400 C 274.992 163.325,274.989 149.937,275.525 147.600 C 275.953 145.736,276.683 143.247,277.814 139.800 C 278.534 137.605,279.911 134.679,281.390 132.200 C 281.915 131.320,282.610 130.060,282.933 129.400 C 283.256 128.740,283.944 127.749,284.460 127.199 C 284.977 126.648,286.389 125.028,287.598 123.599 C 288.806 122.169,289.910 120.910,290.051 120.800 C 290.192 120.690,290.892 120.150,291.607 119.600 C 292.322 119.050,293.219 118.330,293.600 118.000 C 296.000 115.923,299.209 113.821,301.600 112.759 C 302.150 112.514,302.870 112.162,303.200 111.975 C 305.005 110.952,308.088 109.647,309.259 109.410 C 309.997 109.261,311.320 108.888,312.200 108.582 C 313.627 108.085,318.964 107.063,322.200 106.667 C 324.547 106.379,329.030 106.453,331.000 106.812 M75.280 131.680 C 74.713 132.247,74.584 179.840,75.147 180.728 C 76.107 182.242,92.016 180.659,97.200 178.534 C 113.475 171.863,117.584 150.965,104.939 139.175 C 102.701 137.087,98.775 134.401,97.959 134.398 C 97.651 134.396,96.907 134.138,96.306 133.824 C 92.821 132.006,76.607 130.353,75.280 131.680 M87.984 132.648 C 89.185 132.952,90.941 133.200,91.885 133.200 C 92.839 133.200,94.267 133.556,95.096 134.000 C 95.916 134.440,96.862 134.800,97.197 134.800 C 98.203 134.800,102.861 138.013,105.000 140.183 C 109.585 144.832,111.758 149.982,111.758 156.200 C 111.758 160.694,110.977 163.764,109.013 167.000 C 108.478 167.880,107.868 168.960,107.656 169.400 C 106.626 171.538,99.565 177.306,97.323 177.841 C 96.705 177.988,95.750 178.346,95.200 178.636 C 94.650 178.926,92.760 179.357,91.000 179.595 C 89.240 179.832,86.900 180.189,85.800 180.389 C 84.700 180.589,81.955 180.763,79.700 180.776 L 75.600 180.800 75.600 156.181 L 75.600 131.561 80.700 131.829 C 83.505 131.976,86.783 132.345,87.984 132.648 " stroke="none" fill="#8c9ca2" fill-rule="evenodd"></path></g></svg>