<svg id="svg" version="1.1" xmlns="http://www.w3.org/2000/svg" width="400" height="177.79999999999998" viewBox="0, 0, 400,177.79999999999998"><g id="svgg"><path id="path0" d="M92.788 3.136 C 92.747 3.177,86.977 3.208,79.965 3.204 C 69.377 3.198,66.894 3.243,65.312 3.472 C 64.263 3.623,63.086 3.786,62.695 3.835 C 60.860 4.061,59.404 4.329,59.404 4.440 C 59.404 4.507,59.164 4.527,58.871 4.484 C 58.574 4.441,58.337 4.487,58.337 4.588 C 58.337 4.689,57.997 4.825,57.581 4.891 C 57.165 4.957,56.065 5.213,55.136 5.460 C 54.206 5.707,53.286 5.952,53.090 6.004 C 52.895 6.056,52.637 6.174,52.519 6.267 C 52.400 6.360,51.536 6.699,50.599 7.021 C 49.661 7.344,48.758 7.720,48.591 7.859 C 48.425 7.997,47.848 8.300,47.310 8.533 C 46.772 8.766,46.052 9.163,45.709 9.416 C 45.367 9.669,44.860 9.992,44.582 10.134 C 44.305 10.276,43.902 10.555,43.687 10.754 C 43.473 10.953,43.256 11.116,43.206 11.116 C 43.065 11.116,42.024 11.935,41.205 12.690 C 40.797 13.067,40.283 13.496,40.064 13.643 C 39.845 13.791,39.709 13.983,39.763 14.070 C 39.817 14.157,39.736 14.229,39.584 14.229 C 39.431 14.229,39.306 14.299,39.306 14.385 C 39.306 14.472,38.977 14.872,38.574 15.275 C 38.171 15.678,37.888 16.007,37.946 16.007 C 38.003 16.007,37.769 16.287,37.427 16.630 C 37.085 16.972,36.850 17.252,36.906 17.252 C 36.962 17.252,36.835 17.432,36.624 17.652 C 36.131 18.166,35.573 19.058,35.572 19.334 C 35.572 19.452,35.371 19.748,35.127 19.993 C 34.882 20.237,34.682 20.544,34.682 20.674 C 34.682 20.805,34.361 21.528,33.969 22.281 C 33.303 23.560,33.028 24.355,32.476 26.601 C 32.354 27.096,32.190 27.605,32.112 27.732 C 32.034 27.858,31.813 28.734,31.623 29.677 C 31.432 30.620,31.118 32.112,30.925 32.992 C 30.733 33.873,30.564 34.793,30.552 35.038 C 30.539 35.282,30.458 35.530,30.371 35.588 C 30.285 35.647,30.180 36.047,30.138 36.478 C 30.096 36.908,29.816 38.422,29.515 39.840 C 29.214 41.258,28.959 42.635,28.947 42.898 C 28.936 43.162,28.861 43.338,28.780 43.288 C 28.700 43.239,28.625 43.383,28.612 43.609 C 28.584 44.111,28.530 44.474,28.309 45.620 C 28.214 46.109,27.969 47.390,27.764 48.466 C 27.559 49.542,27.315 50.622,27.223 50.867 C 27.130 51.112,26.888 52.232,26.686 53.357 C 25.878 57.834,25.723 58.607,25.616 58.693 C 25.555 58.742,25.369 59.542,25.203 60.471 C 25.037 61.401,24.858 62.401,24.805 62.695 C 24.752 62.988,24.590 63.908,24.444 64.740 C 24.298 65.571,24.102 66.412,24.009 66.607 C 23.847 66.946,22.849 72.163,22.640 73.766 C 22.586 74.182,22.466 74.522,22.373 74.522 C 22.281 74.522,22.229 74.744,22.257 75.015 C 22.285 75.286,22.217 75.747,22.105 76.038 C 21.928 76.497,21.762 77.361,21.421 79.591 C 21.257 80.662,20.957 81.912,20.773 82.291 C 20.669 82.505,20.632 82.805,20.691 82.958 C 20.750 83.112,20.736 83.237,20.660 83.237 C 20.584 83.237,20.337 84.297,20.112 85.594 C 19.887 86.890,19.632 88.230,19.545 88.573 C 19.459 88.915,19.388 89.415,19.387 89.684 C 19.387 89.953,19.296 90.173,19.186 90.173 C 19.058 90.173,19.025 90.368,19.095 90.716 C 19.155 91.017,19.133 91.215,19.045 91.160 C 18.958 91.106,18.829 91.483,18.760 91.996 C 18.690 92.510,18.599 93.090,18.557 93.286 C 18.514 93.482,18.308 94.602,18.098 95.776 C 17.888 96.950,17.661 97.950,17.595 97.999 C 17.490 98.076,17.353 98.695,17.145 100.044 C 16.854 101.921,16.129 105.619,16.007 105.848 C 15.865 106.115,15.587 107.449,15.399 108.759 C 15.357 109.053,15.277 109.493,15.220 109.738 C 15.163 109.982,14.994 110.863,14.843 111.694 C 14.692 112.526,14.482 113.381,14.375 113.594 C 14.268 113.808,14.229 114.108,14.288 114.261 C 14.347 114.414,14.323 114.540,14.234 114.540 C 14.145 114.540,14.078 114.680,14.085 114.851 C 14.092 115.022,14.042 115.402,13.976 115.696 C 13.824 116.363,13.359 118.866,13.233 119.698 C 13.181 120.040,13.049 120.640,12.940 121.032 C 12.831 121.423,12.726 121.883,12.707 122.054 C 12.688 122.225,12.656 122.386,12.636 122.410 C 12.617 122.434,12.576 122.574,12.545 122.721 C 12.515 122.868,12.441 123.228,12.380 123.522 C 12.320 123.815,12.063 125.216,11.808 126.634 C 11.554 128.052,11.284 129.253,11.207 129.302 C 11.131 129.351,11.025 129.711,10.972 130.102 C 10.772 131.579,9.755 136.876,9.606 137.217 C 9.462 137.547,8.784 141.020,8.338 143.708 C 8.233 144.344,8.083 144.990,8.004 145.144 C 7.871 145.406,7.426 147.463,7.199 148.866 C 6.962 150.333,6.920 150.570,6.850 150.823 C 6.810 150.969,6.727 151.439,6.667 151.867 C 6.607 152.294,6.485 152.774,6.396 152.934 C 6.307 153.093,5.946 154.824,5.593 156.781 C 5.240 158.737,4.882 160.498,4.797 160.694 C 4.661 161.008,4.066 164.048,3.856 165.499 C 3.700 166.583,3.338 168.174,3.162 168.547 C 3.063 168.758,3.036 169.018,3.102 169.125 C 3.168 169.232,3.139 169.320,3.036 169.320 C 2.934 169.320,2.853 169.500,2.856 169.720 C 2.860 169.940,2.745 170.680,2.602 171.365 C 2.260 173.003,2.148 173.659,2.013 174.814 L 1.901 175.773 167.736 175.646 C 314.481 175.533,333.806 175.488,335.616 175.249 C 336.741 175.101,337.941 174.945,338.284 174.904 C 339.189 174.795,339.419 174.747,339.618 174.627 C 339.715 174.567,340.396 174.423,341.129 174.306 C 342.940 174.016,346.175 173.216,346.299 173.027 C 346.392 172.885,348.053 172.354,348.555 172.305 C 348.677 172.294,348.777 172.204,348.777 172.106 C 348.777 172.008,348.826 171.977,348.886 172.037 C 348.992 172.143,350.378 171.669,350.556 171.466 C 350.669 171.337,351.336 171.015,352.232 170.658 C 353.214 170.266,355.714 168.768,355.714 168.572 C 355.714 168.483,355.779 168.450,355.860 168.500 C 355.940 168.549,356.135 168.454,356.292 168.288 C 356.749 167.805,357.107 167.541,357.307 167.541 C 357.409 167.541,357.492 167.461,357.492 167.363 C 357.492 167.265,357.592 167.185,357.715 167.185 C 358.274 167.185,363.895 160.918,363.895 160.295 C 363.895 160.199,364.093 159.829,364.334 159.473 C 364.576 159.117,364.722 158.826,364.659 158.826 C 364.596 158.826,364.706 158.646,364.903 158.426 C 365.100 158.206,365.447 157.546,365.674 156.959 C 365.901 156.372,366.171 155.731,366.274 155.536 C 366.377 155.340,366.471 155.140,366.483 155.091 C 366.494 155.042,366.599 154.771,366.716 154.489 C 366.833 154.207,366.948 153.846,366.973 153.689 C 366.998 153.531,367.080 153.301,367.157 153.179 C 367.233 153.057,367.248 152.957,367.190 152.957 C 367.132 152.957,367.158 152.817,367.249 152.646 C 367.339 152.474,367.467 151.937,367.532 151.451 C 367.597 150.965,367.718 150.485,367.801 150.384 C 367.885 150.283,368.016 149.800,368.094 149.311 C 368.172 148.822,368.244 148.382,368.254 148.333 C 368.264 148.284,368.327 148.004,368.392 147.710 C 368.458 147.417,368.546 146.976,368.587 146.732 C 368.670 146.237,369.010 144.381,369.135 143.739 C 369.179 143.511,369.275 143.150,369.348 142.938 C 369.421 142.726,369.491 142.432,369.504 142.285 C 369.517 142.139,369.578 141.899,369.640 141.752 C 369.701 141.605,370.030 140.044,370.370 138.284 C 370.710 136.523,371.189 134.125,371.433 132.955 C 371.677 131.785,371.919 130.545,371.969 130.198 C 372.159 128.899,372.436 127.600,372.598 127.257 C 372.690 127.061,373.053 125.300,373.404 123.344 C 373.755 121.387,374.131 119.612,374.240 119.398 C 374.348 119.184,374.394 118.848,374.342 118.651 C 374.291 118.453,374.313 118.268,374.392 118.239 C 374.471 118.210,374.827 116.545,375.183 114.540 C 375.539 112.534,375.904 110.734,375.995 110.538 C 376.087 110.342,376.444 108.622,376.790 106.714 C 377.135 104.807,377.496 103.086,377.592 102.890 C 377.687 102.695,377.801 102.254,377.844 101.912 C 378.021 100.502,379.045 95.392,379.221 95.036 C 379.326 94.825,379.422 94.293,379.435 93.854 C 379.447 93.415,379.513 93.089,379.580 93.130 C 379.648 93.171,379.697 93.063,379.691 92.890 C 379.684 92.716,379.805 91.974,379.958 91.241 C 380.112 90.507,380.276 89.667,380.323 89.373 C 380.510 88.203,380.650 87.578,380.799 87.239 C 380.885 87.043,381.241 85.282,381.590 83.326 C 381.938 81.369,382.274 79.649,382.335 79.502 C 382.396 79.355,382.476 79.075,382.513 78.880 C 382.550 78.684,382.664 78.216,382.765 77.839 C 382.866 77.462,382.907 77.111,382.855 77.060 C 382.803 77.008,382.829 76.836,382.912 76.677 C 382.995 76.519,383.108 76.068,383.161 75.675 C 383.215 75.282,383.384 74.362,383.537 73.630 C 383.690 72.898,383.815 72.125,383.815 71.913 C 383.815 71.701,383.883 71.501,383.967 71.469 C 384.050 71.436,384.415 69.769,384.778 67.763 C 385.140 65.758,385.507 63.957,385.592 63.762 C 385.735 63.435,385.888 62.666,386.781 57.803 C 386.951 56.874,387.142 56.074,387.205 56.025 C 387.267 55.976,387.321 55.816,387.325 55.669 C 387.329 55.522,387.538 54.402,387.789 53.179 C 388.041 51.956,388.334 50.399,388.441 49.718 C 388.548 49.037,388.706 48.395,388.792 48.292 C 388.877 48.189,388.985 47.786,389.031 47.396 C 389.078 47.006,389.163 46.487,389.220 46.243 C 389.278 45.998,389.359 45.598,389.401 45.353 C 389.881 42.566,390.323 40.443,390.443 40.358 C 390.524 40.300,390.618 39.846,390.653 39.348 C 390.687 38.849,390.756 38.376,390.805 38.296 C 390.854 38.216,390.943 37.841,391.003 37.462 C 391.261 35.830,391.856 32.964,392.004 32.637 C 392.093 32.441,392.450 30.680,392.798 28.724 C 393.146 26.767,393.508 25.007,393.602 24.811 C 393.696 24.615,393.809 24.175,393.854 23.833 C 393.900 23.490,394.180 21.977,394.478 20.469 C 394.776 18.961,395.020 17.527,395.020 17.282 C 395.020 17.037,395.077 16.894,395.146 16.963 C 395.247 17.064,395.860 14.171,396.329 11.383 C 396.555 10.042,396.681 9.497,396.803 9.337 C 396.878 9.240,396.981 8.880,397.031 8.537 C 397.082 8.195,397.250 7.276,397.405 6.495 C 397.560 5.715,397.735 4.624,397.793 4.072 L 397.900 3.068 245.382 3.065 C 161.497 3.062,92.830 3.094,92.788 3.136 M363.486 54.841 C 363.435 54.972,363.337 55.553,363.267 56.130 C 363.197 56.708,363.063 57.277,362.969 57.395 C 362.875 57.512,362.854 57.782,362.921 57.995 C 362.996 58.231,362.976 58.340,362.870 58.274 C 362.771 58.213,362.654 58.493,362.601 58.919 C 362.413 60.411,361.554 65.013,361.413 65.282 C 361.333 65.434,360.966 67.395,360.597 69.640 C 360.227 71.885,359.872 73.762,359.806 73.811 C 359.741 73.859,359.508 75.020,359.288 76.390 C 359.069 77.759,358.856 79.080,358.816 79.324 C 358.776 79.569,358.647 80.409,358.529 81.192 C 358.412 81.974,358.243 82.663,358.155 82.723 C 358.067 82.783,358.009 82.884,358.026 82.948 C 358.043 83.012,357.963 83.643,357.849 84.351 C 357.735 85.059,357.612 85.838,357.576 86.083 C 357.118 89.188,356.734 91.396,356.602 91.685 C 356.512 91.881,356.398 92.401,356.348 92.841 C 356.298 93.281,356.137 94.402,355.990 95.331 C 355.514 98.328,354.954 102.516,354.937 103.201 C 354.928 103.568,354.854 103.868,354.773 103.868 C 354.693 103.868,354.658 104.129,354.696 104.446 C 354.733 104.764,354.704 105.145,354.630 105.291 C 354.443 105.660,353.929 111.140,353.932 112.717 L 353.935 114.006 350.134 114.006 L 346.333 114.006 346.469 113.250 C 346.543 112.835,346.658 111.896,346.724 111.164 C 346.790 110.432,346.909 109.792,346.988 109.741 C 347.067 109.690,347.121 109.309,347.109 108.893 C 347.097 108.477,347.130 108.137,347.183 108.137 C 347.235 108.137,347.278 107.977,347.278 107.781 C 347.278 107.586,347.178 107.426,347.056 107.426 C 346.824 107.426,345.933 108.619,345.930 108.934 C 345.929 109.034,345.689 109.304,345.396 109.535 C 345.104 109.766,344.864 110.055,344.864 110.176 C 344.864 110.812,341.190 113.473,340.311 113.473 C 340.174 113.473,340.062 113.566,340.062 113.680 C 340.062 113.794,340.010 113.835,339.945 113.771 C 339.881 113.706,339.719 113.744,339.586 113.854 C 339.324 114.072,338.781 114.194,336.060 114.644 C 333.158 115.125,326.807 114.584,325.857 113.776 C 325.697 113.641,325.087 113.341,324.500 113.110 C 323.677 112.786,323.124 112.378,322.082 111.328 C 320.684 109.918,320.424 109.486,319.288 106.684 C 318.984 105.933,318.363 100.241,318.526 99.689 C 318.555 99.591,318.686 98.350,318.818 96.932 C 319.073 94.180,319.361 92.534,319.650 92.175 C 319.748 92.053,319.787 91.793,319.735 91.597 C 319.684 91.401,319.698 91.274,319.766 91.317 C 319.834 91.359,320.076 90.698,320.304 89.849 C 320.533 89.001,321.030 87.647,321.409 86.842 C 321.788 86.037,322.099 85.311,322.099 85.229 C 322.099 84.868,324.126 81.157,324.498 80.836 C 324.725 80.640,325.009 80.285,325.130 80.046 C 325.324 79.662,326.058 78.827,327.721 77.101 C 328.327 76.472,329.299 75.767,329.561 75.767 C 329.663 75.767,329.747 75.642,329.747 75.490 C 329.747 75.337,329.821 75.258,329.912 75.315 C 330.003 75.371,330.119 75.350,330.170 75.268 C 330.628 74.527,336.981 72.135,338.367 72.182 C 338.560 72.188,338.776 72.099,338.847 71.983 C 339.042 71.669,346.694 71.706,347.076 72.023 C 347.243 72.161,347.564 72.212,347.876 72.150 C 348.162 72.093,348.422 72.108,348.453 72.184 C 348.509 72.318,352.342 73.331,352.433 73.235 C 352.489 73.177,352.596 72.499,352.959 69.898 C 353.116 68.773,353.317 67.692,353.404 67.497 C 353.492 67.301,353.853 65.020,354.205 62.428 C 354.558 59.835,354.919 57.474,355.008 57.181 C 355.096 56.888,355.222 56.187,355.288 55.625 L 355.407 54.602 359.492 54.602 C 362.839 54.602,363.561 54.645,363.486 54.841 M108.158 55.536 C 108.628 55.756,108.982 56.026,108.945 56.137 C 108.907 56.247,109.045 56.548,109.251 56.804 C 110.153 57.925,109.450 62.040,108.157 63.210 C 107.955 63.393,107.834 63.614,107.888 63.701 C 107.941 63.788,107.908 63.837,107.814 63.811 C 107.719 63.784,107.482 63.944,107.287 64.166 C 106.458 65.110,103.454 65.387,101.991 64.655 C 100.734 64.026,100.399 63.167,100.547 60.942 C 100.632 59.655,101.159 57.312,101.193 58.070 C 101.197 58.168,101.369 57.908,101.575 57.492 C 101.781 57.076,102.021 56.736,102.108 56.736 C 102.196 56.736,102.269 56.636,102.270 56.514 C 102.281 55.456,106.492 54.756,108.158 55.536 M56.472 56.870 C 56.402 57.432,56.279 58.015,56.200 58.164 C 56.040 58.464,55.680 60.326,55.587 61.336 C 55.554 61.692,55.513 61.983,55.496 61.983 C 55.436 61.983,55.311 62.699,55.014 64.740 C 54.851 65.865,54.658 66.826,54.585 66.876 C 54.513 66.925,54.472 67.225,54.494 67.543 C 54.516 67.860,54.480 68.119,54.414 68.119 C 54.348 68.119,54.245 68.459,54.184 68.875 C 53.854 71.115,52.998 75.807,52.885 75.989 C 52.711 76.271,52.282 79.198,52.398 79.314 C 52.582 79.498,61.988 79.668,67.763 79.592 C 71.040 79.549,75.003 79.511,76.570 79.508 L 79.418 79.502 79.845 76.434 C 80.080 74.747,80.332 73.325,80.406 73.276 C 80.479 73.226,80.584 72.746,80.639 72.209 C 80.848 70.146,81.888 63.934,82.040 63.831 C 82.128 63.771,82.176 63.571,82.145 63.386 C 82.115 63.201,82.160 62.938,82.246 62.800 C 82.360 62.619,82.339 62.590,82.170 62.695 C 82.002 62.798,81.979 62.770,82.089 62.592 C 82.173 62.456,82.263 62.224,82.290 62.075 C 82.613 60.248,82.868 58.685,83.051 57.403 L 83.274 55.847 87.950 55.847 C 92.527 55.847,93.473 55.969,92.682 56.458 C 92.603 56.507,92.439 57.170,92.319 57.931 C 92.097 59.336,91.672 61.513,91.493 62.161 C 91.387 62.548,90.753 66.098,90.636 66.963 C 90.349 69.094,90.139 70.170,89.971 70.371 C 89.864 70.500,89.812 70.846,89.855 71.140 C 89.898 71.433,89.888 71.628,89.832 71.572 C 89.776 71.516,89.437 73.178,89.077 75.264 C 88.718 77.350,88.344 79.378,88.246 79.769 C 88.149 80.160,88.026 80.760,87.974 81.103 C 87.564 83.805,87.450 84.507,87.251 85.549 C 87.205 85.794,87.118 86.391,87.059 86.877 C 87.000 87.363,86.870 87.858,86.771 87.978 C 86.672 88.098,86.614 88.341,86.643 88.518 C 86.672 88.695,86.642 88.926,86.575 89.032 C 86.509 89.138,86.419 89.658,86.376 90.188 C 86.333 90.718,86.255 91.272,86.202 91.418 C 86.149 91.565,86.064 92.045,86.012 92.486 C 85.960 92.926,85.840 93.766,85.745 94.353 C 85.651 94.940,85.523 95.815,85.463 96.297 C 85.402 96.779,85.313 97.238,85.265 97.316 C 85.168 97.473,85.006 98.338,84.921 99.155 C 84.890 99.449,84.852 99.689,84.836 99.689 C 84.770 99.689,83.563 107.198,83.557 107.648 C 83.554 107.917,83.479 108.137,83.391 108.137 C 83.303 108.137,83.238 108.357,83.246 108.626 C 83.254 108.895,83.098 110.116,82.899 111.338 C 82.699 112.561,82.534 113.662,82.531 113.784 C 82.527 113.956,81.458 114.006,77.793 114.006 L 73.060 114.006 73.158 113.428 C 73.212 113.110,73.353 112.210,73.470 111.427 C 73.587 110.645,73.759 109.908,73.851 109.791 C 73.943 109.673,73.968 109.420,73.907 109.228 C 73.846 109.035,73.872 108.832,73.964 108.775 C 74.056 108.718,74.189 108.171,74.258 107.559 C 74.328 106.948,74.420 106.287,74.462 106.092 C 74.505 105.896,74.753 104.495,75.013 102.979 C 75.274 101.463,75.537 100.182,75.597 100.133 C 75.658 100.084,75.847 99.164,76.017 98.088 C 76.187 97.012,76.360 95.932,76.402 95.687 C 76.444 95.442,76.604 94.482,76.756 93.553 C 76.909 92.623,77.120 91.689,77.224 91.476 C 77.329 91.263,77.375 90.885,77.328 90.636 C 77.280 90.388,77.301 90.221,77.373 90.266 C 77.446 90.311,77.562 89.928,77.632 89.416 C 77.701 88.903,77.784 88.364,77.816 88.217 C 78.191 86.499,78.299 85.192,78.088 84.937 C 77.883 84.691,76.400 84.660,64.748 84.660 L 51.639 84.660 51.447 85.060 C 51.261 85.451,50.806 87.593,50.608 89.017 C 50.389 90.592,50.287 91.209,50.035 92.486 C 49.889 93.219,49.751 94.026,49.726 94.278 C 49.701 94.530,49.638 94.810,49.585 94.900 C 49.533 94.991,49.434 95.465,49.366 95.954 C 49.299 96.443,49.212 97.043,49.173 97.288 C 48.721 100.139,48.380 102.465,48.345 102.935 C 48.321 103.253,48.249 103.513,48.186 103.513 C 48.122 103.513,48.084 103.693,48.100 103.913 C 48.117 104.133,48.074 104.393,48.005 104.491 C 47.935 104.589,47.617 106.510,47.297 108.759 C 46.977 111.009,46.645 112.898,46.558 112.955 C 46.472 113.013,46.416 113.133,46.432 113.222 C 46.584 114.027,46.709 114.006,41.773 114.006 L 37.126 114.006 37.259 113.072 C 37.435 111.828,37.489 111.509,37.613 110.983 C 37.670 110.738,37.893 109.498,38.109 108.226 C 38.325 106.954,38.568 105.865,38.651 105.806 C 38.733 105.747,38.781 105.586,38.758 105.450 C 38.735 105.314,38.764 105.082,38.822 104.936 C 38.881 104.789,39.179 103.188,39.486 101.378 C 39.792 99.569,40.115 97.928,40.202 97.732 C 40.434 97.214,40.763 95.175,40.646 94.984 C 40.591 94.895,40.618 94.778,40.706 94.723 C 40.793 94.669,40.959 93.988,41.072 93.210 C 41.186 92.432,41.317 91.610,41.364 91.384 C 41.410 91.159,41.498 90.614,41.558 90.173 C 41.618 89.733,41.732 89.290,41.811 89.189 C 41.890 89.087,42.247 87.046,42.605 84.653 C 42.962 82.260,43.337 80.128,43.438 79.914 C 43.539 79.701,43.578 79.410,43.524 79.269 C 43.469 79.127,43.492 78.942,43.573 78.857 C 43.655 78.771,43.763 78.301,43.813 77.812 C 44.017 75.842,44.892 70.159,45.005 70.076 C 45.072 70.027,45.113 69.692,45.097 69.331 C 45.081 68.970,45.120 68.707,45.183 68.746 C 45.246 68.785,45.401 68.000,45.527 67.001 C 45.654 66.002,45.779 65.064,45.805 64.918 C 45.831 64.771,45.911 64.211,45.983 63.673 C 46.055 63.135,46.135 62.574,46.161 62.428 C 46.187 62.281,46.266 61.721,46.336 61.183 C 46.407 60.645,46.544 60.105,46.641 59.983 C 46.739 59.861,46.776 59.601,46.725 59.405 C 46.674 59.209,46.704 59.004,46.793 58.949 C 46.882 58.894,46.954 58.681,46.954 58.475 C 46.954 58.268,47.042 57.593,47.150 56.973 L 47.346 55.847 51.973 55.847 L 56.599 55.847 56.472 56.870 M279.146 71.842 C 280.222 71.930,281.263 72.043,281.458 72.095 C 281.654 72.146,282.598 72.355,283.557 72.559 C 285.546 72.984,286.701 73.400,287.002 73.800 C 287.116 73.952,287.257 74.029,287.315 73.972 C 287.581 73.705,290.107 76.565,289.880 76.877 C 289.862 76.902,289.937 77.092,290.048 77.299 C 290.493 78.131,290.319 82.897,289.724 86.172 C 289.421 87.835,289.159 89.395,289.140 89.640 C 289.122 89.884,289.051 90.126,288.984 90.177 C 288.917 90.228,288.816 90.668,288.761 91.155 C 288.705 91.642,288.579 92.521,288.480 93.108 C 288.262 94.400,288.187 94.877,287.943 96.487 C 287.840 97.172,287.677 97.892,287.582 98.088 C 287.487 98.284,287.377 98.924,287.337 99.511 C 287.298 100.098,287.253 100.578,287.238 100.578 C 286.975 100.578,285.980 109.580,285.947 112.272 L 285.925 114.006 282.402 114.006 L 278.880 114.006 278.880 113.021 C 278.880 112.139,279.103 109.550,279.312 108.004 C 279.427 107.160,279.029 107.263,278.287 108.270 C 277.945 108.735,277.421 109.348,277.122 109.631 C 276.824 109.915,276.630 110.236,276.691 110.343 C 276.752 110.450,276.741 110.483,276.666 110.415 C 276.591 110.348,276.318 110.492,276.059 110.736 C 275.209 111.538,273.472 112.707,272.521 113.115 C 272.008 113.336,271.587 113.591,271.587 113.683 C 271.587 113.774,271.507 113.800,271.410 113.739 C 271.312 113.679,271.232 113.714,271.232 113.818 C 271.232 113.921,271.106 114.006,270.952 114.006 C 270.798 114.006,270.018 114.161,269.218 114.351 C 267.195 114.830,263.048 114.972,261.094 114.629 C 259.281 114.310,257.494 113.859,257.366 113.689 C 257.228 113.506,255.934 112.776,255.358 112.557 C 255.089 112.455,254.868 112.279,254.868 112.166 C 254.868 112.053,254.607 111.678,254.290 111.331 C 253.448 110.413,252.593 108.570,252.455 107.379 C 252.390 106.815,252.267 106.310,252.180 106.257 C 251.974 106.129,251.976 101.781,252.182 101.704 C 252.270 101.672,252.387 101.205,252.442 100.667 C 252.497 100.129,252.621 99.427,252.716 99.107 C 252.811 98.788,252.905 98.468,252.924 98.396 C 253.117 97.658,253.608 96.582,254.017 95.998 C 254.205 95.729,254.316 95.509,254.263 95.509 C 254.118 95.509,255.014 94.282,256.052 93.057 C 256.556 92.462,257.007 92.015,257.054 92.062 C 257.102 92.110,257.297 91.950,257.488 91.707 C 257.679 91.464,258.228 91.048,258.709 90.781 C 259.189 90.515,259.622 90.246,259.671 90.183 C 259.807 90.008,261.961 89.002,262.561 88.833 C 262.635 88.812,262.735 88.775,262.783 88.751 C 262.882 88.701,262.889 88.699,263.762 88.498 C 264.104 88.419,264.469 88.286,264.573 88.202 C 264.678 88.119,265.278 87.924,265.907 87.769 C 266.537 87.615,267.172 87.458,267.319 87.422 C 267.466 87.385,270.831 87.349,274.797 87.341 L 282.009 87.328 282.315 85.505 C 282.896 82.052,282.430 78.791,281.356 78.791 C 281.279 78.791,281.105 78.679,280.969 78.543 C 279.519 77.093,273.488 76.587,267.863 77.444 C 265.241 77.844,262.768 78.315,262.695 78.430 C 262.588 78.595,260.721 79.011,260.606 78.895 C 260.527 78.817,261.555 73.811,261.760 73.277 C 261.816 73.130,261.849 72.950,261.833 72.877 C 261.818 72.803,262.546 72.741,263.450 72.738 C 264.355 72.735,265.696 72.650,266.430 72.550 C 267.823 72.359,269.194 72.237,270.479 72.192 C 270.897 72.177,271.282 72.095,271.335 72.009 C 271.387 71.924,272.006 71.844,272.709 71.832 C 273.413 71.820,274.549 71.760,275.233 71.699 C 275.918 71.637,276.639 71.609,276.834 71.635 C 277.030 71.661,278.070 71.754,279.146 71.842 M138.649 72.040 C 138.781 72.150,139.063 72.184,139.276 72.117 C 139.511 72.042,139.620 72.062,139.555 72.168 C 139.495 72.264,139.744 72.389,140.110 72.447 C 140.475 72.505,140.899 72.577,141.052 72.609 C 142.068 72.816,144.779 74.438,145.322 75.161 C 145.644 75.592,145.994 75.945,146.098 75.946 C 146.202 75.947,146.480 76.247,146.715 76.613 C 146.951 76.979,147.376 77.619,147.660 78.035 C 147.944 78.450,148.122 78.791,148.055 78.791 C 147.988 78.791,148.018 78.892,148.121 79.016 C 148.224 79.140,148.441 79.801,148.603 80.484 C 148.765 81.166,148.944 81.845,148.999 81.992 C 149.054 82.139,149.122 82.499,149.150 82.792 C 149.177 83.086,149.257 83.646,149.327 84.037 C 149.515 85.087,149.514 88.198,149.324 89.017 C 149.234 89.409,149.154 90.101,149.147 90.557 C 149.139 91.012,149.085 91.355,149.026 91.318 C 148.967 91.282,148.822 91.950,148.704 92.802 C 148.455 94.600,147.964 96.615,147.735 96.779 C 147.647 96.841,147.638 96.994,147.715 97.117 C 147.796 97.250,147.782 97.298,147.680 97.235 C 147.547 97.153,147.137 98.257,147.000 99.066 C 146.967 99.259,146.171 101.278,146.058 101.456 C 145.991 101.560,145.929 101.685,145.919 101.734 C 145.827 102.184,144.610 104.722,144.455 104.788 C 144.378 104.820,144.066 105.294,143.761 105.840 C 143.455 106.386,142.658 107.415,141.989 108.125 C 141.321 108.836,140.742 109.503,140.704 109.608 C 140.610 109.866,139.640 110.805,139.467 110.805 C 139.391 110.805,139.174 110.947,138.984 111.120 C 138.795 111.294,138.359 111.572,138.017 111.739 C 137.675 111.905,137.474 112.045,137.572 112.050 C 137.729 112.057,137.095 112.375,134.371 113.653 C 132.936 114.326,129.208 114.992,126.189 115.114 C 125.978 115.123,122.928 114.736,122.543 114.652 C 122.234 114.584,121.858 114.448,120.814 114.024 C 119.892 113.649,117.559 111.442,117.419 110.812 C 117.026 109.035,116.234 109.448,115.969 111.569 C 115.844 112.567,115.668 113.475,115.579 113.587 C 115.490 113.699,115.434 113.859,115.456 113.943 C 115.478 114.027,115.429 114.535,115.347 115.073 C 115.163 116.288,115.192 116.082,114.627 120.142 C 114.368 122.001,114.077 123.686,113.981 123.887 C 113.884 124.088,113.824 124.328,113.847 124.421 C 113.870 124.513,113.836 124.869,113.773 125.211 C 113.590 126.195,113.487 126.925,113.194 129.302 C 113.044 130.525,112.882 131.785,112.833 132.103 L 112.745 132.681 108.662 132.681 C 106.417 132.681,104.582 132.621,104.584 132.548 C 104.587 132.474,104.661 132.094,104.750 131.703 C 104.839 131.312,104.963 130.631,105.026 130.191 C 105.089 129.751,105.247 128.871,105.376 128.235 C 105.662 126.834,105.905 125.176,105.854 124.976 C 105.833 124.895,105.909 124.886,106.022 124.956 C 106.167 125.046,106.204 124.921,106.148 124.534 C 106.103 124.232,106.130 124.024,106.206 124.071 C 106.283 124.118,106.344 123.934,106.344 123.661 C 106.342 123.232,106.636 121.590,107.851 115.251 C 107.991 114.518,108.146 113.677,108.195 113.384 C 108.310 112.701,109.028 108.312,109.084 107.959 C 109.107 107.812,109.180 107.605,109.247 107.498 C 109.347 107.338,109.980 103.713,110.347 101.201 C 110.397 100.858,110.525 100.178,110.631 99.689 C 110.737 99.200,110.846 98.679,110.873 98.533 C 110.900 98.386,110.973 98.026,111.034 97.732 C 111.096 97.439,111.190 96.899,111.242 96.532 C 111.295 96.165,111.388 95.565,111.449 95.198 C 111.509 94.831,111.750 93.370,111.984 91.952 C 112.218 90.534,112.454 89.173,112.510 88.928 C 112.624 88.421,112.623 88.426,113.114 85.193 C 113.315 83.873,113.517 82.552,113.562 82.259 C 113.608 81.965,113.699 81.285,113.764 80.747 C 113.829 80.209,113.945 79.727,114.021 79.677 C 114.097 79.626,114.197 79.106,114.242 78.521 C 114.287 77.936,114.369 77.337,114.423 77.190 C 114.517 76.937,115.073 73.282,115.073 72.916 C 115.073 72.810,116.452 72.743,118.631 72.743 C 122.013 72.743,122.417 72.798,122.014 73.201 C 121.919 73.296,121.812 73.733,121.775 74.170 C 121.739 74.608,121.664 75.087,121.608 75.233 C 121.365 75.869,121.311 76.465,121.486 76.573 C 121.701 76.706,123.077 75.853,123.077 75.587 C 123.077 75.490,123.137 75.427,123.210 75.447 C 123.284 75.467,123.835 75.167,124.436 74.780 C 126.532 73.430,127.745 72.877,129.124 72.640 C 129.466 72.581,129.772 72.465,129.803 72.381 C 129.833 72.298,129.972 72.273,130.110 72.326 C 130.249 72.380,130.784 72.296,131.299 72.141 C 132.902 71.658,138.102 71.586,138.649 72.040 M179.102 71.865 C 180.530 72.043,180.772 72.086,181.325 72.257 C 181.521 72.318,181.961 72.410,182.303 72.462 C 182.646 72.514,183.186 72.633,183.504 72.727 C 183.822 72.820,184.082 72.863,184.082 72.823 C 184.082 72.691,186.828 74.363,187.239 74.746 C 187.459 74.950,187.639 75.056,187.639 74.980 C 187.639 74.904,187.999 75.322,188.439 75.907 C 188.880 76.493,189.240 77.036,189.240 77.114 C 189.240 77.192,189.403 77.430,189.603 77.642 C 189.802 77.855,190.004 78.260,190.050 78.543 C 190.097 78.826,190.214 79.441,190.310 79.911 C 190.632 81.486,190.505 85.121,190.032 87.861 C 189.853 88.895,189.703 90.094,189.737 90.218 C 189.757 90.291,189.700 90.351,189.610 90.351 C 189.519 90.351,189.394 90.586,189.331 90.872 L 189.217 91.394 175.192 91.450 C 167.479 91.482,161.128 91.547,161.080 91.596 C 161.031 91.645,160.938 92.204,160.874 92.839 C 160.809 93.474,160.662 94.106,160.547 94.245 C 160.402 94.419,160.338 95.594,160.338 98.071 C 160.338 101.430,160.378 102.050,160.611 102.268 C 160.663 102.317,160.814 102.793,160.947 103.326 C 161.306 104.763,162.769 107.070,163.322 107.070 C 163.410 107.070,163.615 107.232,163.778 107.429 C 164.066 107.780,166.444 108.848,166.937 108.848 C 167.074 108.848,167.185 108.937,167.185 109.045 C 167.185 109.154,167.305 109.196,167.452 109.140 C 167.599 109.083,167.719 109.115,167.719 109.210 C 167.719 109.427,176.196 109.445,176.330 109.228 C 176.383 109.143,176.627 109.113,176.874 109.160 C 177.121 109.207,177.323 109.172,177.323 109.082 C 177.323 108.992,177.944 108.816,178.702 108.691 C 180.377 108.416,182.481 107.804,182.481 107.592 C 182.481 107.506,182.601 107.483,182.748 107.539 C 182.895 107.595,183.015 107.553,183.015 107.445 C 183.015 107.336,183.201 107.248,183.430 107.248 C 183.658 107.248,183.900 107.193,183.967 107.126 C 184.096 106.996,185.379 106.527,185.435 106.589 C 185.453 106.609,185.305 107.426,185.105 108.404 C 184.906 109.382,184.745 110.362,184.749 110.582 C 184.753 110.803,184.681 110.983,184.589 110.983 C 184.497 110.983,184.440 111.083,184.463 111.205 C 184.485 111.327,184.443 111.762,184.368 112.172 C 184.224 112.963,184.220 112.965,182.659 113.208 C 181.744 113.350,180.322 113.621,179.813 113.751 C 170.131 116.219,158.857 114.615,155.359 110.273 C 155.163 110.030,154.862 109.689,154.691 109.517 C 154.520 109.345,154.380 109.133,154.380 109.045 C 154.380 108.958,154.277 108.847,154.151 108.799 C 154.025 108.750,153.696 108.061,153.419 107.268 C 153.143 106.474,152.851 105.825,152.771 105.825 C 152.690 105.825,152.661 105.625,152.705 105.380 C 152.750 105.136,152.715 104.936,152.629 104.936 C 151.881 104.936,151.901 94.576,152.649 94.066 C 152.737 94.007,152.794 93.905,152.775 93.840 C 152.756 93.776,152.830 93.225,152.940 92.615 C 153.051 92.006,153.167 91.347,153.199 91.152 C 153.311 90.468,153.884 88.386,154.154 87.683 C 154.210 87.537,154.265 87.337,154.274 87.239 C 154.284 87.141,154.381 86.901,154.488 86.705 C 154.720 86.285,155.658 83.823,155.638 83.687 C 155.631 83.635,155.788 83.430,155.987 83.231 C 156.186 83.031,156.301 82.791,156.243 82.697 C 156.185 82.603,156.227 82.526,156.336 82.526 C 156.446 82.526,156.486 82.446,156.425 82.348 C 156.365 82.250,156.392 82.170,156.486 82.170 C 156.580 82.170,156.735 81.950,156.830 81.681 C 157.138 80.812,160.605 76.483,160.605 76.967 C 160.605 77.015,160.921 76.784,161.307 76.455 C 162.737 75.235,164.803 73.988,165.395 73.988 C 165.511 73.988,165.557 73.909,165.497 73.813 C 165.435 73.712,165.506 73.682,165.664 73.743 C 165.816 73.801,165.940 73.768,165.940 73.669 C 165.940 73.379,168.272 72.723,170.253 72.456 C 170.718 72.393,171.098 72.292,171.098 72.231 C 171.098 72.171,171.318 72.103,171.587 72.080 C 171.856 72.058,172.597 71.970,173.233 71.885 C 174.815 71.673,177.495 71.664,179.102 71.865 M219.008 71.997 C 219.118 72.080,219.707 72.294,220.317 72.473 C 221.278 72.755,221.414 72.847,221.345 73.171 C 221.300 73.376,221.225 73.824,221.178 74.166 C 221.131 74.509,221.012 75.189,220.914 75.678 C 220.718 76.656,220.560 77.807,220.549 78.323 C 220.544 78.594,220.494 78.616,220.283 78.441 C 220.141 78.323,219.941 78.278,219.839 78.341 C 219.737 78.404,219.653 78.378,219.653 78.282 C 219.653 77.447,212.877 77.568,212.183 78.415 C 212.134 78.475,211.544 78.804,210.871 79.146 C 210.198 79.489,209.574 79.930,209.483 80.127 C 209.393 80.323,209.088 80.617,208.806 80.779 C 208.524 80.940,208.076 81.420,207.811 81.844 C 207.545 82.268,207.263 82.657,207.183 82.710 C 207.104 82.762,206.748 83.362,206.394 84.044 C 206.039 84.725,205.676 85.370,205.588 85.477 C 205.500 85.583,205.480 85.723,205.545 85.788 C 205.609 85.852,205.584 85.905,205.490 85.905 C 205.235 85.905,204.563 87.967,204.262 89.676 C 204.206 89.994,204.097 90.295,204.020 90.347 C 203.942 90.398,203.833 90.720,203.776 91.063 C 203.719 91.405,203.427 93.064,203.126 94.749 C 202.825 96.435,202.579 98.015,202.579 98.262 C 202.579 98.509,202.510 98.711,202.425 98.711 C 202.341 98.711,202.274 98.891,202.276 99.111 C 202.278 99.331,202.232 99.631,202.174 99.778 C 202.055 100.080,200.793 108.472,200.744 109.293 C 200.726 109.586,200.663 109.867,200.603 109.916 C 200.502 109.999,200.275 112.448,200.269 113.517 L 200.267 114.006 196.162 114.006 L 192.057 114.006 192.153 113.517 C 192.206 113.248,192.340 112.508,192.449 111.872 C 192.559 111.236,192.720 110.556,192.808 110.360 C 192.895 110.165,193.014 109.644,193.072 109.204 C 193.242 107.915,193.292 107.617,193.490 106.743 C 193.700 105.812,193.986 104.181,194.150 102.979 C 194.209 102.539,194.328 102.093,194.413 101.988 C 194.498 101.883,194.854 100.042,195.204 97.897 C 195.554 95.752,195.909 93.870,195.992 93.715 C 196.075 93.559,196.201 92.959,196.271 92.381 C 196.341 91.803,196.431 91.169,196.470 90.974 C 196.538 90.635,196.934 88.038,197.148 86.527 C 197.204 86.136,197.316 85.396,197.397 84.882 C 197.479 84.369,197.498 83.947,197.439 83.946 C 197.380 83.944,197.430 83.881,197.549 83.805 C 197.668 83.729,197.807 83.310,197.858 82.874 C 197.909 82.438,198.190 80.440,198.483 78.435 C 198.775 76.430,199.033 74.529,199.055 74.211 C 199.077 73.893,199.158 73.633,199.236 73.633 C 199.314 73.633,199.378 73.433,199.378 73.188 L 199.378 72.743 202.846 72.743 C 205.501 72.743,206.314 72.796,206.315 72.966 C 206.318 73.529,205.710 77.111,205.598 77.190 C 205.529 77.239,205.396 77.819,205.302 78.479 C 205.096 79.928,205.338 80.075,206.093 78.959 C 207.526 76.840,209.202 74.940,210.182 74.323 C 210.500 74.123,210.760 73.904,210.760 73.837 C 210.760 73.620,213.542 72.294,213.847 72.365 C 213.931 72.384,214.098 72.318,214.219 72.218 C 214.340 72.117,214.490 72.086,214.552 72.148 C 214.614 72.210,214.767 72.177,214.891 72.074 C 215.369 71.682,218.509 71.623,219.008 71.997 M247.825 72.031 C 247.923 72.129,248.448 72.212,248.991 72.215 C 249.909 72.220,252.564 72.506,252.652 72.609 C 252.714 72.681,252.365 75.114,252.250 75.411 C 252.194 75.558,252.125 75.838,252.097 76.034 C 252.069 76.229,252.010 76.590,251.967 76.834 C 251.924 77.079,251.828 77.623,251.754 78.044 C 251.619 78.810,250.798 79.019,250.398 78.390 C 250.335 78.292,250.183 78.274,250.059 78.351 C 249.926 78.433,249.878 78.418,249.943 78.313 C 250.398 77.577,240.540 76.727,237.795 77.267 C 236.963 77.430,236.083 77.603,235.838 77.650 C 234.895 77.833,234.129 78.147,233.646 78.550 C 233.369 78.780,233.047 78.968,232.930 78.968 C 232.611 78.968,230.147 81.419,230.147 81.736 C 230.147 81.809,229.963 82.117,229.738 82.420 C 229.513 82.723,229.103 83.490,228.826 84.126 C 228.549 84.762,228.224 85.402,228.105 85.549 C 227.873 85.834,227.026 88.430,226.829 89.462 C 226.764 89.804,226.611 90.245,226.490 90.440 C 226.368 90.636,226.226 91.156,226.173 91.596 C 226.120 92.036,225.950 93.277,225.795 94.353 C 225.312 97.702,225.626 103.812,226.305 104.266 C 226.420 104.343,226.427 104.400,226.323 104.405 C 226.225 104.409,226.267 104.511,226.415 104.630 C 226.564 104.749,226.838 105.190,227.024 105.611 C 227.353 106.353,227.864 107.070,228.064 107.070 C 228.118 107.070,228.470 107.374,228.845 107.746 C 229.291 108.187,229.838 108.508,230.416 108.667 C 230.904 108.801,231.356 108.991,231.422 109.089 C 231.546 109.275,232.496 109.368,235.705 109.508 C 236.756 109.554,237.617 109.522,237.617 109.436 C 237.617 109.351,237.837 109.291,238.106 109.303 C 238.375 109.315,238.875 109.251,239.217 109.162 C 239.741 109.025,241.150 108.720,242.686 108.412 C 243.244 108.300,245.116 107.622,245.334 107.452 C 245.827 107.070,246.687 106.902,246.687 107.188 C 246.687 108.494,245.801 112.769,245.523 112.802 C 245.430 112.814,244.993 112.935,244.553 113.073 C 244.113 113.210,243.513 113.364,243.219 113.414 C 242.926 113.464,242.659 113.578,242.626 113.668 C 242.593 113.757,242.500 113.789,242.419 113.739 C 242.337 113.689,242.044 113.736,241.767 113.843 C 241.198 114.063,241.241 114.056,237.319 114.540 C 231.719 115.232,227.439 114.836,224.207 113.328 C 223.434 112.967,222.781 112.712,222.756 112.761 C 222.730 112.810,222.536 112.630,222.324 112.361 C 222.113 112.092,221.812 111.872,221.656 111.872 C 221.500 111.872,221.424 111.820,221.487 111.757 C 221.550 111.694,221.144 111.146,220.583 110.539 C 218.945 108.767,217.804 106.217,217.508 103.669 C 217.075 99.943,217.649 91.783,218.413 90.796 C 218.559 90.608,218.976 89.204,219.021 88.747 C 219.035 88.599,219.094 88.399,219.152 88.303 C 219.209 88.207,219.314 87.848,219.384 87.506 C 219.455 87.163,219.708 86.489,219.946 86.008 C 220.185 85.527,220.337 85.023,220.285 84.888 C 220.233 84.752,220.257 84.682,220.337 84.732 C 220.500 84.832,221.076 83.731,221.076 83.320 C 221.076 83.176,221.239 82.896,221.438 82.697 C 221.637 82.498,221.753 82.258,221.695 82.163 C 221.636 82.069,221.666 81.992,221.762 81.992 C 221.857 81.992,222.220 81.482,222.568 80.859 C 223.173 79.777,223.757 78.989,224.552 78.182 C 225.596 77.122,227.323 75.589,227.473 75.589 C 227.567 75.589,227.734 75.422,227.843 75.218 C 227.952 75.014,228.083 74.889,228.133 74.939 C 228.184 74.990,228.606 74.796,229.072 74.510 C 229.538 74.223,230.005 73.988,230.109 73.988 C 230.214 73.988,230.418 73.869,230.564 73.724 C 231.021 73.267,235.753 72.113,238.239 71.853 C 239.994 71.669,247.604 71.810,247.825 72.031 M320.397 71.951 C 320.684 72.100,321.029 72.181,321.163 72.129 C 321.296 72.078,321.357 72.115,321.297 72.212 C 321.237 72.309,321.313 72.398,321.466 72.410 C 321.737 72.432,321.964 72.478,322.232 72.564 C 322.305 72.588,322.437 72.594,322.525 72.578 C 322.694 72.546,322.641 73.058,322.135 76.300 C 321.817 78.338,321.496 78.869,320.998 78.176 C 320.560 77.565,313.393 77.790,313.382 78.415 C 313.381 78.475,313.051 78.681,312.650 78.874 C 312.249 79.066,311.881 79.326,311.833 79.451 C 311.785 79.576,311.680 79.637,311.599 79.587 C 311.519 79.538,311.147 79.778,310.773 80.121 C 310.399 80.464,310.034 80.746,309.962 80.746 C 309.890 80.747,309.620 81.087,309.363 81.503 C 309.105 81.919,308.684 82.491,308.427 82.775 C 308.170 83.060,308.079 83.226,308.226 83.145 C 308.373 83.064,308.283 83.212,308.028 83.473 C 307.772 83.735,307.419 84.329,307.244 84.793 C 307.068 85.258,306.870 85.678,306.803 85.727 C 306.656 85.835,306.132 87.243,306.008 87.861 C 305.960 88.106,305.797 88.746,305.646 89.284 C 305.496 89.822,305.358 90.437,305.339 90.650 C 305.320 90.863,305.250 91.003,305.184 90.962 C 305.117 90.921,305.021 91.147,304.970 91.464 C 304.130 96.663,303.715 99.042,303.595 99.333 C 303.459 99.661,303.402 100.006,303.149 102.001 C 303.099 102.392,303.021 102.912,302.976 103.157 C 302.930 103.402,302.715 104.882,302.498 106.447 C 302.281 108.012,302.060 109.333,302.008 109.382 C 301.898 109.484,301.824 110.233,301.704 112.450 L 301.620 114.006 297.542 114.006 C 294.794 114.006,293.464 113.945,293.464 113.818 C 293.464 113.332,293.893 111.061,294.000 110.983 C 294.066 110.934,294.167 110.614,294.225 110.271 C 295.030 105.500,295.459 103.183,295.590 102.890 C 295.678 102.695,295.834 102.014,295.938 101.378 C 296.221 99.635,296.294 99.182,296.708 96.576 C 296.918 95.256,297.166 94.124,297.258 94.061 C 297.350 93.998,297.386 93.740,297.338 93.488 C 297.290 93.236,297.303 93.062,297.367 93.102 C 297.467 93.164,298.213 88.611,298.560 85.816 C 298.621 85.327,298.744 84.833,298.833 84.720 C 298.923 84.606,299.024 84.125,299.059 83.652 C 299.094 83.179,299.165 82.672,299.216 82.526 C 299.268 82.379,299.356 81.819,299.414 81.281 C 299.511 80.366,299.550 80.089,299.775 78.702 C 299.823 78.408,299.948 77.488,300.052 76.656 C 300.157 75.825,300.328 74.971,300.432 74.759 C 300.537 74.547,300.586 74.126,300.542 73.825 C 300.498 73.524,300.528 73.277,300.609 73.277 C 300.690 73.277,300.756 73.157,300.756 73.010 C 300.756 72.782,301.260 72.743,304.224 72.743 C 306.953 72.743,307.692 72.793,307.692 72.975 C 307.692 73.102,307.481 74.323,307.224 75.687 C 306.539 79.310,306.600 80.119,307.457 78.791 C 308.360 77.393,308.735 76.939,310.149 75.540 C 311.954 73.753,312.927 73.091,314.517 72.569 C 315.189 72.348,315.949 72.057,316.206 71.923 C 316.872 71.575,319.714 71.594,320.397 71.951 M106.858 72.838 C 106.937 72.903,106.229 76.679,105.825 78.346 C 105.443 79.922,104.580 84.782,104.580 85.359 C 104.580 85.561,104.491 85.727,104.382 85.727 C 104.263 85.727,104.215 85.940,104.262 86.261 C 104.305 86.554,104.265 86.794,104.173 86.794 C 104.081 86.794,104.040 87.030,104.083 87.318 C 104.125 87.607,104.103 87.808,104.034 87.765 C 103.965 87.722,103.853 88.136,103.784 88.684 C 103.626 89.954,102.804 94.703,102.542 95.865 C 102.427 96.375,101.812 100.344,101.654 101.593 C 101.546 102.448,101.323 103.604,101.113 104.402 C 101.048 104.647,100.960 105.127,100.916 105.469 C 100.762 106.677,99.932 112.858,99.847 113.428 L 99.762 114.006 95.590 114.006 C 91.639 114.006,91.199 113.956,91.577 113.553 C 91.741 113.377,93.019 106.714,93.019 106.034 C 93.019 105.821,93.105 105.647,93.210 105.647 C 93.315 105.647,93.377 105.467,93.349 105.247 C 93.320 105.027,93.353 104.757,93.421 104.648 C 93.489 104.539,93.587 104.099,93.639 103.670 C 93.864 101.824,94.717 97.367,94.865 97.261 C 94.954 97.198,94.978 96.962,94.920 96.737 C 94.861 96.512,94.887 96.239,94.977 96.130 C 95.068 96.021,95.180 95.656,95.227 95.320 C 95.626 92.450,96.272 88.595,96.403 88.306 C 96.492 88.110,96.852 85.869,97.205 83.326 C 97.557 80.783,97.896 78.582,97.959 78.435 C 98.021 78.288,98.236 76.968,98.436 75.500 L 98.799 72.832 102.090 72.740 C 104.984 72.659,106.682 72.694,106.858 72.838 M172.877 76.852 C 172.877 76.940,172.497 77.012,172.032 77.013 C 170.822 77.014,168.121 77.826,167.627 78.337 C 167.528 78.440,167.208 78.651,166.916 78.807 C 166.624 78.963,166.407 79.189,166.434 79.309 C 166.461 79.430,166.421 79.491,166.345 79.445 C 166.269 79.399,166.104 79.473,165.978 79.610 C 165.852 79.746,165.804 79.858,165.871 79.858 C 165.939 79.858,165.666 80.095,165.265 80.386 C 164.609 80.861,163.984 81.636,164.257 81.636 C 164.316 81.636,164.200 81.867,163.999 82.148 C 163.609 82.696,162.670 84.935,162.461 85.816 C 162.391 86.109,162.254 86.451,162.156 86.576 C 161.798 87.030,162.404 87.062,172.410 87.117 L 182.585 87.174 182.796 85.064 C 183.284 80.179,181.652 77.488,177.946 77.065 C 177.457 77.009,176.976 76.902,176.879 76.828 C 176.626 76.636,172.877 76.659,172.877 76.852 M128.679 77.180 C 128.288 77.247,127.688 77.393,127.345 77.506 C 127.003 77.619,126.521 77.751,126.275 77.799 C 125.821 77.889,124.105 78.933,123.996 79.187 C 123.963 79.262,123.835 79.324,123.712 79.324 C 123.588 79.324,123.199 79.604,122.846 79.947 C 122.494 80.289,122.134 80.569,122.046 80.569 C 121.591 80.569,121.306 81.358,120.955 83.593 C 120.748 84.913,120.504 86.154,120.413 86.349 C 120.270 86.656,120.029 88.037,119.604 90.974 C 119.548 91.365,119.417 92.165,119.314 92.752 C 119.210 93.339,119.091 94.060,119.048 94.353 C 119.005 94.647,118.886 95.102,118.783 95.365 C 118.680 95.628,118.644 95.921,118.703 96.017 C 118.762 96.112,118.739 96.217,118.651 96.250 C 118.129 96.445,117.758 102.519,118.171 104.105 C 118.664 105.999,120.187 108.416,120.950 108.515 C 121.406 108.574,122.045 108.864,122.321 109.137 C 122.924 109.733,128.239 110.033,129.188 109.525 C 129.397 109.413,129.588 109.333,129.612 109.348 C 129.742 109.424,130.725 109.139,130.725 109.025 C 130.725 108.951,131.105 108.795,131.569 108.678 C 132.033 108.561,132.544 108.331,132.703 108.168 C 132.863 108.004,133.216 107.710,133.489 107.514 C 134.533 106.765,135.239 106.159,135.424 105.856 C 135.529 105.683,135.776 105.279,135.972 104.958 C 136.167 104.638,136.477 104.201,136.661 103.989 C 137.020 103.572,138.094 101.376,138.046 101.156 C 138.030 101.083,138.088 101.023,138.176 101.023 C 138.334 101.023,139.015 99.068,139.446 97.377 C 139.571 96.888,139.732 96.407,139.804 96.309 C 139.917 96.155,140.347 94.376,140.598 93.026 C 141.125 90.183,140.842 83.607,140.117 81.855 C 140.006 81.588,139.929 81.309,139.945 81.236 C 139.960 81.163,139.899 81.103,139.807 81.103 C 139.716 81.103,139.588 80.934,139.523 80.728 C 139.170 79.618,136.523 77.660,135.102 77.459 C 134.798 77.415,134.349 77.325,134.104 77.258 C 133.488 77.090,129.547 77.033,128.679 77.180 M338.132 77.538 C 336.687 78.017,335.275 78.743,335.265 79.013 C 335.262 79.086,335.146 79.146,335.006 79.146 C 334.713 79.146,331.877 82.171,331.621 82.757 C 331.526 82.972,331.186 83.500,330.865 83.930 C 330.543 84.359,330.280 84.790,330.280 84.888 C 330.280 84.985,329.961 85.721,329.570 86.524 C 329.159 87.369,328.631 88.914,328.317 90.190 C 328.018 91.404,327.698 92.557,327.606 92.752 C 327.513 92.948,327.444 93.268,327.452 93.464 C 327.461 93.659,327.380 94.300,327.274 94.887 C 326.799 97.510,327.120 103.945,327.785 105.113 C 327.924 105.358,328.229 105.938,328.464 106.403 C 328.698 106.868,328.962 107.204,329.051 107.149 C 329.140 107.094,329.213 107.137,329.213 107.246 C 329.213 107.583,330.153 108.286,331.036 108.610 C 331.501 108.780,331.881 108.991,331.881 109.080 C 331.881 109.169,331.991 109.200,332.126 109.148 C 332.261 109.096,332.447 109.130,332.539 109.222 C 332.692 109.375,333.367 109.514,334.549 109.636 C 335.527 109.737,338.532 109.439,338.600 109.234 C 338.638 109.119,338.746 109.071,338.840 109.129 C 338.934 109.187,339.107 109.158,339.225 109.065 C 339.483 108.860,340.808 108.405,340.996 108.456 C 341.069 108.476,341.129 108.413,341.129 108.315 C 341.129 108.217,341.224 108.137,341.339 108.137 C 341.667 108.137,344.084 106.224,344.436 105.685 C 344.610 105.420,344.864 105.089,345.002 104.952 C 345.436 104.516,346.029 103.461,346.461 102.357 C 346.691 101.770,346.939 101.209,347.012 101.112 C 347.467 100.503,349.526 90.498,349.968 86.753 C 350.022 86.290,350.119 85.944,350.183 85.983 C 350.247 86.023,350.565 84.403,350.890 82.384 C 351.297 79.854,351.419 78.693,351.284 78.648 C 351.176 78.612,351.134 78.507,351.190 78.415 C 351.247 78.323,351.228 78.263,351.147 78.281 C 351.066 78.299,350.880 78.264,350.734 78.205 C 350.382 78.061,348.629 77.580,348.066 77.473 C 347.821 77.426,347.342 77.304,347.000 77.200 C 345.594 76.774,339.769 76.997,338.132 77.538 M268.324 92.238 C 265.017 92.999,261.985 95.396,261.014 98.018 C 260.746 98.741,260.374 99.675,260.188 100.094 C 259.710 101.165,259.745 105.842,260.228 105.543 C 260.313 105.491,260.382 105.566,260.382 105.711 C 260.382 106.487,261.548 107.969,262.517 108.423 C 263.055 108.675,263.695 108.984,263.940 109.109 C 265.263 109.785,269.552 109.819,270.569 109.161 C 270.787 109.020,271.202 108.846,271.492 108.775 C 272.302 108.575,273.544 107.971,273.544 107.777 C 273.544 107.681,273.663 107.603,273.809 107.603 C 274.354 107.603,276.960 105.083,277.330 104.198 C 277.470 103.862,277.700 103.471,277.841 103.328 C 278.116 103.048,278.661 101.607,279.166 99.822 C 279.339 99.211,279.533 98.711,279.596 98.711 C 279.660 98.711,279.806 98.290,279.921 97.777 C 280.035 97.263,280.174 96.643,280.228 96.398 C 280.606 94.702,280.969 92.195,280.853 92.078 C 280.495 91.715,270.013 91.849,268.324 92.238 " stroke="none" fill="#b4141c" fill-rule="evenodd"></path><path id="path1" d="M67.079 3.110 C 67.197 3.228,92.689 3.235,92.807 3.117 C 92.858 3.066,87.071 3.024,79.947 3.024 C 72.822 3.024,67.032 3.063,67.079 3.110 M171.054 3.157 C 175.871 3.183,183.755 3.183,188.573 3.157 C 193.390 3.131,189.449 3.109,179.813 3.109 C 170.178 3.109,166.236 3.131,171.054 3.157 M311.663 3.157 C 316.537 3.183,324.461 3.183,329.271 3.157 C 334.081 3.131,330.093 3.109,320.409 3.109 C 310.725 3.109,306.789 3.131,311.663 3.157 M357.359 54.735 C 358.508 54.766,360.389 54.766,361.538 54.735 C 362.688 54.704,361.747 54.679,359.449 54.679 C 357.150 54.679,356.209 54.704,357.359 54.735 M272.799 91.907 C 274.199 91.937,276.440 91.937,277.779 91.907 C 279.118 91.877,277.972 91.852,275.233 91.852 C 272.494 91.852,271.399 91.877,272.799 91.907 M106.581 132.636 C 107.730 132.667,109.611 132.667,110.760 132.636 C 111.910 132.605,110.969 132.580,108.671 132.580 C 106.372 132.580,105.431 132.605,106.581 132.636 " stroke="none" fill="#b8141c" fill-rule="evenodd"></path><path id="path2" d="M67.079 3.110 C 67.197 3.228,92.689 3.235,92.807 3.117 C 92.858 3.066,87.071 3.024,79.947 3.024 C 72.822 3.024,67.032 3.063,67.079 3.110 M171.054 3.157 C 175.871 3.183,183.755 3.183,188.573 3.157 C 193.390 3.131,189.449 3.109,179.813 3.109 C 170.178 3.109,166.236 3.131,171.054 3.157 M311.663 3.157 C 316.537 3.183,324.461 3.183,329.271 3.157 C 334.081 3.131,330.093 3.109,320.409 3.109 C 310.725 3.109,306.789 3.131,311.663 3.157 M357.359 54.735 C 358.508 54.766,360.389 54.766,361.538 54.735 C 362.688 54.704,361.747 54.679,359.449 54.679 C 357.150 54.679,356.209 54.704,357.359 54.735 M272.799 91.907 C 274.199 91.937,276.440 91.937,277.779 91.907 C 279.118 91.877,277.972 91.852,275.233 91.852 C 272.494 91.852,271.399 91.877,272.799 91.907 M106.581 132.636 C 107.730 132.667,109.611 132.667,110.760 132.636 C 111.910 132.605,110.969 132.580,108.671 132.580 C 106.372 132.580,105.431 132.605,106.581 132.636 " stroke="none" fill="#b8141c" fill-rule="evenodd"></path><path id="path3" d="M67.079 3.110 C 67.197 3.228,92.689 3.235,92.807 3.117 C 92.858 3.066,87.071 3.024,79.947 3.024 C 72.822 3.024,67.032 3.063,67.079 3.110 M171.054 3.157 C 175.871 3.183,183.755 3.183,188.573 3.157 C 193.390 3.131,189.449 3.109,179.813 3.109 C 170.178 3.109,166.236 3.131,171.054 3.157 M311.663 3.157 C 316.537 3.183,324.461 3.183,329.271 3.157 C 334.081 3.131,330.093 3.109,320.409 3.109 C 310.725 3.109,306.789 3.131,311.663 3.157 M357.359 54.735 C 358.508 54.766,360.389 54.766,361.538 54.735 C 362.688 54.704,361.747 54.679,359.449 54.679 C 357.150 54.679,356.209 54.704,357.359 54.735 M272.799 91.907 C 274.199 91.937,276.440 91.937,277.779 91.907 C 279.118 91.877,277.972 91.852,275.233 91.852 C 272.494 91.852,271.399 91.877,272.799 91.907 M106.581 132.636 C 107.730 132.667,109.611 132.667,110.760 132.636 C 111.910 132.605,110.969 132.580,108.671 132.580 C 106.372 132.580,105.431 132.605,106.581 132.636 " stroke="none" fill="#b8141c" fill-rule="evenodd"></path><path id="path4" d="M67.079 3.110 C 67.197 3.228,92.689 3.235,92.807 3.117 C 92.858 3.066,87.071 3.024,79.947 3.024 C 72.822 3.024,67.032 3.063,67.079 3.110 M171.054 3.157 C 175.871 3.183,183.755 3.183,188.573 3.157 C 193.390 3.131,189.449 3.109,179.813 3.109 C 170.178 3.109,166.236 3.131,171.054 3.157 M311.663 3.157 C 316.537 3.183,324.461 3.183,329.271 3.157 C 334.081 3.131,330.093 3.109,320.409 3.109 C 310.725 3.109,306.789 3.131,311.663 3.157 M357.359 54.735 C 358.508 54.766,360.389 54.766,361.538 54.735 C 362.688 54.704,361.747 54.679,359.449 54.679 C 357.150 54.679,356.209 54.704,357.359 54.735 M272.799 91.907 C 274.199 91.937,276.440 91.937,277.779 91.907 C 279.118 91.877,277.972 91.852,275.233 91.852 C 272.494 91.852,271.399 91.877,272.799 91.907 M106.581 132.636 C 107.730 132.667,109.611 132.667,110.760 132.636 C 111.910 132.605,110.969 132.580,108.671 132.580 C 106.372 132.580,105.431 132.605,106.581 132.636 " stroke="none" fill="#b8141c" fill-rule="evenodd"></path></g></svg>