<svg id="svg" version="1.1" xmlns="http://www.w3.org/2000/svg" xmlns:xlink="http://www.w3.org/1999/xlink" width="400" height="312" viewBox="0, 0, 400,312"><g id="svgg"><path id="path0" d="M245.242 271.129 L 245.242 276.131 241.810 276.131 L 238.378 276.131 238.378 279.875 L 238.378 283.619 241.810 283.619 L 245.242 283.619 245.244 291.966 C 245.246 303.619,245.833 306.191,249.009 308.471 C 252.513 310.987,259.593 311.153,264.665 308.838 C 266.422 308.036,266.379 308.385,265.180 304.606 C 263.963 300.774,264.072 300.861,261.893 301.981 C 258.527 303.711,255.859 303.590,254.099 301.628 L 253.198 300.624 253.106 292.129 L 253.014 283.633 258.878 283.548 L 264.743 283.463 264.743 279.875 L 264.743 276.287 258.900 276.202 L 253.058 276.117 252.972 271.210 L 252.886 266.303 249.064 266.215 L 245.242 266.127 245.242 271.129 M78.228 275.956 C 76.416 276.475,75.515 277.044,74.105 278.560 L 73.028 279.719 73.019 277.925 L 73.011 276.131 69.111 276.131 L 65.211 276.131 65.211 292.980 L 65.211 309.828 69.111 309.828 L 73.011 309.828 73.011 299.528 C 73.011 293.862,73.126 288.983,73.266 288.685 C 75.268 284.442,76.573 283.350,79.969 283.078 C 83.205 282.818,85.208 283.781,86.514 286.223 C 87.184 287.475,87.213 287.902,87.363 298.596 L 87.520 309.672 91.498 309.760 L 95.476 309.847 95.476 299.754 C 95.476 285.732,96.343 283.618,102.313 283.082 C 108.908 282.490,109.882 284.511,110.060 299.142 L 110.190 309.828 114.066 309.828 L 117.941 309.828 117.933 298.050 C 117.926 287.189,117.725 283.800,117.057 283.315 C 116.933 283.225,116.572 282.563,116.255 281.844 C 113.165 274.835,100.722 273.165,94.961 278.986 L 93.211 280.755 91.312 278.908 C 88.220 275.901,82.740 274.665,78.228 275.956 M136.349 275.831 C 130.329 277.087,125.270 282.519,124.016 289.078 C 122.072 299.235,127.741 308.592,136.788 310.160 C 141.659 311.004,146.866 309.921,149.212 307.574 L 150.390 306.396 150.390 308.112 L 150.390 309.828 154.290 309.828 L 158.190 309.828 158.190 292.980 L 158.190 276.131 154.290 276.131 L 150.390 276.131 150.390 277.876 L 150.390 279.621 148.878 278.266 C 146.282 275.940,140.870 274.888,136.349 275.831 M177.691 275.832 C 166.523 278.508,161.854 291.027,167.630 302.808 C 171.504 310.709,186.275 313.121,194.356 307.172 C 196.605 305.517,196.555 305.757,195.053 303.773 C 194.391 302.899,193.588 301.728,193.269 301.170 C 192.530 299.878,192.452 299.886,189.460 301.541 C 183.246 304.978,176.407 303.608,174.068 298.458 C 172.910 295.910,171.990 296.100,185.477 296.100 L 197.476 296.100 197.698 294.930 C 199.031 287.905,194.019 278.688,187.610 276.377 C 185.554 275.636,179.823 275.321,177.691 275.832 M213.784 275.841 C 210.510 276.485,206.458 279.304,205.613 281.525 C 205.403 282.076,205.020 283.006,204.761 283.591 C 204.159 284.955,204.391 288.318,205.195 289.906 C 207.163 293.790,209.916 295.272,217.225 296.387 C 224.042 297.426,226.264 299.039,224.308 301.526 C 222.123 304.304,214.493 304.250,209.377 301.421 C 206.731 299.958,206.601 299.963,205.763 301.582 C 205.425 302.234,204.938 302.991,204.680 303.264 C 202.491 305.582,202.713 306.269,206.240 308.076 C 215.902 313.026,230.417 310.150,232.495 302.873 C 234.468 295.965,230.833 291.072,222.707 289.697 C 221.115 289.428,218.641 289.010,217.208 288.769 C 214.265 288.274,213.207 287.724,212.909 286.536 C 212.495 284.886,213.098 284.140,215.883 282.860 C 217.049 282.323,220.286 282.202,221.143 282.663 C 221.441 282.823,222.387 283.114,223.245 283.309 C 224.103 283.505,225.665 284.008,226.715 284.428 C 229.181 285.412,229.271 285.361,230.907 282.023 C 232.510 278.754,232.587 278.955,229.112 277.347 C 225.688 275.762,218.014 275.008,213.784 275.841 M286.791 276.102 C 285.751 276.461,284.609 277.185,283.749 278.029 L 282.371 279.381 282.371 277.756 L 282.371 276.131 278.627 276.131 L 274.883 276.131 274.883 292.980 L 274.883 309.828 278.609 309.828 L 282.335 309.828 282.431 298.740 C 282.491 291.817,282.645 287.569,282.839 287.430 C 283.011 287.308,283.430 286.661,283.770 285.994 C 285.021 283.540,287.981 282.534,291.588 283.338 C 292.611 283.566,293.568 283.758,293.716 283.764 C 293.993 283.776,296.055 277.627,296.084 276.703 C 296.121 275.503,289.723 275.090,286.791 276.102 M312.480 275.832 C 294.165 280.213,294.400 306.787,312.785 310.305 C 326.806 312.987,337.538 302.029,334.309 288.329 C 332.216 279.448,321.946 273.569,312.480 275.832 M184.827 283.266 C 186.998 284.251,188.153 285.491,188.917 287.658 C 189.748 290.013,190.272 289.860,181.410 289.860 L 173.429 289.860 173.648 288.846 C 174.197 286.305,176.720 283.517,178.858 283.090 C 179.332 282.995,179.719 282.794,179.719 282.644 C 179.719 282.003,182.894 282.390,184.827 283.266 M144.684 283.660 C 153.231 286.807,152.259 300.758,143.337 303.005 C 138.861 304.132,133.713 301.224,132.448 296.855 C 132.154 295.839,131.788 294.764,131.635 294.466 C 131.280 293.774,131.277 292.194,131.630 291.493 C 131.781 291.195,132.163 290.109,132.481 289.080 C 133.974 284.235,139.536 281.765,144.684 283.660 M320.311 283.675 C 323.000 284.558,325.018 286.466,325.863 288.924 C 326.187 289.867,326.573 290.773,326.721 290.936 C 327.073 291.325,327.068 294.953,326.715 295.335 C 326.564 295.498,326.266 296.193,326.052 296.880 C 324.007 303.453,315.458 305.504,310.222 300.678 C 302.029 293.126,309.704 280.193,320.311 283.675 M342.434 304.373 C 342.262 304.426,341.731 304.556,341.254 304.661 C 339.238 305.107,338.486 308.443,340.016 310.155 C 342.876 313.356,348.250 309.811,346.037 306.182 C 345.274 304.931,343.505 304.043,342.434 304.373 M343.448 305.987 C 343.147 306.066,342.656 306.066,342.356 305.987 C 342.055 305.909,342.301 305.845,342.902 305.845 C 343.502 305.845,343.748 305.909,343.448 305.987 M341.654 307.956 C 341.654 309.481,341.285 310.008,340.907 309.023 C 340.654 308.364,340.666 306.864,340.926 306.604 C 341.433 306.097,341.654 306.506,341.654 307.956 M344.886 308.425 C 344.788 308.682,344.567 308.892,344.395 308.892 C 344.223 308.892,344.168 308.670,344.272 308.399 C 344.377 308.127,344.471 307.601,344.482 307.229 L 344.501 306.552 344.784 307.255 C 344.939 307.641,344.985 308.167,344.886 308.425 M343.214 309.672 C 343.538 310.063,343.494 310.140,342.950 310.140 C 342.498 310.140,342.353 309.996,342.477 309.672 C 342.576 309.415,342.694 309.204,342.741 309.204 C 342.787 309.204,343.000 309.415,343.214 309.672 " stroke="none" fill="#1c1c1c" fill-rule="evenodd"></path><path id="path1" d="M200.000 26.508 C 200.000 26.638,198.631 27.867,196.958 29.239 C 138.608 77.079,138.838 170.075,197.426 218.520 C 198.842 219.691,200.000 220.784,200.000 220.950 C 200.000 221.116,200.316 220.908,200.702 220.489 C 201.088 220.069,202.668 218.636,204.212 217.304 C 260.987 168.357,261.418 79.681,205.117 30.889 C 203.434 29.431,201.594 27.795,201.028 27.254 C 200.463 26.714,200.000 26.378,200.000 26.508 " stroke="none" fill="#6c6bbb" fill-rule="evenodd"></path><path id="path2" d="M114.509 0.187 C 113.908 0.255,111.802 0.464,109.828 0.653 C 103.130 1.292,91.332 3.579,88.505 4.787 C 87.963 5.018,85.273 5.939,82.527 6.833 C 79.782 7.727,76.552 8.933,75.351 9.514 C 74.150 10.095,71.573 11.285,69.625 12.158 C 67.677 13.031,65.640 14.083,65.099 14.496 C 64.558 14.908,63.739 15.389,63.278 15.564 C 62.817 15.739,61.505 16.451,60.361 17.146 C 59.218 17.840,58.183 18.409,58.061 18.409 C 57.940 18.409,57.568 18.661,57.235 18.970 C 56.902 19.279,55.090 20.556,53.207 21.807 C 51.325 23.059,49.597 24.350,49.368 24.678 C 49.138 25.005,48.797 25.273,48.610 25.273 C 46.692 25.273,30.720 41.084,25.559 48.093 C 24.973 48.889,23.861 50.383,23.089 51.414 C 21.350 53.735,19.754 56.225,17.263 60.501 C 16.204 62.319,14.993 64.368,14.571 65.055 C 14.149 65.741,13.076 67.917,12.187 69.891 C 11.298 71.864,10.169 74.321,9.678 75.351 C 6.809 81.371,3.391 93.025,1.899 101.872 C -2.111 125.645,1.015 153.406,9.838 172.387 C 10.397 173.588,11.593 176.186,12.497 178.159 C 13.400 180.133,14.309 181.958,14.516 182.215 C 14.722 182.473,15.495 183.807,16.233 185.179 C 17.819 188.131,22.964 195.987,24.554 197.886 C 25.169 198.620,25.997 199.734,26.395 200.363 C 26.793 200.992,27.690 202.107,28.389 202.841 C 29.087 203.575,30.031 204.675,30.486 205.286 C 31.641 206.834,40.696 215.830,42.590 217.309 C 43.448 217.980,44.782 219.117,45.554 219.836 C 46.326 220.556,47.941 221.819,49.142 222.643 C 50.343 223.467,51.371 224.250,51.426 224.384 C 51.481 224.517,52.043 224.938,52.674 225.321 C 53.306 225.704,55.253 226.963,57.001 228.120 C 58.749 229.277,61.347 230.843,62.773 231.601 C 64.200 232.359,66.700 233.690,68.331 234.559 C 69.961 235.427,72.839 236.744,74.727 237.484 C 76.615 238.225,78.229 238.918,78.315 239.026 C 78.599 239.380,84.648 241.412,88.456 242.431 C 90.515 242.982,92.350 243.556,92.534 243.706 C 93.031 244.110,101.796 245.795,107.166 246.518 C 113.260 247.339,127.794 247.674,134.217 247.142 C 141.665 246.525,154.551 244.416,155.069 243.730 C 155.155 243.615,156.279 243.259,157.566 242.938 C 161.206 242.032,169.423 239.318,169.423 239.023 C 169.423 238.877,169.807 238.661,170.276 238.543 C 171.797 238.161,176.987 235.866,180.343 234.089 C 182.145 233.136,184.532 231.874,185.647 231.285 C 186.763 230.695,188.194 229.804,188.827 229.303 C 189.461 228.803,190.075 228.393,190.192 228.393 C 191.082 228.393,200.258 221.522,200.080 220.988 C 200.011 220.781,198.806 219.661,197.403 218.501 C 138.852 170.086,138.621 77.069,196.934 29.259 C 199.646 27.035,200.707 25.897,200.068 25.897 C 199.945 25.897,199.282 25.392,198.596 24.774 C 197.910 24.157,195.944 22.719,194.228 21.578 C 192.512 20.437,191.037 19.424,190.952 19.326 C 190.710 19.050,185.430 15.913,185.208 15.913 C 185.100 15.913,184.417 15.531,183.691 15.065 C 182.509 14.305,176.424 11.232,176.102 11.232 C 176.031 11.232,174.616 10.585,172.957 9.795 C 164.609 5.815,151.352 2.241,139.470 0.766 C 135.496 0.273,117.452 -0.146,114.509 0.187 " stroke="none" fill="#eb0414" fill-rule="evenodd"></path><path id="path3" d="M267.395 0.185 C 266.794 0.253,264.758 0.454,262.871 0.633 C 255.593 1.321,245.127 3.335,241.186 4.807 C 240.070 5.223,237.754 6.001,236.037 6.535 C 232.641 7.592,228.018 9.352,227.769 9.683 C 227.683 9.797,226.630 10.280,225.429 10.756 C 222.901 11.758,217.846 14.239,217.161 14.813 C 216.903 15.029,215.569 15.801,214.197 16.529 C 212.824 17.257,210.326 18.785,208.647 19.925 C 206.967 21.065,205.128 22.278,204.560 22.621 C 203.393 23.326,200.312 25.953,200.312 26.243 C 200.312 26.348,201.962 27.843,203.978 29.564 C 261.687 78.845,261.835 168.101,204.290 217.550 C 199.653 221.535,199.835 221.097,202.106 222.797 C 203.093 223.535,203.970 224.229,204.056 224.339 C 204.142 224.449,205.546 225.396,207.176 226.445 C 208.807 227.494,210.507 228.636,210.954 228.984 C 211.897 229.716,218.631 233.385,219.031 233.385 C 219.179 233.385,219.496 233.581,219.735 233.820 C 220.363 234.448,222.718 235.579,226.989 237.304 C 229.048 238.136,230.804 238.916,230.891 239.038 C 231.117 239.355,237.981 241.609,241.654 242.572 C 243.370 243.023,245.015 243.525,245.311 243.689 C 246.965 244.609,258.603 246.523,266.259 247.135 C 278.886 248.144,303.609 246.090,307.903 243.675 C 308.190 243.514,309.768 243.027,311.410 242.593 C 314.796 241.699,321.572 239.467,322.109 239.069 C 322.305 238.924,323.448 238.411,324.649 237.928 C 327.594 236.746,333.036 234.260,333.229 234.009 C 333.315 233.898,334.860 233.039,336.661 232.101 C 340.673 230.012,347.033 225.945,349.409 223.950 C 350.377 223.136,351.296 222.469,351.450 222.468 C 351.749 222.465,354.091 220.658,355.382 219.433 C 355.811 219.027,357.145 217.866,358.346 216.853 C 363.091 212.853,372.324 202.965,374.738 199.300 C 375.161 198.658,375.604 198.131,375.722 198.130 C 375.840 198.129,376.880 196.689,378.032 194.930 C 379.184 193.171,380.229 191.661,380.353 191.576 C 380.645 191.374,383.295 186.890,384.317 184.867 C 384.750 184.009,385.220 183.233,385.361 183.143 C 385.501 183.052,386.471 181.157,387.516 178.931 C 388.561 176.704,389.772 174.197,390.207 173.359 C 391.137 171.569,392.499 167.952,393.805 163.807 C 394.319 162.176,394.929 160.421,395.161 159.906 C 395.640 158.847,396.924 153.896,397.630 150.390 C 401.174 132.790,400.942 111.591,397.014 94.191 C 396.001 89.704,391.518 76.267,390.525 74.742 C 390.296 74.391,389.443 72.559,388.629 70.671 C 387.105 67.138,385.841 64.741,385.122 64.018 C 384.896 63.792,384.711 63.465,384.711 63.293 C 384.711 63.120,384.116 61.972,383.387 60.741 C 382.659 59.510,381.886 58.151,381.670 57.722 C 381.453 57.293,380.867 56.464,380.368 55.878 C 379.868 55.293,379.274 54.451,379.048 54.006 C 378.608 53.142,376.465 50.074,375.760 49.298 C 375.526 49.041,374.820 48.128,374.190 47.270 C 371.198 43.192,362.765 34.304,357.697 29.887 C 355.166 27.681,351.745 24.961,351.502 24.961 C 351.379 24.961,350.872 24.555,350.377 24.060 C 349.881 23.564,348.172 22.340,346.578 21.340 C 344.985 20.340,343.541 19.360,343.370 19.162 C 343.198 18.964,341.583 17.991,339.782 16.999 C 337.980 16.007,336.014 14.874,335.413 14.480 C 334.813 14.085,332.566 12.977,330.421 12.017 C 328.276 11.058,326.027 10.011,325.424 9.693 C 319.380 6.502,304.248 2.372,293.292 0.923 C 288.400 0.276,270.977 -0.221,267.395 0.185 M385.647 195.944 C 385.647 196.401,385.855 196.568,386.427 196.568 C 387.179 196.568,387.207 196.641,387.207 198.596 C 387.207 200.551,387.235 200.624,387.988 200.624 C 388.738 200.624,388.768 200.549,388.768 198.631 C 388.768 196.662,388.778 196.637,389.691 196.503 L 390.614 196.368 390.705 198.418 C 390.811 200.805,392.185 201.911,392.212 199.632 L 392.225 198.596 392.690 199.454 C 393.280 200.541,394.248 200.582,394.512 199.532 C 394.783 198.450,395.320 198.553,395.320 199.688 C 395.320 200.478,395.441 200.624,396.100 200.624 C 396.871 200.624,396.880 200.593,396.880 197.972 L 396.880 195.320 395.772 195.320 C 394.788 195.320,394.610 195.450,394.178 196.484 L 393.691 197.648 393.094 196.484 L 392.497 195.320 389.072 195.320 C 385.855 195.320,385.647 195.358,385.647 195.944 " stroke="none" fill="#049be3" fill-rule="evenodd"></path><path id="path4" d="M200.312 26.619 C 200.312 26.705,201.014 27.363,201.872 28.081 C 202.730 28.800,203.432 29.317,203.432 29.231 C 203.432 29.145,202.730 28.487,201.872 27.769 C 201.014 27.051,200.312 26.533,200.312 26.619 M210.177 35.725 C 213.985 39.522,218.097 43.983,219.957 46.334 C 223.273 50.525,224.503 51.942,222.936 49.766 C 219.370 44.813,211.547 36.283,206.093 31.400 C 204.725 30.175,206.563 32.122,210.177 35.725 M226.665 55.460 C 227.146 56.190,227.600 56.786,227.672 56.786 C 227.897 56.786,226.703 54.887,226.234 54.500 C 225.990 54.299,226.184 54.731,226.665 55.460 M231.364 63.183 C 232.015 64.384,232.687 65.507,232.860 65.679 C 233.032 65.850,232.646 65.008,232.002 63.807 C 231.359 62.605,230.686 61.482,230.507 61.310 C 230.328 61.139,230.714 61.981,231.364 63.183 M235.693 71.451 C 235.954 72.382,237.853 76.448,237.971 76.329 C 238.038 76.263,237.523 75.032,236.827 73.595 C 236.132 72.159,235.621 71.193,235.693 71.451 M240.256 82.761 C 240.289 83.193,242.714 90.226,242.727 89.932 C 242.751 89.425,240.577 82.683,240.390 82.683 C 240.313 82.683,240.252 82.718,240.256 82.761 M245.903 105.239 C 245.883 105.547,246.075 107.583,246.330 109.763 C 246.585 111.944,246.848 114.220,246.915 114.821 C 246.982 115.421,246.970 114.509,246.888 112.793 C 246.748 109.868,245.985 104.013,245.903 105.239 M247.248 123.713 C 247.249 127.832,247.293 129.473,247.347 127.361 C 247.401 125.249,247.401 121.879,247.347 119.873 C 247.292 117.866,247.248 119.594,247.248 123.713 M246.849 132.451 C 246.823 133.139,246.595 135.455,246.342 137.599 C 245.610 143.812,245.534 144.867,246.008 142.278 C 246.617 138.949,247.194 133.233,247.033 132.134 C 246.916 131.343,246.888 131.391,246.849 132.451 M241.427 160.928 C 240.802 162.934,240.343 164.628,240.407 164.692 C 240.471 164.756,241.039 163.171,241.669 161.170 C 242.299 159.168,242.758 157.475,242.689 157.406 C 242.620 157.336,242.052 158.921,241.427 160.928 M236.401 174.155 C 235.772 175.556,235.305 176.751,235.366 176.811 C 235.426 176.872,235.992 175.776,236.622 174.376 C 237.253 172.976,237.719 171.781,237.658 171.720 C 237.597 171.658,237.031 172.754,236.401 174.155 M232.573 181.981 C 232.288 182.539,231.700 183.627,231.265 184.399 C 230.830 185.172,230.625 185.663,230.809 185.491 C 231.261 185.071,233.489 180.967,233.266 180.967 C 233.169 180.967,232.857 181.424,232.573 181.981 M227.399 190.718 C 225.425 193.704,225.200 194.072,225.349 194.072 C 225.479 194.072,226.333 192.841,228.220 189.938 C 228.526 189.466,228.710 189.080,228.629 189.080 C 228.548 189.080,227.994 189.817,227.399 190.718 M221.997 198.440 C 221.205 199.470,220.627 200.312,220.712 200.312 C 220.798 200.312,221.517 199.470,222.309 198.440 C 223.101 197.410,223.679 196.568,223.593 196.568 C 223.508 196.568,222.789 197.410,221.997 198.440 M217.132 204.446 C 216.037 205.690,215.388 206.513,215.691 206.273 C 216.347 205.754,219.468 202.184,219.265 202.184 C 219.187 202.184,218.227 203.202,217.132 204.446 M210.920 211.016 C 208.604 213.296,205.655 216.119,204.368 217.290 C 202.155 219.304,202.138 219.329,204.056 217.752 C 206.069 216.096,215.588 206.878,215.289 206.873 C 215.203 206.871,213.237 208.736,210.920 211.016 " stroke="none" fill="#427dcc" fill-rule="evenodd"></path></g></svg>